<svg width="150" height="150" viewBox="0 0 150 150" fill="none" xmlns="http://www.w3.org/2000/svg">
<g clip-path="url(#clip0)">
<path d="M85.2699 71.1355C85.7123 72.0006 86.5924 72.5004 87.5023 72.5004C87.8823 72.5004 88.2722 72.4128 88.6349 72.2279C88.7823 72.1529 103.497 64.6779 110.755 62.3854C112.07 61.968 112.8 60.5629 112.382 59.2481C111.967 57.9329 110.572 57.2005 109.245 57.6157C101.6 60.0332 86.9849 67.4582 86.365 67.7731C85.1349 68.398 84.645 69.9033 85.2699 71.1355Z" fill="#FDE387"/>
<path d="M87.5023 42.5009C87.8822 42.5009 88.2722 42.4133 88.6349 42.2285C88.7822 42.1535 103.497 34.6784 110.755 32.386C112.07 31.9685 112.8 30.5634 112.382 29.2486C111.967 27.9335 110.572 27.2011 109.245 27.6162C101.6 30.0337 86.9849 37.4587 86.365 37.7736C85.1351 38.3985 84.645 39.9035 85.2699 41.136C85.7122 42.0008 86.5923 42.5009 87.5023 42.5009Z" fill="#FDE387"/>
<path d="M147.5 37.5008C146.117 37.5008 145 38.6208 145 40.0007V137.5C145 141.635 141.635 145 137.5 145H77.5002V139.247C81.1453 137.973 90.64 135 100 135C121.777 135 136.565 139.823 136.712 139.872C137.465 140.122 138.305 139.997 138.962 139.527C139.615 139.057 140 138.302 140 137.5V27.501C140 26.3286 139.187 25.3134 138.042 25.0609C138.042 25.0609 136.082 24.6235 132.732 24.0083C131.379 23.7584 130.072 24.6584 129.822 26.0133C129.572 27.3733 130.469 28.6758 131.827 28.9257C133.105 29.1607 134.175 29.3681 135 29.5333V134.177C129.334 132.692 116.755 130 99.9997 130C89.1072 130 78.4075 133.577 75.0973 134.79C72.1547 133.49 63.26 130 52.4999 130C35.2799 130 21.0951 132.84 15.0002 134.283V29.4358C19.9926 28.2082 34.7376 25.0008 52.4999 25.0008C61.615 25.0008 69.4322 27.8382 72.4998 29.1208V127.5C72.4998 128.4 72.9847 129.233 73.7672 129.675C74.5497 130.12 75.5148 130.108 76.2873 129.643C76.5349 129.495 101.305 114.7 123.289 107.373C124.312 107.03 124.999 106.078 124.999 105V2.50101C124.999 1.681 124.597 0.913427 123.922 0.446146C123.252 -0.0214288 122.392 -0.128947 121.619 0.158746C101.617 7.66103 81.3776 20.256 81.1749 20.381C80.0048 21.1135 79.6473 22.6559 80.3798 23.826C81.1098 24.9961 82.6523 25.3536 83.8247 24.6212C84.0096 24.5037 101.617 13.5488 119.999 6.15635V103.211C102.934 109.141 85.117 118.823 77.4996 123.158V27.501C77.4996 26.5536 76.9646 25.6884 76.1171 25.2636C75.687 25.0512 65.4423 20.0011 52.4999 20.0011C29.9101 20.0011 12.5428 24.8886 11.8127 25.0984C10.7402 25.4034 10.0001 26.386 10.0001 27.501V137.5C10.0001 138.283 10.3702 139.023 10.9927 139.495C11.4327 139.828 11.9627 140 12.5003 140C12.7303 140 12.9603 139.968 13.1853 139.903C13.3578 139.855 30.6452 135 52.4999 135C61.6399 135 69.4498 137.845 72.4998 139.123V145H12.5003C8.36539 145 5.00038 141.635 5.00038 137.5V40.001C5.00038 38.6211 3.88036 37.5011 2.50049 37.5011C1.12062 37.5011 0.000610352 38.6211 0.000610352 40.001V137.5C0.000610352 144.393 5.60799 150 12.5006 150H137.5C144.392 150 150 144.393 150 137.5V40.001C149.999 38.6208 148.882 37.5008 147.5 37.5008Z" fill="#FDE387"/>
<path d="M85.2699 56.1356C85.7123 57.0007 86.5924 57.5005 87.5023 57.5005C87.8823 57.5005 88.2722 57.4129 88.6349 57.2281C88.7823 57.1531 103.497 49.678 110.755 47.3856C112.07 46.9681 112.8 45.563 112.382 44.2482C111.967 42.9331 110.572 42.2006 109.245 42.6158C101.6 45.0333 86.9849 52.4583 86.365 52.7732C85.1349 53.3981 84.645 54.9034 85.2699 56.1356Z" fill="#FDE387"/>
<path d="M85.2699 86.1354C85.7123 87.0005 86.5924 87.5003 87.5023 87.5003C87.8823 87.5003 88.2722 87.4127 88.6349 87.2278C88.7823 87.1528 103.497 79.6778 110.755 77.3853C112.07 76.9679 112.8 75.5628 112.382 74.2479C111.967 72.9328 110.572 72.2004 109.245 72.6155C101.6 75.0331 86.9849 82.458 86.365 82.773C85.1349 83.3979 84.645 84.9031 85.2699 86.1354Z" fill="#FDE387"/>
<path d="M60.5702 46.3959C45.1329 42.7734 27.5904 47.3885 26.853 47.586C25.5206 47.9434 24.7281 49.3133 25.0855 50.6483C25.3855 51.7657 26.3954 52.5008 27.4981 52.5008C27.7131 52.5008 27.9305 52.4732 28.1482 52.4158C28.3158 52.3683 45.2056 47.9258 59.4306 51.2633C60.768 51.5759 62.1206 50.7433 62.4355 49.3982C62.7502 48.0559 61.9152 46.7109 60.5702 46.3959Z" fill="#FDE387"/>
<path d="M60.5702 61.3958C45.1329 57.7759 27.5904 62.3884 26.853 62.5858C25.5206 62.9433 24.7281 64.3135 25.0855 65.6482C25.3855 66.7656 26.3954 67.5006 27.4981 67.5006C27.7131 67.5006 27.9305 67.4731 28.1482 67.4157C28.3158 67.3682 45.2056 62.9257 59.4306 66.2631C60.768 66.5757 62.1206 65.7431 62.4355 64.3981C62.7502 63.0557 61.9152 61.7107 60.5702 61.3958Z" fill="#FDE387"/>
<path d="M85.2699 101.135C85.7123 102 86.5924 102.5 87.5023 102.5C87.8823 102.5 88.2722 102.413 88.6349 102.228C88.7823 102.153 103.497 94.6777 110.755 92.3852C112.07 91.9677 112.8 90.5627 112.382 89.2478C111.967 87.933 110.572 87.2003 109.245 87.6154C101.6 90.033 86.9849 97.4579 86.365 97.7729C85.1349 98.3978 84.645 99.903 85.2699 101.135Z" fill="#FDE387"/>
<path d="M60.5702 76.3957C45.1329 72.7758 27.5904 77.3856 26.853 77.5857C25.5206 77.9431 24.7281 79.3133 25.0855 80.6481C25.3855 81.7655 26.3954 82.5032 27.4981 82.5032C27.7131 82.5032 27.9305 82.4733 28.1482 82.4156C28.3158 82.3681 45.2056 77.9256 59.4306 81.263C60.768 81.5756 62.1206 80.743 62.4355 79.398C62.7502 78.0556 61.9152 76.7106 60.5702 76.3957Z" fill="#FDE387"/>
<path d="M60.5702 106.395C45.1329 102.773 27.5904 107.388 26.853 107.585C25.5206 107.943 24.7281 109.313 25.0855 110.648C25.3855 111.765 26.3954 112.503 27.4981 112.503C27.7131 112.503 27.9305 112.473 28.1482 112.415C28.3158 112.368 45.2056 107.925 59.4306 111.263C60.768 111.573 62.1206 110.743 62.4355 109.398C62.7502 108.055 61.9152 106.71 60.5702 106.395Z" fill="#FDE387"/>
<path d="M60.5702 91.3956C45.1329 87.7731 27.5904 92.3855 26.853 92.5856C25.5206 92.943 24.7281 94.3132 25.0855 95.648C25.3855 96.7653 26.3954 97.503 27.4981 97.503C27.7131 97.503 27.9305 97.4731 28.1482 97.4154C28.3158 97.368 45.2056 92.9254 59.4306 96.2629C60.768 96.5755 62.1206 95.7429 62.4355 94.3979C62.7502 93.0555 61.9152 91.7105 60.5702 91.3956Z" fill="#FDE387"/>
</g>
<defs>
<clipPath id="clip0">
<rect width="150" height="150" fill="white"/>
</clipPath>
</defs>
</svg>
