<svg width="140" height="125" viewBox="0 0 140 125" fill="none" xmlns="http://www.w3.org/2000/svg">
<g clip-path="url(#clip0)">
<path d="M0.882324 40.3547H31.4704V12.6953H0.882324V40.3547ZM8.9831 20.0205H23.3707V33.0305H8.9831V20.0205Z" fill="#BB6BD9"/>
<path d="M41.1912 12.6953V40.3547H139.118V12.6953H41.1912ZM131.017 33.0305H49.2919V20.0205H131.017V33.0305Z" fill="#BB6BD9"/>
<path d="M0.882324 76.2453H31.4704V48.5859H0.882324V76.2453ZM8.9831 55.9101H23.3707V68.9201H8.9831V55.9101Z" fill="#BB6BD9"/>
<path d="M41.1912 76.2453H139.118V48.5859H41.1912V76.2453ZM49.2919 55.9101H131.017V68.9201H49.2919V55.9101Z" fill="#BB6BD9"/>
<path d="M0.882324 112.136H31.4704V84.4755H0.882324V112.136ZM8.9831 91.8007H23.3707V104.811H8.9831V91.8007Z" fill="#BB6BD9"/>
<path d="M41.1912 112.136H139.118V84.4755H41.1912V112.136ZM49.2919 91.8007H131.017V104.811H49.2919V91.8007Z" fill="#BB6BD9"/>
</g>
<defs>
<clipPath id="clip0">
<rect width="138.235" height="125" fill="white" transform="translate(0.882324)"/>
</clipPath>
</defs>
</svg>
