<svg width="30" height="30" viewBox="0 0 30 30" fill="none" xmlns="http://www.w3.org/2000/svg">
<g clip-path="url(#clip0)">
<path d="M6.71488 29.3932C6.3862 29.3932 6.0598 29.2907 5.78125 29.0893C5.26236 28.7132 5.01997 28.0668 5.16119 27.4431L7.09117 18.9415L0.5459 13.2015C0.0647781 12.7815 -0.119019 12.1163 0.0785114 11.5077C0.276042 10.9002 0.81347 10.4702 1.44978 10.4113L10.11 9.62511L13.5339 1.61244C13.7864 1.02374 14.3613 0.643555 15.0002 0.643555C15.639 0.643555 16.214 1.02374 16.4664 1.61106L19.8903 9.62511L28.5492 10.4113C29.1868 10.4688 29.7243 10.9002 29.9218 11.5077C30.1193 12.1152 29.9367 12.7815 29.4556 13.2015L22.9103 18.9404L24.8403 27.4417C24.9817 28.0668 24.7391 28.7132 24.2204 29.0881C23.7029 29.463 23.0128 29.4919 22.4678 29.1643L15.0002 24.7017L7.53247 29.1669C7.28001 29.3168 6.9987 29.3932 6.71488 29.3932ZM15.0002 22.7793C15.284 22.7793 15.5651 22.8555 15.8177 23.0054L22.8654 27.2206L21.0439 19.1965C20.9139 18.6254 21.1078 18.0292 21.5491 17.6428L27.7293 12.2228L19.5527 11.4802C18.964 11.4265 18.4577 11.0563 18.2277 10.5139L15.0002 2.95235L11.7687 10.515C11.5412 11.0538 11.0349 11.4239 10.4476 11.4777L2.26988 12.2202L8.44985 17.6403C8.89252 18.0278 9.08616 18.6229 8.95501 19.1954L7.13489 27.2192L14.1826 23.0054C14.435 22.8555 14.7163 22.7793 15.0002 22.7793ZM10.0438 9.78007L10.0425 9.78258L10.0438 9.78007ZM19.954 9.7764L19.9553 9.77892L19.954 9.7764Z" fill="#818181"/>
</g>
<defs>
<clipPath id="clip0">
<rect width="30" height="30" fill="white"/>
</clipPath>
</defs>
</svg>
