<svg width="30" height="30" viewBox="0 0 30 30" fill="none" xmlns="http://www.w3.org/2000/svg">
<g clip-path="url(#clip0)">
<path d="M29.9218 11.508C29.7254 10.9005 29.1866 10.469 28.5492 10.4116L19.8903 9.62535L16.4664 1.61131C16.2139 1.02398 15.639 0.643799 15.0002 0.643799C14.3613 0.643799 13.7864 1.02398 13.5339 1.61268L10.11 9.62535L1.44977 10.4116C0.813463 10.4704 0.276035 10.9005 0.0785047 11.508C-0.119025 12.1154 0.0633981 12.7817 0.544749 13.2017L7.08979 18.9418L5.15981 27.4433C5.01859 28.0684 5.26121 28.7146 5.77987 29.0895C6.05865 29.2909 6.38482 29.3935 6.71373 29.3935C6.99732 29.3935 7.27863 29.317 7.53109 29.166L15.0002 24.702L22.4665 29.166C23.0128 29.4946 23.7015 29.4647 24.2191 29.0895C24.738 28.7134 24.9803 28.0671 24.8391 27.4433L22.9091 18.9418L29.4542 13.2029C29.9355 12.7817 30.1193 12.1166 29.9218 11.508Z" fill="#FFC107"/>
</g>
<defs>
<clipPath id="clip0">
<rect width="30" height="30" fill="white"/>
</clipPath>
</defs>
</svg>
