<svg width="150" height="114" viewBox="0 0 150 114" fill="none" xmlns="http://www.w3.org/2000/svg">
<path d="M51.3522 52.2275C46.3345 52.2275 42.2523 56.3098 42.2523 61.3274C42.2523 66.3451 46.3345 70.4277 51.3522 70.4277C56.3699 70.4277 60.4521 66.3451 60.4521 61.3274C60.4521 56.3098 56.3699 52.2275 51.3522 52.2275ZM51.3522 66.0249C48.7624 66.0249 46.6551 63.9179 46.6551 61.3277C46.6551 58.7379 48.7621 56.6309 51.3522 56.6309C53.9424 56.6309 56.0494 58.7379 56.0494 61.3277C56.0494 63.9176 53.9421 66.0249 51.3522 66.0249Z" fill="#FDE387"/>
<path d="M89.548 61.3274C89.548 66.3451 93.6302 70.4277 98.6479 70.4277C103.666 70.4277 107.748 66.3451 107.748 61.3274C107.748 56.3098 103.666 52.2275 98.6479 52.2275C93.6302 52.2275 89.548 56.3098 89.548 61.3274ZM98.6479 56.6306C101.238 56.6306 103.345 58.7376 103.345 61.3274C103.345 63.9176 101.238 66.0246 98.6479 66.0246C96.058 66.0246 93.9507 63.9176 93.9507 61.3274C93.9507 58.7376 96.058 56.6306 98.6479 56.6306Z" fill="#FDE387"/>
<path d="M149.749 92.2936L139.824 33.1916C139.818 33.1538 139.811 33.1163 139.802 33.0791C138.406 23.279 131.811 15.261 123.061 11.6643V7.57822C123.061 3.93662 120.099 0.973824 116.457 0.973824H108.155C104.513 0.973824 101.55 3.93662 101.55 7.57822V11.9979C98.6216 13.3131 95.9213 15.1497 93.5652 17.4732H56.4346C54.0786 15.1497 51.3783 13.3131 48.4495 11.9979V7.57822C48.4495 3.93662 45.487 0.973824 41.8451 0.973824H33.5432C29.9016 0.973824 26.9388 3.93662 26.9388 7.57822V11.6645C18.1899 15.261 11.5958 23.2781 10.198 33.077C10.1895 33.1148 10.1822 33.1529 10.1757 33.1916L6.97946 52.2246C6.77819 53.4237 7.58678 54.559 8.7859 54.7602C9.98503 54.9606 11.1203 54.1529 11.3215 52.9538L14.4871 34.1018C14.5073 34.0216 14.5234 33.9395 14.5345 33.8563C16.0668 22.548 25.8382 14.0206 37.2645 14.0206C43.3348 14.0206 48.9967 16.3474 53.3087 20.5822V23.589C53.3087 28.0397 56.9298 31.6608 61.3805 31.6608H70.597C71.8129 31.6608 72.7984 30.6753 72.7984 29.4595C72.7984 28.2434 71.8129 27.2581 70.597 27.2581H61.3805C59.3573 27.2581 57.7114 25.6122 57.7114 23.589V21.8754H92.2882V23.589C92.2882 25.6122 90.6423 27.2581 88.619 27.2581H79.4025C78.1867 27.2581 77.2011 28.2436 77.2011 29.4595C77.2011 30.6753 78.1867 31.6608 79.4025 31.6608H88.619C93.0698 31.6608 96.6909 28.0397 96.6909 23.589V20.5822C101.003 16.3471 106.665 14.0206 112.735 14.0206C124.161 14.0206 133.933 22.548 135.465 33.8563C135.476 33.9387 135.492 34.0195 135.512 34.0989L145.407 93.0225C146.445 99.2054 143.126 105.202 137.336 107.606C133.869 109.045 130.078 108.981 126.662 107.428C123.245 105.874 120.706 103.06 119.511 99.5021L117.485 93.4678C117.098 92.3153 115.849 91.6936 114.697 92.0818C113.544 92.4688 112.924 93.7169 113.311 94.8694L115.337 100.904C116.902 105.563 120.365 109.402 124.84 111.436C127.169 112.495 129.686 113.026 132.205 113.026C134.525 113.026 136.847 112.575 139.023 111.672C146.718 108.478 151.129 100.51 149.749 92.2936ZM31.3419 10.2759V7.57822C31.3419 6.36415 32.3295 5.37685 33.5432 5.37685H41.8451C43.0591 5.37685 44.0465 6.36445 44.0465 7.57822V10.461C41.8603 9.90673 39.5881 9.61816 37.2648 9.61816C35.2378 9.61816 33.2558 9.84785 31.3419 10.2759ZM105.954 10.461V7.57822C105.954 6.36415 106.941 5.37685 108.155 5.37685H116.457C117.671 5.37685 118.658 6.36445 118.658 7.57822V10.2759C116.744 9.84785 114.762 9.61816 112.735 9.61816C110.412 9.61816 108.14 9.90673 105.954 10.461Z" fill="#FDE387"/>
<path d="M114.68 85.1156L110.768 73.4654C110.545 72.8004 110.018 72.2815 109.349 72.0685C108.681 71.8558 107.951 71.9739 107.384 72.3873C104.994 74.1296 102.165 75.0504 99.2032 75.0504C95.3893 75.0504 91.83 73.5337 89.1807 70.7798C88.7656 70.3482 88.1928 70.1045 87.5943 70.1045H62.4081C61.8095 70.1045 61.2365 70.3485 60.8217 70.7798C58.1723 73.534 54.6128 75.0504 50.7989 75.0504C47.8373 75.0504 45.0081 74.1293 42.618 72.3873C42.0514 71.9742 41.3217 71.8558 40.6531 72.0685C39.9845 72.2815 39.4578 72.8004 39.2345 73.4654L30.49 99.5024C29.2953 103.06 26.7558 105.875 23.3392 107.428C19.9223 108.981 16.1319 109.044 12.6655 107.606C6.87497 105.202 3.55622 99.2057 4.5945 93.0228L9.86355 61.6459C10.0648 60.4468 9.25622 59.3115 8.0571 59.1102C6.85652 58.9107 5.72273 59.7176 5.52146 60.9167L0.252414 92.2936C-1.12718 100.51 3.28318 108.479 10.978 111.672C13.1548 112.576 15.4757 113.026 17.796 113.026C20.3146 113.026 22.8327 112.495 25.1618 111.437C29.636 109.402 33.0995 105.563 34.6642 100.904L42.5302 77.4832C45.0781 78.7784 47.8903 79.4537 50.7995 79.4537C55.5005 79.4537 59.9073 77.7044 63.3119 74.5075H86.6917C90.096 77.7041 94.5028 79.4537 99.2038 79.4537C102.113 79.4537 104.925 78.7787 107.473 77.4832L110.507 86.5175C110.894 87.67 112.142 88.2917 113.295 87.9035C114.447 87.5162 115.067 86.2681 114.68 85.1156Z" fill="#FDE387"/>
<path d="M37.4418 23.2992C33.6525 23.2992 30.5696 26.3821 30.5696 30.1714V30.6697H30.0713C26.282 30.6697 23.1991 33.7526 23.1991 37.5419C23.1991 41.3311 26.2817 44.4141 30.0713 44.4141H30.5696V44.9124C30.5696 48.7016 33.6525 51.7846 37.4418 51.7846C41.231 51.7846 44.3139 48.7016 44.3139 44.9124V44.4141H44.8123C48.6015 44.4141 51.6844 41.3311 51.6844 37.5419C51.6844 33.7526 48.6018 30.6697 44.8123 30.6697H44.3139V30.1714C44.3136 26.3821 41.231 23.2992 37.4418 23.2992ZM44.8123 35.0727C46.1737 35.0727 47.2814 36.1805 47.2814 37.5419C47.2814 38.9033 46.1737 40.011 44.8123 40.011H42.1123C40.8965 40.011 39.9109 40.9966 39.9109 42.2124V44.9124C39.9109 46.2741 38.8032 47.3815 37.4418 47.3815C36.0803 47.3815 34.9723 46.2738 34.9723 44.9124V42.2124C34.9723 40.9966 33.9868 40.011 32.771 40.011H30.0713C28.7098 40.011 27.6021 38.9033 27.6021 37.5419C27.6021 36.1802 28.7098 35.0727 30.0713 35.0727H32.771C33.9868 35.0727 34.9723 34.0872 34.9723 32.8714V30.1714C34.9723 28.8097 36.0801 27.7022 37.4418 27.7022C38.8032 27.7022 39.9109 28.81 39.9109 30.1714V32.8714C39.9109 34.0872 40.8965 35.0727 42.1123 35.0727H44.8123Z" fill="#FDE387"/>
<path d="M114.066 20.2928C110.521 20.2928 107.637 23.1768 107.637 26.7217C107.637 30.2666 110.521 33.1506 114.066 33.1506C117.611 33.1506 120.495 30.2666 120.495 26.7217C120.495 23.1768 117.611 20.2928 114.066 20.2928ZM114.066 28.7479C112.949 28.7479 112.04 27.8388 112.04 26.722C112.04 25.6052 112.949 24.6961 114.066 24.6961C115.183 24.6961 116.092 25.6052 116.092 26.722C116.092 27.8388 115.183 28.7479 114.066 28.7479Z" fill="#FDE387"/>
<path d="M114.066 41.9332C110.521 41.9332 107.637 44.8172 107.637 48.3621C107.637 51.9067 110.521 54.7907 114.066 54.7907C117.611 54.7907 120.495 51.9067 120.495 48.3618C120.495 44.8172 117.611 41.9332 114.066 41.9332ZM114.066 50.388C112.949 50.388 112.04 49.4789 112.04 48.3621C112.04 47.245 112.949 46.3362 114.066 46.3362C115.183 46.3362 116.092 47.2453 116.092 48.3621C116.092 49.4789 115.183 50.388 114.066 50.388Z" fill="#FDE387"/>
<path d="M131.315 37.5419C131.315 33.997 128.431 31.113 124.886 31.113C121.342 31.113 118.458 33.997 118.458 37.5419C118.458 41.0868 121.342 43.9708 124.886 43.9708C128.431 43.9708 131.315 41.0868 131.315 37.5419ZM122.861 37.5419C122.861 36.4248 123.769 35.516 124.886 35.516C126.004 35.516 126.912 36.4251 126.912 37.5419C126.912 38.6587 126.004 39.5678 124.886 39.5678C123.769 39.5678 122.861 38.659 122.861 37.5419Z" fill="#FDE387"/>
<path d="M96.8171 37.5419C96.8171 41.0868 99.7011 43.9708 103.246 43.9708C106.791 43.9708 109.675 41.0868 109.675 37.5419C109.675 33.997 106.791 31.113 103.246 31.113C99.7011 31.113 96.8171 33.997 96.8171 37.5419ZM105.272 37.5419C105.272 38.659 104.363 39.5678 103.246 39.5678C102.129 39.5678 101.22 38.6587 101.22 37.5419C101.22 36.4251 102.129 35.516 103.246 35.516C104.363 35.5157 105.272 36.4248 105.272 37.5419Z" fill="#FDE387"/>
<path d="M68.4996 46.0667C69.7155 46.0667 70.701 45.0812 70.701 43.8653C70.701 42.6495 69.7155 41.664 68.4996 41.664H61.9105C60.6947 41.664 59.7091 42.6495 59.7091 43.8653C59.7091 45.0812 60.6947 46.0667 61.9105 46.0667H68.4996Z" fill="#FDE387"/>
<path d="M88.0896 41.664H81.5004C80.2846 41.664 79.2991 42.6495 79.2991 43.8653C79.2991 45.0812 80.2846 46.0667 81.5004 46.0667H88.0896C89.3054 46.0667 90.291 45.0812 90.291 43.8653C90.291 42.6492 89.3054 41.664 88.0896 41.664Z" fill="#FDE387"/>
</svg>
