<svg width="144" height="118" viewBox="0 0 144 118" fill="none" xmlns="http://www.w3.org/2000/svg">
<g clip-path="url(#clip0)">
<path d="M124.283 21.634C124.288 21.1152 124.045 20.6156 123.607 20.2439L99.8328 0.582489C99.3855 0.217769 98.7799 0.016731 98.1519 0.024104V0.00640869H26.8284C22.8893 0.00640869 19.696 2.64719 19.696 5.90485V112.077C19.696 115.334 22.8893 117.975 26.8284 117.975H117.172C121.111 117.975 124.304 115.334 124.304 112.077V21.634H124.283ZM100.529 6.71883L116.187 19.6679H102.907C101.594 19.6679 100.529 18.7875 100.529 17.7017V6.71883ZM119.549 112.077C119.549 113.163 118.484 114.043 117.172 114.043H26.8284C25.5155 114.043 24.4509 113.163 24.4509 112.077V5.90485C24.4509 4.81904 25.5155 3.9387 26.8284 3.9387H95.7745V17.7017C95.7745 20.9594 98.9677 23.6002 102.907 23.6002H119.549V112.077Z" fill="#BB6BD9"/>
<path d="M43.4707 53.0923C39.5316 53.0923 36.3384 55.7331 36.3384 58.9908C36.3384 62.2484 39.5316 64.8892 43.4707 64.8892C47.4099 64.8892 50.6031 62.2484 50.6031 58.9908C50.6031 55.7331 47.4099 53.0923 43.4707 53.0923ZM43.4707 60.9569C42.1578 60.9569 41.0933 60.0766 41.0933 58.9908C41.0933 57.905 42.1578 57.0246 43.4707 57.0246C44.7837 57.0246 45.8482 57.905 45.8482 58.9908C45.8482 60.0766 44.7837 60.9569 43.4707 60.9569Z" fill="#BB6BD9"/>
<path d="M107.662 57.0247H60.1128V60.957H107.662V57.0247Z" fill="#BB6BD9"/>
<path d="M43.4707 33.4309C39.5316 33.4309 36.3384 36.0717 36.3384 39.3293C36.3384 42.587 39.5316 45.2278 43.4707 45.2278C47.4099 45.2278 50.6031 42.587 50.6031 39.3293C50.6031 36.0717 47.4099 33.4309 43.4707 33.4309ZM43.4707 41.2955C42.1578 41.2955 41.0933 40.4152 41.0933 39.3293C41.0933 38.2435 42.1578 37.3632 43.4707 37.3632C44.7837 37.3632 45.8482 38.2435 45.8482 39.3293C45.8482 40.4152 44.7837 41.2955 43.4707 41.2955Z" fill="#BB6BD9"/>
<path d="M107.662 37.3632H60.1128V41.2955H107.662V37.3632Z" fill="#BB6BD9"/>
<path d="M43.4707 72.7538C39.5316 72.7538 36.3384 75.3946 36.3384 78.6522C36.3384 81.9099 39.5316 84.5507 43.4707 84.5507C47.4099 84.5507 50.6031 81.9099 50.6031 78.6522C50.6031 75.3946 47.4099 72.7538 43.4707 72.7538ZM43.4707 80.6184C42.1578 80.6184 41.0933 79.738 41.0933 78.6522C41.0933 77.5664 42.1578 76.6861 43.4707 76.6861C44.7837 76.6861 45.8482 77.5664 45.8482 78.6522C45.8482 79.738 44.7837 80.6184 43.4707 80.6184Z" fill="#BB6BD9"/>
<path d="M107.662 76.6861H60.1128V80.6184H107.662V76.6861Z" fill="#BB6BD9"/>
<path d="M43.4707 92.4153C39.5316 92.4153 36.3384 95.0561 36.3384 98.3137C36.3384 101.571 39.5316 104.212 43.4707 104.212C47.4099 104.212 50.6031 101.571 50.6031 98.3137C50.6031 95.0561 47.4099 92.4153 43.4707 92.4153ZM43.4707 100.28C42.1578 100.28 41.0933 99.3995 41.0933 98.3137C41.0933 97.2279 42.1578 96.3476 43.4707 96.3476C44.7837 96.3476 45.8482 97.2279 45.8482 98.3137C45.8482 99.3995 44.7837 100.28 43.4707 100.28Z" fill="#BB6BD9"/>
<path d="M107.662 96.3475H60.1128V100.28H107.662V96.3475Z" fill="#BB6BD9"/>
</g>
<defs>
<clipPath id="clip0">
<rect width="142.647" height="117.969" fill="white" transform="translate(0.676514 0.00640869)"/>
</clipPath>
</defs>
</svg>
