<svg width="36" height="36" viewBox="0 0 36 36" fill="none" xmlns="http://www.w3.org/2000/svg">
<path d="M34.8498 32.7903L26.2818 23.8791C28.4848 21.2603 29.6918 17.9652 29.6918 14.535C29.6918 6.52052 23.1713 0 15.1568 0C7.14235 0 0.621826 6.52052 0.621826 14.535C0.621826 22.5495 7.14235 29.07 15.1568 29.07C18.1656 29.07 21.0327 28.1625 23.4841 26.4398L32.1172 35.4186C32.4781 35.7934 32.9634 36 33.4835 36C33.9758 36 34.4428 35.8123 34.7974 35.4711C35.5507 34.7462 35.5747 33.5442 34.8498 32.7903ZM15.1568 3.79174C21.0808 3.79174 25.9001 8.61103 25.9001 14.535C25.9001 20.4589 21.0808 25.2782 15.1568 25.2782C9.23286 25.2782 4.41356 20.4589 4.41356 14.535C4.41356 8.61103 9.23286 3.79174 15.1568 3.79174Z" fill="#8352FD"/>
</svg>
