<svg width="788" height="517" viewBox="0 0 788 517" fill="none" xmlns="http://www.w3.org/2000/svg">
<path fill-rule="evenodd" clip-rule="evenodd" d="M60.0949 461.622C52.8059 455.693 45.1977 450.029 38.4407 443.518C35.3016 440.501 32.3754 437.219 30.1408 433.461C28.9703 431.555 28.0126 429.491 27.3209 427.373C26.7357 425.627 26.1504 422.927 28.7043 422.662C29.6619 422.556 30.6728 422.768 31.5773 423.033C32.5882 423.297 33.0138 421.762 32.0029 421.498C28.9703 420.757 24.6075 420.968 25.0864 425.203C25.6716 429.967 28.8107 434.837 31.6837 438.489C39.1324 448.018 49.6669 455.164 58.9777 462.733C59.7757 463.368 60.893 462.257 60.0949 461.622Z" fill="#F0E7FE"/>
<path fill-rule="evenodd" clip-rule="evenodd" d="M32.2691 421.762C29.1832 418.11 26.789 413.875 25.4057 409.27C24.7672 407.206 24.5012 405.088 23.8628 403.077C23.4371 401.806 22.6391 400.642 23.8096 399.53C24.3416 399.054 25.1397 398.736 25.7249 398.313C27.5339 397.095 28.5448 395.666 26.3102 394.131C25.0333 393.284 23.4371 393.125 22.0538 392.437C20.1916 391.431 18.7551 389.79 17.691 388.043C15.4564 384.444 14.2327 380.209 12.9026 376.239C11.3065 371.528 9.76355 366.711 8.38023 361.947C5.6136 352.313 3.3258 342.573 1.46364 332.781C1.30403 333.098 1.09121 333.416 0.931594 333.733C10.9341 330.451 20.8833 338.868 28.0127 344.849C35.3549 350.99 41.9523 358.03 47.7516 365.652C59.7226 381.533 68.0758 399.848 73.2898 418.957C76.4821 430.655 78.5039 442.671 79.6211 454.74C79.7276 455.746 81.3237 455.746 81.2173 454.74C77.3334 413.081 61.904 370.893 28.864 343.42C21.3089 337.174 11.0937 328.758 0.559162 332.198C0.133526 332.357 -0.0792925 332.728 0.0271167 333.151C1.99569 343.632 4.4963 354.007 7.52896 364.276C8.96548 369.093 10.4552 373.857 12.1046 378.568C13.4347 382.38 14.6584 386.455 16.9994 389.79C17.9039 391.061 18.9147 392.225 20.1916 393.125C21.7346 394.237 23.5435 394.343 25.0865 395.295C27.1082 396.513 24.182 397.466 23.1179 398.207C22.3198 398.789 21.575 399.477 21.4154 400.536C21.2025 402.124 22.5859 403.977 22.9583 405.459C23.4903 407.735 23.9692 409.958 24.8204 412.181C26.3634 416.098 28.5448 419.698 31.2582 422.927C31.7902 423.668 32.9075 422.556 32.2691 421.762Z" fill="#F0E7FE"/>
<path fill-rule="evenodd" clip-rule="evenodd" d="M9.49734 341.303C31.7368 366.288 49.0283 395.454 60.3077 426.897C63.4468 435.631 66.0538 444.524 68.2352 453.523C68.5012 454.528 69.9909 454.105 69.7781 453.099C61.9038 420.492 47.7514 389.42 28.1721 362.053C22.7453 354.431 16.8928 347.126 10.6678 340.138C9.92297 339.45 8.80568 340.562 9.49734 341.303Z" fill="#F0E7FE"/>
<path fill-rule="evenodd" clip-rule="evenodd" d="M13.1155 376.133C15.6693 376.769 18.1699 377.616 20.6174 378.621C21.575 378.992 22.0007 377.457 21.043 377.086C18.5956 376.081 16.095 375.234 13.5411 374.598C12.5835 374.334 12.1578 375.869 13.1155 376.133Z" fill="#F0E7FE"/>
<path fill-rule="evenodd" clip-rule="evenodd" d="M31.8436 411.281C35.3019 411.176 38.1749 412.975 40.9947 414.669C43.5486 416.204 46.0492 417.739 48.4966 419.433C53.551 422.927 58.1266 427.056 61.1593 432.455C61.6381 433.355 63.0214 432.561 62.5426 431.661C59.3503 426.05 54.5619 421.709 49.2947 418.11C46.528 416.204 43.6018 414.405 40.6755 412.711C37.9089 411.07 35.089 409.693 31.7904 409.746C30.8327 409.693 30.8327 411.281 31.8436 411.281Z" fill="#F0E7FE"/>
<path fill-rule="evenodd" clip-rule="evenodd" d="M53.0187 401.753C51.5821 393.178 51.6354 384.497 53.1783 375.975C53.3379 374.969 51.795 374.545 51.6354 375.551C50.0392 384.391 49.986 393.337 51.4757 402.177C51.6354 403.183 53.1783 402.759 53.0187 401.753Z" fill="#F0E7FE"/>
<path fill-rule="evenodd" clip-rule="evenodd" d="M50.3053 365.494C51.4226 355.013 53.6572 344.532 57.3815 334.686C60.5206 326.376 65.2026 318.224 73.2365 313.777C72.8109 313.566 72.4384 313.301 72.0128 313.089C72.8641 327.805 81.5364 340.88 81.9088 355.648C82.1217 355.383 82.2813 355.119 82.4941 354.907C80.4723 355.436 78.4505 355.966 76.4288 356.495C75.8435 356.654 75.6307 357.395 76.0563 357.818C78.5037 360.147 78.9826 363.429 79.089 366.658C79.1422 368.352 80.0467 376.557 78.0781 377.086C77.5993 377.245 77.3332 377.827 77.5993 378.251C83.505 387.673 80.7915 398.842 79.1422 409.005C77.4397 419.486 77.2268 430.073 78.4505 440.554C78.5569 441.56 80.1531 441.56 80.0467 440.554C78.6634 428.75 79.355 417.157 81.3768 405.512C83.0261 396.09 84.3562 385.979 79.0358 377.404C78.8762 377.774 78.7166 378.198 78.5569 378.568C79.9935 378.198 80.4723 377.086 80.6851 375.71C81.0576 373.169 80.7915 370.364 80.7383 367.823C80.6851 363.8 80.2595 359.618 77.1736 356.707C77.0672 357.13 76.9608 357.607 76.8012 358.03C78.823 357.501 80.8447 356.971 82.8665 356.442C83.1857 356.336 83.4518 356.019 83.4518 355.701C83.0793 340.88 74.4602 327.858 73.5557 313.142C73.5025 312.56 72.9173 312.136 72.332 312.454C64.4045 316.848 59.6161 324.629 56.3174 332.834C52.1143 343.262 49.7733 354.431 48.6028 365.6C48.6028 366.499 50.1989 366.499 50.3053 365.494Z" fill="#F0E7FE"/>
<path fill-rule="evenodd" clip-rule="evenodd" d="M69.6189 321.029C63.926 342.467 60.9997 364.594 60.9465 386.773C60.9465 387.779 62.5427 387.779 62.5427 386.773C62.5959 364.7 65.4689 342.785 71.1086 321.453C71.4278 320.447 69.8849 320.023 69.6189 321.029Z" fill="#F0E7FE"/>
<path fill-rule="evenodd" clip-rule="evenodd" d="M694.293 289.322C697.699 300.226 700.252 311.342 701.848 322.67C702.647 328.387 703.232 334.21 703.498 339.98C703.604 341.462 703.657 342.997 703.711 344.479C703.764 345.379 703.498 346.861 703.817 347.708C704.136 348.502 705.254 349.031 705.892 349.561C707.009 350.461 708.127 351.36 709.191 352.26C709.244 351.837 709.297 351.413 709.35 350.99C707.861 351.89 706.424 352.313 704.668 352.366C704.296 352.366 704.03 352.631 703.923 352.948C702.381 357.712 703.498 362.741 706.956 366.447C707.169 365.97 707.329 365.547 707.541 365.07C702.008 364.859 701.902 371.211 702.434 375.128C703.179 380.58 704.243 386.032 705.786 391.325C708.871 401.7 714.032 411.546 722.492 418.639C723.29 419.275 724.407 418.163 723.609 417.528C716.48 411.546 711.691 403.5 708.605 394.766C707.169 390.637 706.052 386.403 705.2 382.168C704.509 378.621 701.05 366.447 707.541 366.658C708.286 366.711 708.552 365.811 708.127 365.282C705.094 362 704.136 357.554 705.52 353.372C705.254 353.584 704.988 353.742 704.775 353.954C706.797 353.954 708.499 353.478 710.255 352.366C710.627 352.101 710.84 351.466 710.414 351.096C708.446 349.508 705.732 348.131 705.413 345.485C705.094 342.679 705.2 339.768 704.988 336.962C704.615 331.722 704.083 326.481 703.285 321.241C701.689 310.284 699.188 299.485 695.89 288.898C695.517 287.893 693.974 288.316 694.293 289.322Z" fill="#F0E7FE"/>
<path fill-rule="evenodd" clip-rule="evenodd" d="M696.9 291.704C694.719 288.845 698.816 286.728 701.21 287.31C703.604 287.945 705.573 289.851 707.222 291.545C710.255 294.615 712.649 298.215 714.724 301.973C719.033 309.701 722.651 317.959 725.844 326.164C732.388 343.05 736.91 360.73 739.304 378.621C740.634 388.784 741.326 399.001 741.326 409.217C741.326 410.223 742.922 410.223 742.922 409.217C742.922 387.938 739.996 366.711 734.25 346.279C731.43 336.327 727.972 326.587 723.875 317.059C720.097 308.272 716.054 298.85 709.563 291.651C706.956 288.739 702.54 284.24 698.177 285.775C695.517 286.675 693.761 290.063 695.57 292.498C696.155 293.292 697.539 292.551 696.9 291.704Z" fill="#F0E7FE"/>
<path fill-rule="evenodd" clip-rule="evenodd" d="M735.208 349.878C737.921 340.826 741.06 331.987 744.625 323.252C746.487 318.753 748.456 314.254 750.584 309.86C751.595 307.796 752.606 305.678 753.67 303.614C754.362 302.291 756.437 296.468 758.618 296.997C759.256 297.156 759.682 296.627 759.576 296.044C759.044 292.763 762.768 289.957 764.737 287.787C766.492 285.881 768.195 283.976 769.951 282.07C773.568 278.153 777.133 274.236 780.751 270.266C780.325 270.16 779.847 270.054 779.421 269.895C784.901 283.393 783.465 298.162 780.272 312.03C778.623 319.124 776.548 326.164 774.792 333.257C773.568 338.18 772.238 345.643 766.173 346.702C765.747 346.755 765.535 347.284 765.641 347.655C767.184 353.954 762.928 359.777 760.108 365.07C757.447 370.046 755 375.181 752.765 380.421C748.403 390.637 744.944 401.171 742.337 411.917C742.071 412.922 743.614 413.346 743.88 412.34C746.753 400.43 750.691 388.837 755.745 377.668C758.139 372.375 760.799 367.188 763.619 362.106C766.173 357.501 768.514 352.631 767.237 347.284C767.078 347.602 766.865 347.92 766.705 348.237C771.866 347.337 774.101 342.15 775.431 337.598C777.612 329.975 779.581 322.141 781.443 314.413C785.007 299.697 786.923 283.87 781.07 269.472C780.857 268.942 780.166 268.625 779.74 269.101C775.218 274.024 770.695 279 766.173 283.923C764.045 286.252 761.757 288.475 759.788 290.963C758.512 292.657 757.82 294.245 758.139 296.362C758.458 296.044 758.778 295.727 759.097 295.409C755.266 294.456 753.404 300.703 752.127 303.191C749.573 308.219 747.179 313.301 744.998 318.435C740.635 328.493 736.911 338.868 733.771 349.349C733.346 350.408 734.889 350.831 735.208 349.878Z" fill="#F0E7FE"/>
<path fill-rule="evenodd" clip-rule="evenodd" d="M776.814 283.975C760.214 314.783 743.295 346.543 739.304 381.744C739.198 382.75 740.794 382.75 740.901 381.744C744.891 346.808 761.757 315.259 778.197 284.769C778.729 283.87 777.346 283.076 776.814 283.975Z" fill="#F0E7FE"/>
<path fill-rule="evenodd" clip-rule="evenodd" d="M707.595 305.149C720.523 339.186 728.238 375.075 730.526 411.387C730.579 412.393 732.175 412.393 732.122 411.387C729.834 374.916 722.12 338.921 709.138 304.726C708.765 303.826 707.222 304.196 707.595 305.149Z" fill="#F0E7FE"/>
<path fill-rule="evenodd" clip-rule="evenodd" d="M35.302 288.104C67.7568 282.335 101.276 282.652 133.624 289.057C149.639 292.233 165.334 296.838 180.444 302.873C196.246 309.172 211.409 316.742 226.892 323.729C285.31 350.09 347.826 367.346 411.511 374.863C447.637 379.151 484.136 380.262 520.421 378.251C521.432 378.198 521.432 376.61 520.421 376.663C455.299 380.315 389.698 373.698 326.597 357.236C294.94 348.978 263.922 338.233 233.968 325.158C218.432 318.382 203.269 310.76 187.68 304.143C172.783 297.844 157.406 292.763 141.658 289.163C106.703 281.223 70.2042 280.323 34.8764 286.622C33.8655 286.728 34.2911 288.263 35.302 288.104Z" fill="#F0E7FE"/>
<path fill-rule="evenodd" clip-rule="evenodd" d="M324.735 356.072C355.008 357.607 384.217 346.755 412.682 338.074C442.476 329.022 472.377 320.235 502.331 311.66C532.126 303.138 561.921 294.192 592.194 287.363C622.361 280.588 653.113 277.359 684.025 276.459C718.448 275.4 752.872 276.935 787.242 278.523C788.253 278.576 788.253 276.988 787.242 276.935C726.535 274.183 665.031 271.483 605.016 283.076C574.583 288.951 544.789 297.95 514.994 306.367C485.04 314.889 455.139 323.623 425.291 332.569C408.745 337.545 392.251 342.944 375.598 347.496C358.998 352.049 341.973 355.33 324.681 354.483C323.724 354.431 323.724 356.019 324.735 356.072Z" fill="#F0E7FE"/>
<path fill-rule="evenodd" clip-rule="evenodd" d="M195.554 301.761C216.57 307.796 238.384 303.614 259.346 299.591C281.798 295.303 304.464 292.392 327.342 291.492C372.672 289.798 417.736 296.256 462.907 298.056C487.913 299.062 513.025 298.479 537.712 294.403C538.723 294.245 538.298 292.71 537.287 292.868C492.861 300.226 447.743 295.833 403.158 292.498C380.865 290.804 358.519 289.375 336.12 289.745C313.934 290.116 291.748 292.233 269.827 296.097C245.566 300.332 220.347 307.319 195.926 300.279C194.969 299.962 194.543 301.497 195.554 301.761Z" fill="#F0E7FE"/>
<path fill-rule="evenodd" clip-rule="evenodd" d="M289.726 403.765C296.536 400.959 303.878 399.53 311.274 399.742C318.137 399.954 324.309 402.177 330.959 403.553C335.908 404.612 340.856 404.612 344.846 401.118C346.389 399.795 347.719 398.419 349.954 399.107C351.603 399.583 352.986 400.695 354.529 401.383C356.338 402.23 358.2 402.547 360.116 402.177C364.691 401.277 368.149 397.519 372.14 395.348C378.897 391.749 385.388 396.566 391.985 398.313C405.712 401.965 420.396 400.854 434.442 400.695C451.734 400.536 469.079 400.642 486.264 398.524C487.274 398.419 487.274 396.831 486.264 396.936C470.834 398.789 455.245 398.895 439.71 399.054C424.919 399.213 409.277 400.589 394.699 397.307C391.293 396.566 388.101 395.454 384.856 394.131C382.036 392.966 379.11 391.855 376.024 392.278C371.182 392.913 367.564 396.725 363.467 399.054C361.339 400.271 358.998 401.118 356.551 400.43C353.891 399.636 351.709 397.307 348.783 397.201C346.016 397.148 344.686 399.371 342.664 400.801C339.845 402.759 336.28 402.812 332.981 402.283C325.958 401.171 319.414 398.471 312.231 398.154C304.41 397.783 296.589 399.213 289.3 402.23C288.343 402.6 288.768 404.135 289.726 403.765Z" fill="#F0E7FE"/>
<path fill-rule="evenodd" clip-rule="evenodd" d="M323.671 356.548C324.628 356.707 325.533 356.918 326.49 357.077C327.501 357.289 327.874 355.913 326.916 355.542C326.331 355.33 325.746 355.119 325.107 354.907C324.256 354.589 323.671 355.965 324.469 356.336C329.363 358.877 334.471 360.888 339.792 362.318C340.802 362.582 341.228 361.047 340.217 360.782C335.003 359.406 330.055 357.448 325.267 354.96C325.054 355.436 324.841 355.913 324.628 356.389C325.213 356.601 325.799 356.812 326.437 357.024C326.597 356.495 326.703 356.018 326.863 355.489C325.905 355.33 325.001 355.119 324.043 354.96C323.085 354.801 322.66 356.336 323.671 356.548Z" fill="#F0E7FE"/>
<path fill-rule="evenodd" clip-rule="evenodd" d="M252.163 429.914C250.993 428.538 249.929 427.109 249.024 425.521C248.599 424.727 248.066 423.88 247.8 422.98C247.428 422.398 247.375 421.709 247.588 421.021C247.428 420.28 247.641 419.698 248.173 419.274C248.971 417.104 248.013 414.828 247.481 412.605C246.683 409.111 245.885 405.618 245.087 402.124C244.661 400.271 244.236 398.471 243.863 396.619C243.651 395.772 243.491 394.978 243.278 394.131C242.959 392.649 242.64 391.961 243.757 390.743C244.289 389.632 245.087 389.42 246.151 390.267C246.63 390.743 247.109 391.22 247.588 391.696C248.12 392.384 248.492 393.178 248.918 393.919C249.663 395.295 250.407 396.672 251.099 398.048C252.748 401.33 254.185 404.718 255.409 408.158C257.75 414.616 259.346 421.286 260.304 428.114C260.57 427.797 260.836 427.426 261.048 427.109C261.155 427.215 261.208 427.373 261.314 427.479C261.58 426.474 260.038 426.05 259.771 427.056C259.559 428.009 260.038 428.697 261.048 428.697C261.634 428.697 261.9 428.22 261.793 427.691C260.57 418.957 258.282 410.435 254.77 402.336C253.121 398.524 251.365 394.29 248.918 390.902C247.588 389.049 245.193 387.355 242.906 388.679C240.299 390.161 241.522 393.813 242.054 396.089C243.118 400.748 244.183 405.406 245.193 410.064C245.672 412.287 246.683 414.775 246.79 417.051C246.843 418.904 245.3 419.751 245.566 421.604C246.098 425.044 248.705 428.538 250.886 431.079C251.684 431.767 252.802 430.655 252.163 429.914Z" fill="#F0E7FE"/>
<path fill-rule="evenodd" clip-rule="evenodd" d="M257.058 407.153C256.26 402.389 256.367 397.519 257.484 392.808C257.75 391.59 258.122 390.426 258.548 389.261C259.293 387.249 260.357 387.461 261.421 388.943C262.804 390.902 263.868 393.072 264.666 395.295C267.912 404.506 266.475 414.405 265.092 423.774C264.932 424.78 266.475 425.203 266.635 424.197C268.391 412.393 270.2 399.001 263.017 388.467C262.219 387.302 261.155 385.344 259.506 385.609C257.75 385.926 257.165 388.308 256.686 389.684C254.77 395.454 254.451 401.595 255.462 407.523C255.728 408.582 257.271 408.158 257.058 407.153Z" fill="#F0E7FE"/>
<path fill-rule="evenodd" clip-rule="evenodd" d="M259.932 394.978C261.528 403.236 262.113 411.546 261.847 419.91C261.794 420.916 263.39 420.916 263.443 419.91C263.762 411.387 263.071 402.918 261.475 394.554C261.262 393.549 259.772 393.972 259.932 394.978Z" fill="#F0E7FE"/>
<path fill-rule="evenodd" clip-rule="evenodd" d="M64.2451 282.123C62.7021 278.735 59.2438 276.353 57.0624 273.389C54.6682 270.107 52.6465 266.56 50.6779 263.067C50.5183 263.437 50.3587 263.861 50.1991 264.231C60.8932 262.326 67.0649 272.806 69.1399 281.646C69.3527 282.652 70.8956 282.229 70.6828 281.223C68.395 271.43 61.372 260.685 49.7734 262.696C49.2414 262.802 49.0818 263.437 49.2946 263.861C51.2631 267.407 53.2317 270.954 55.6791 274.183C57.8605 277.147 61.372 279.635 62.8617 282.917C63.2874 283.87 64.6707 283.076 64.2451 282.123Z" fill="#F0E7FE"/>
<path fill-rule="evenodd" clip-rule="evenodd" d="M68.8737 273.601C69.6718 265.29 77.6524 260.102 80.7383 252.745C80.3659 252.903 79.9402 253.062 79.5678 253.221C83.1325 255.497 80.4723 263.755 79.4614 266.931C77.9717 271.589 75.5243 275.824 72.3852 279.529C71.7467 280.323 72.864 281.435 73.5025 280.641C77.4396 276.035 80.2595 270.689 81.696 264.813C82.6005 261.108 84.303 254.386 80.3659 251.845C79.887 251.527 79.355 251.898 79.1954 252.321C76.0031 259.944 68.1288 264.919 67.2776 273.601C67.1711 274.606 68.7673 274.606 68.8737 273.601Z" fill="#F0E7FE"/>
<path fill-rule="evenodd" clip-rule="evenodd" d="M541.33 297.632C540.851 296.415 540.373 295.197 539.894 293.98C539.628 293.398 539.415 292.763 539.149 292.18C538.83 291.757 538.83 291.28 539.096 290.804C539.575 291.227 540.532 290.963 540.479 290.222C540.213 287.575 539.947 284.875 539.681 282.229C539.628 281.593 538.989 279.106 539.362 278.629C541.011 276.353 542.128 280.111 542.288 280.694C543.725 285.564 543.671 291.175 543.618 296.203C543.618 297.209 545.214 297.209 545.214 296.203C545.267 292.074 545.055 287.998 544.469 283.923C544.097 281.329 543.671 277.571 541.117 276.035C539.468 275.03 538.085 276.088 537.766 277.835C537.446 279.529 537.978 281.541 538.138 283.181C538.351 285.511 538.617 287.84 538.83 290.169C539.309 289.957 539.734 289.798 540.213 289.586C539.309 288.74 537.925 288.898 537.393 290.063C537.021 290.857 537.34 291.704 537.606 292.498C538.244 294.351 539.096 296.15 539.787 298.003C540.16 299.009 541.703 298.585 541.33 297.632Z" fill="#F0E7FE"/>
<path fill-rule="evenodd" clip-rule="evenodd" d="M544.895 289.004C544.682 281.594 546.225 274.342 549.47 267.619C549.045 267.672 548.619 267.725 548.194 267.778C551.652 270.636 549.364 278.365 548.779 282.07C547.981 287.046 546.97 292.022 545.693 296.891C545.427 297.897 546.97 298.321 547.236 297.315C548.779 291.386 549.949 285.352 550.801 279.265C551.333 275.347 552.876 269.578 549.311 266.613C548.938 266.296 548.3 266.296 548.034 266.772C544.682 273.706 543.033 281.223 543.246 288.951C543.352 290.01 544.948 290.01 544.895 289.004Z" fill="#F0E7FE"/>
<path fill-rule="evenodd" clip-rule="evenodd" d="M265.677 451.035C269.029 447.647 274.243 452.199 278.127 451.988C279.989 451.882 281.692 451.194 283.394 450.611C285.682 449.87 287.864 449.606 290.258 449.817C299.728 450.611 308.933 451.3 318.456 450.664C319.467 450.611 319.467 449.023 318.456 449.076C313.295 449.394 308.188 449.5 303.027 449.288C297.813 449.076 292.386 447.806 287.225 448.176C285.15 448.335 283.235 449.023 281.266 449.659C278.393 450.558 276.212 450.4 273.445 449.394C270.413 448.282 267.007 447.382 264.507 449.923C263.815 450.664 264.932 451.776 265.677 451.035Z" fill="#F0E7FE"/>
<path fill-rule="evenodd" clip-rule="evenodd" d="M165.174 463.898C168.898 459.875 175.443 459.61 179.38 463.421C179.433 462.998 179.486 462.574 179.539 462.151C176.773 463.474 173.953 464.057 170.92 463.898C169.909 463.845 169.909 465.433 170.92 465.486C174.272 465.645 177.358 465.009 180.391 463.527C180.869 463.315 180.923 462.627 180.55 462.257C175.975 457.863 168.366 458.075 164.057 462.733C163.365 463.527 164.482 464.639 165.174 463.898Z" fill="#F0E7FE"/>
<path fill-rule="evenodd" clip-rule="evenodd" d="M16.8929 478.19C14.1795 477.978 11.466 478.772 9.39106 480.625C8.11415 481.789 6.3052 483.96 7.95454 485.495C9.8167 487.189 14.2859 486.077 16.4673 485.865C20.4576 485.442 24.3415 484.701 28.2255 483.695C29.2364 483.43 28.8107 481.895 27.7998 482.16C23.1178 483.377 18.3826 484.171 13.541 484.489C12.5833 484.542 11.5724 484.648 10.6148 484.648C8.22056 484.542 9.33786 482.742 10.5084 481.736C12.2641 480.148 14.5519 479.566 16.8929 479.778C17.957 479.831 17.9038 478.243 16.8929 478.19Z" fill="#F0E7FE"/>
<path fill-rule="evenodd" clip-rule="evenodd" d="M92.9224 434.519C93.0288 434.096 93.3481 433.831 93.7737 433.831C94.1461 433.778 94.5186 433.725 94.8378 433.672C95.6891 433.567 96.4871 433.62 97.3384 433.725C98.9878 433.937 100.477 434.519 101.914 435.419C101.967 434.943 102.02 434.466 102.127 433.99C100.158 434.678 98.1897 434.837 96.1147 434.519C95.1038 434.361 94.6782 435.896 95.6891 436.054C98.0301 436.425 100.265 436.266 102.552 435.525C103.191 435.313 103.351 434.466 102.765 434.096C99.9986 432.349 96.3807 431.502 93.1353 432.402C91.3795 432.878 89.9962 435.578 92.4968 436.107C93.5077 436.266 93.9333 434.731 92.9224 434.519Z" fill="#F0E7FE"/>
<path fill-rule="evenodd" clip-rule="evenodd" d="M136.976 70.4934C124.313 66.0469 115.268 53.8192 113.885 40.5857C112.448 26.9288 120.163 13.9071 131.762 6.91979C144.265 -0.596816 162.035 -0.64975 172.304 10.731C177.571 16.5008 180.816 24.388 182.732 31.8516C184.7 39.527 185.019 48.0494 180.603 54.9837C176.134 61.9181 168.154 65.7822 160.652 68.6936C152.724 71.8167 143.201 74.2517 135.433 69.3817C134.582 68.8524 133.783 70.2287 134.635 70.758C141.605 75.0986 150.011 73.987 157.459 71.552C164.748 69.17 172.463 65.8352 178.103 60.4359C190.712 48.4199 185.551 28.5697 177.677 15.3892C173.527 8.40194 167.302 3.26735 159.375 1.15C151.82 -0.861486 143.733 -0.173346 136.55 2.73802C123.355 8.13727 113.034 20.7355 112.182 35.1335C111.225 51.0137 121.493 66.735 136.55 72.0284C137.508 72.399 137.933 70.8639 136.976 70.4934Z" fill="#F0E7FE"/>
<path fill-rule="evenodd" clip-rule="evenodd" d="M537.021 377.774C573.306 375.498 609.379 370.628 644.92 363.165C655.188 360.994 665.403 358.612 675.565 356.019C676.576 355.754 676.151 354.219 675.14 354.483C639.918 363.429 604.058 369.887 567.879 373.645C557.611 374.704 547.342 375.551 537.074 376.186C536.01 376.239 536.01 377.827 537.021 377.774Z" fill="#F0E7FE"/>
<path fill-rule="evenodd" clip-rule="evenodd" d="M453.862 415.993C458.544 416.787 463.332 416.734 467.961 415.622C470.834 414.934 472.909 413.822 475.889 414.775C477.751 415.358 479.507 415.569 481.422 415.199C483.55 414.775 485.519 413.717 487.328 412.552C489.296 411.229 491.265 409.376 493.659 408.9C496.426 408.37 498.926 410.541 501.586 411.123C503.502 411.546 505.47 411.493 507.386 411.176C508.397 411.017 507.971 409.482 506.96 409.641C503.608 410.223 501.001 409.376 497.969 408.053C496.692 407.47 495.468 407.153 494.031 407.259C489.722 407.735 486.742 411.758 482.752 413.187C480.198 414.087 478.123 413.77 475.623 412.976C473.707 412.393 472.324 412.711 470.462 413.293C465.194 414.934 459.821 415.411 454.394 414.511C453.33 414.299 452.851 415.834 453.862 415.993Z" fill="#F0E7FE"/>
<path fill-rule="evenodd" clip-rule="evenodd" d="M190.233 484.86C231.573 484.86 272.913 484.86 314.253 484.86C316.328 484.86 316.328 481.683 314.253 481.683C272.913 481.683 231.573 481.683 190.233 481.683C188.158 481.683 188.158 484.86 190.233 484.86Z" fill="black"/>
<path fill-rule="evenodd" clip-rule="evenodd" d="M323.139 483.907C327.98 483.907 332.822 483.907 337.663 483.907C339.738 483.907 339.738 480.731 337.663 480.731C332.822 480.731 327.98 480.731 323.139 480.731C321.064 480.731 321.064 483.907 323.139 483.907Z" fill="black"/>
<path fill-rule="evenodd" clip-rule="evenodd" d="M348.411 483.43C349.954 483.43 351.55 483.43 353.093 483.43C355.168 483.43 355.168 480.254 353.093 480.254C351.55 480.254 349.954 480.254 348.411 480.254C346.336 480.254 346.336 483.43 348.411 483.43Z" fill="black"/>
<path fill-rule="evenodd" clip-rule="evenodd" d="M56.8496 496.505C87.4422 496.505 117.982 496.505 148.574 496.505C150.649 496.505 150.649 493.329 148.574 493.329C117.982 493.329 87.4422 493.329 56.8496 493.329C54.8278 493.329 54.8278 496.505 56.8496 496.505Z" fill="black"/>
<path fill-rule="evenodd" clip-rule="evenodd" d="M157.459 496.505C165.44 496.505 173.368 496.505 181.348 496.505C183.423 496.505 183.423 493.329 181.348 493.329C173.368 493.329 165.44 493.329 157.459 493.329C155.438 493.329 155.438 496.505 157.459 496.505Z" fill="black"/>
<path fill-rule="evenodd" clip-rule="evenodd" d="M194.915 495.552C195.394 495.552 195.873 495.552 196.299 495.552C197.15 495.552 197.948 494.811 197.895 493.964C197.842 493.117 197.203 492.376 196.299 492.376C195.82 492.376 195.341 492.376 194.915 492.376C194.064 492.376 193.266 493.117 193.319 493.964C193.372 494.811 194.011 495.552 194.915 495.552Z" fill="black"/>
<path fill-rule="evenodd" clip-rule="evenodd" d="M40.0372 496.928C41.1545 496.928 42.2186 496.928 43.3359 496.928C45.4109 496.928 45.4109 493.752 43.3359 493.752C42.2186 493.752 41.1545 493.752 40.0372 493.752C37.9622 493.752 37.9622 496.928 40.0372 496.928Z" fill="black"/>
<path fill-rule="evenodd" clip-rule="evenodd" d="M461.63 438.754C504.513 438.754 547.396 438.754 590.332 438.754C592.407 438.754 592.407 435.578 590.332 435.578C547.449 435.578 504.566 435.578 461.63 435.578C459.555 435.578 459.555 438.754 461.63 438.754Z" fill="black"/>
<path fill-rule="evenodd" clip-rule="evenodd" d="M607.144 436.901C645.984 436.901 684.823 436.901 723.662 436.901C725.737 436.901 725.737 433.725 723.662 433.725C684.823 433.725 645.984 433.725 607.144 433.725C605.122 433.725 605.122 436.901 607.144 436.901Z" fill="black"/>
<path fill-rule="evenodd" clip-rule="evenodd" d="M733.984 435.949C737.123 435.949 740.209 435.949 743.348 435.949C745.423 435.949 745.423 432.773 743.348 432.773C740.209 432.773 737.123 432.773 733.984 432.773C731.909 432.773 731.909 435.949 733.984 435.949Z" fill="black"/>
<path fill-rule="evenodd" clip-rule="evenodd" d="M692.804 418.269C701.689 418.269 710.574 418.269 719.46 418.269C721.534 418.269 721.534 415.093 719.46 415.093C710.574 415.093 701.689 415.093 692.804 415.093C690.729 415.093 690.729 418.269 692.804 418.269Z" fill="black"/>
<path fill-rule="evenodd" clip-rule="evenodd" d="M728.344 417.792C730.526 417.792 732.707 417.792 734.888 417.792C736.963 417.792 736.963 414.616 734.888 414.616C732.707 414.616 730.526 414.616 728.344 414.616C726.322 414.616 726.322 417.792 728.344 417.792Z" fill="black"/>
<path fill-rule="evenodd" clip-rule="evenodd" d="M435.879 448.07C447.265 448.07 458.65 448.07 470.036 448.07C472.111 448.07 472.111 444.894 470.036 444.894C458.65 444.894 447.265 444.894 435.879 444.894C433.857 444.894 433.857 448.07 435.879 448.07Z" fill="black"/>
<path fill-rule="evenodd" clip-rule="evenodd" d="M482.22 447.594C487.062 447.594 491.903 447.594 496.745 447.594C498.82 447.594 498.82 444.418 496.745 444.418C491.903 444.418 487.062 444.418 482.22 444.418C480.145 444.418 480.145 447.594 482.22 447.594Z" fill="black"/>
<path fill-rule="evenodd" clip-rule="evenodd" d="M503.289 455.534C506.587 455.534 509.833 455.534 513.131 455.534C515.206 455.534 515.206 452.358 513.131 452.358C509.833 452.358 506.587 452.358 503.289 452.358C501.214 452.358 501.214 455.534 503.289 455.534Z" fill="black"/>
<path fill-rule="evenodd" clip-rule="evenodd" d="M276.691 190.124C274.776 187.742 282.011 186.26 283.182 185.783C285.47 184.778 286.906 182.925 287.438 180.49C287.97 178.002 287.438 175.355 288.183 172.92C289.3 169.321 293.45 169.533 296.536 169.691C298.611 169.797 298.558 166.621 296.536 166.515C293.025 166.304 288.981 166.409 286.534 169.268C284.352 171.809 284.778 175.249 284.512 178.373C284.299 181.178 283.235 182.554 280.468 183.348C278.872 183.825 277.276 184.089 275.946 185.095C273.499 186.842 272.488 189.912 274.456 192.347C275.68 193.988 277.968 191.712 276.691 190.124Z" fill="black"/>
<path fill-rule="evenodd" clip-rule="evenodd" d="M288.023 192.771C286.587 191.077 289.885 189.383 290.949 188.748C292.386 187.901 293.61 187.107 294.674 185.836C296.855 183.243 298.292 178.32 302.229 178.108C304.251 178.002 304.304 174.826 302.229 174.932C295.685 175.25 295.153 182.025 290.683 185.201C288.768 186.524 286.48 187.266 285.256 189.383C284.139 191.289 284.352 193.353 285.735 194.994C287.065 196.582 289.353 194.306 288.023 192.771Z" fill="black"/>
<path fill-rule="evenodd" clip-rule="evenodd" d="M537.34 21.4236C537.127 24.8114 534.467 28.8873 537.659 31.7457C540.426 34.1807 543.884 32.3809 547.023 32.5927C550.482 32.8573 548.992 36.0334 548.566 38.3625C548.247 40.1093 548.087 42.0149 548.886 43.7088C550.162 46.3555 553.621 48.0493 556.175 46.1437C557.771 44.9263 556.175 42.1737 554.578 43.3912C551.971 45.3497 551.439 40.6386 551.705 39.2094C551.971 37.6743 552.503 36.1392 552.557 34.5512C552.61 32.328 551.439 30.5812 549.364 29.8401C546.811 28.9402 544.523 29.946 541.969 29.893C537.34 29.7872 540.426 24.1762 540.586 21.4236C540.692 19.3592 537.5 19.3592 537.34 21.4236Z" fill="black"/>
<path fill-rule="evenodd" clip-rule="evenodd" d="M555.642 25.0761C554.312 27.9346 553.035 31.3223 555.163 34.1808C555.962 35.2394 557.026 35.8746 558.303 36.0864C559.154 36.1922 560.271 35.8217 561.016 36.1393C562.24 36.6157 562.931 38.0449 562.346 39.3153C561.442 41.168 564.208 42.756 565.113 40.9033C566.23 38.5213 565.804 35.7688 563.676 34.0219C562.506 33.0691 561.442 33.0691 560.005 32.9103C556.121 32.5398 557.185 29.3108 558.409 26.7171C559.26 24.8644 556.494 23.2234 555.642 25.0761Z" fill="black"/>
<path fill-rule="evenodd" clip-rule="evenodd" d="M725.205 134.861C724.035 131.844 726.855 127.503 730.419 128.615C733.133 129.515 734.357 133.538 732.548 135.761C731.271 137.349 733.505 139.572 734.782 137.984C738.081 134.014 736.432 127.08 731.271 125.545C725.578 123.851 720.098 130.309 722.173 135.655C722.864 137.613 725.95 136.766 725.205 134.861Z" fill="black"/>
<path fill-rule="evenodd" clip-rule="evenodd" d="M104.095 260.526C103.776 256.768 108.565 254.65 110.586 258.197C112.289 261.267 108.937 263.967 106.011 262.961C104.095 262.273 103.244 265.343 105.159 266.031C111.065 268.148 116.652 261.479 113.087 256.185C109.256 250.521 100.371 253.856 100.956 260.526C101.063 262.537 104.255 262.59 104.095 260.526Z" fill="black"/>
<path fill-rule="evenodd" clip-rule="evenodd" d="M122.611 112.152C121.387 114.164 121.28 116.758 122.877 118.61C123.675 119.51 124.792 120.092 125.962 120.304C127.612 120.569 128.836 119.669 130.272 120.357C131.709 121.098 131.389 121.998 131.549 123.48C131.602 124.38 131.655 125.227 131.762 126.127C131.868 127.08 131.975 128.032 132.666 128.774C133.305 129.462 134.103 129.726 135.007 129.885C135.646 129.991 136.284 129.938 136.976 129.938C137.508 129.938 138.093 129.938 138.625 130.044C139.636 130.309 140.062 130.997 139.955 132.002C139.157 132.585 139.902 133.961 140.753 133.379C142.349 132.214 141.817 130.414 140.434 129.25C139.796 128.721 139.104 128.456 138.253 128.35C135.486 127.98 133.89 129.038 133.251 125.174C132.932 123.268 133.624 119.298 131.655 118.028C130.751 117.446 129.953 117.71 129.048 118.081C127.612 118.663 126.441 119.14 124.952 118.24C122.93 117.022 122.877 114.64 123.994 112.84C124.526 112.099 123.143 111.305 122.611 112.152Z" fill="#E48BFD"/>
<path fill-rule="evenodd" clip-rule="evenodd" d="M144.105 118.451C143.041 120.304 141.764 123.11 143.413 125.015C144.477 126.286 146.286 126.127 147.67 126.921C149.851 128.138 150.862 130.679 150.436 133.061C150.277 134.067 151.82 134.49 151.979 133.485C152.405 131.103 151.873 128.773 150.224 126.974C149.532 126.18 148.627 125.597 147.67 125.174C146.552 124.698 144.637 124.115 144.265 122.739C143.999 121.733 145.063 120.039 145.488 119.245C145.967 118.346 144.584 117.552 144.105 118.451Z" fill="#E48BFD"/>
<path fill-rule="evenodd" clip-rule="evenodd" d="M443.593 285.617C441.784 281.911 445.19 277.571 449.233 279C453.436 280.482 453.277 286.199 449.286 287.787C448.329 288.157 448.754 289.692 449.712 289.322C454.873 287.257 455.564 279.9 450.191 277.676C444.658 275.347 439.763 281.329 442.263 286.463C442.689 287.363 444.072 286.516 443.593 285.617Z" fill="#E48BFD"/>
<path fill-rule="evenodd" clip-rule="evenodd" d="M247.641 273.071C244.236 272.383 249.716 268.731 250.301 268.36C251.152 267.778 251.95 267.143 252.376 266.137C253.812 262.908 251.205 256.45 256.952 256.132C257.962 256.079 257.962 254.491 256.952 254.544C254.717 254.65 253.068 255.868 252.057 257.773C250.407 260.844 252.376 265.025 249.184 267.143C247.375 268.36 245.459 269.154 245.247 271.536C245.14 272.965 245.725 274.236 247.215 274.553C248.226 274.818 248.652 273.283 247.641 273.071Z" fill="#E48BFD"/>
<path fill-rule="evenodd" clip-rule="evenodd" d="M257.857 268.466C256.367 266.401 257.218 263.49 259.719 262.696C261.421 262.167 262.698 262.431 263.656 260.685C264.614 258.885 264.454 256.768 265.518 254.915C266.848 252.533 269.083 250.892 271.637 250.098C272.594 249.78 272.222 248.245 271.211 248.563C268.817 249.304 266.742 250.627 265.199 252.586C264.401 253.592 263.709 254.756 263.284 256.026C262.698 257.72 262.964 259.996 261.049 260.896C259.878 261.479 258.708 261.161 257.591 262.008C256.846 262.537 256.314 263.331 255.995 264.125C255.25 265.872 255.409 267.725 256.527 269.26C257.059 270.107 258.442 269.313 257.857 268.466Z" fill="#E48BFD"/>
<path fill-rule="evenodd" clip-rule="evenodd" d="M203.747 25.0231C202.79 23.1175 206.886 23.8056 207.046 23.8585C207.631 24.0703 208.216 24.5467 208.748 24.8643C209.6 25.3407 210.557 25.8171 211.568 25.87C212.898 25.923 214.016 25.3407 214.867 24.3879C217.314 21.4236 216.41 13.7482 222.156 16.0243C223.859 16.7125 225.774 17.7182 227.636 16.8713C229.126 16.1831 229.445 14.701 229.232 13.2188C229.126 12.4778 228.275 10.9956 228.487 10.2545C228.913 8.82533 230.243 8.71947 231.254 9.19587C231.733 9.40761 232.158 9.72521 232.69 9.88401C234.287 10.4663 235.83 10.3604 236.787 8.87827C237.319 8.03133 235.936 7.23732 235.404 8.08426C234.34 9.77814 230.083 6.28451 228.168 7.34319C226.625 8.13719 226.678 9.72521 227.051 11.2074C227.476 12.9542 228.541 15.495 225.295 15.4421C223.859 15.4421 222.528 14.2246 221.145 13.9599C219.496 13.6423 218.006 14.0658 216.942 15.3362C214.282 18.4593 215.293 26.6111 209.121 23.2763C207.312 22.3235 205.822 21.3707 203.8 22.2705C202.257 22.9587 201.513 24.282 202.311 25.8171C202.843 26.717 204.173 25.923 203.747 25.0231Z" fill="#5222D0"/>
<path fill-rule="evenodd" clip-rule="evenodd" d="M267.114 68.2172C264.72 67.6349 264.401 64.5647 265.571 62.765C267.221 60.2242 271.105 60.383 273.712 60.8594C278.074 61.6534 282.118 63.3473 286.534 61.7063C290.79 60.1183 293.983 56.6776 298.771 56.5717C303.772 56.4659 308.507 58.6361 313.562 58.4773C322.394 58.2127 330.428 53.8721 338.887 51.8606C343.888 50.6431 348.783 50.5373 353.785 51.8077C358.573 53.0252 363.042 54.9837 367.831 56.1483C372.832 57.4187 377.78 57.2069 382.834 56.7835C388.367 56.36 394.06 55.9365 399.062 58.7949C398.955 58.4773 398.796 58.2127 398.689 57.8951C396.029 65.6763 387.41 68.8524 379.802 69.2758C370.278 69.8052 361.02 66.3645 351.444 66.735C341.76 67.1056 333.567 72.9812 324.043 73.8811C314.307 74.8339 305.102 70.2287 295.419 70.4933C285.576 70.758 272.754 76.1043 264.986 67.3702C264.294 66.6292 263.177 67.7408 263.869 68.4818C269.987 75.3103 279.671 74.0928 287.811 72.8754C293.823 71.9755 299.303 71.9225 305.315 73.0871C310.423 74.0928 315.53 75.4691 320.744 75.575C331.279 75.8396 340.164 69.0641 350.539 68.376C361.02 67.6878 371.182 71.8696 381.664 70.7051C389.485 69.8581 397.625 66.2057 400.285 58.2656C400.392 57.948 400.232 57.5245 399.913 57.3657C390.549 51.9135 379.27 57.0481 369.214 54.772C363.681 53.5016 358.52 51.0666 352.933 49.9021C348.092 48.8434 343.303 49.1081 338.515 50.2726C333.407 51.4901 328.566 53.5016 323.564 55.0366C317.818 56.7835 312.338 57.3128 306.379 56.0953C301.644 55.0896 297.281 54.2956 292.812 56.5188C290.737 57.5775 288.822 59.0067 286.694 59.9595C283.076 61.5475 279.617 60.5947 275.946 59.6948C272.062 58.7949 266.21 58.1597 264.028 62.4474C262.645 65.147 263.603 69.0112 266.795 69.7523C267.7 69.964 268.125 68.4289 267.114 68.2172Z" fill="#F0E7FE"/>
<path fill-rule="evenodd" clip-rule="evenodd" d="M45.57 149.788C52.8058 148.835 59.6692 152.541 66.8518 151.641C69.7781 151.27 72.4915 150 75.205 148.888C76.4819 148.359 77.812 147.883 79.1953 147.565C81.8023 146.983 84.1433 147.671 86.6971 148.2C93.8265 149.735 101.807 148.041 108.937 147.036C112.448 146.559 115.906 146.03 119.418 145.448C123.408 144.76 127.399 143.701 131.389 143.277C135.592 142.854 140.54 144.707 138.838 149.841C137.401 154.235 132.027 155.505 127.984 155.823C120.961 156.352 113.991 154.341 106.968 155.664C100.424 156.881 94.5714 160.269 88.2401 162.122C84.7286 163.181 81.2171 163.604 77.5992 163.128C73.9813 162.598 70.5762 161.698 66.8518 161.963C59.2968 162.439 51.2629 166.833 43.7079 165.086C39.0791 164.027 36.6849 159.793 38.9194 155.399C41.1008 151.165 46.1021 150.053 50.4648 150.053C51.4757 150.053 51.4757 148.465 50.4648 148.465C44.3463 148.465 37.1105 151.112 36.472 158.099C35.8868 164.557 42.2713 167.204 47.7514 166.992C51.7417 166.833 55.6789 165.668 59.5628 164.769C64.6172 163.604 69.246 163.181 74.3537 164.133C78.1312 164.821 81.6427 165.192 85.4734 164.451C89.4106 163.71 93.1349 162.122 96.806 160.64C100.53 159.158 104.308 157.622 108.298 157.04C112.98 156.352 117.662 157.093 122.344 157.358C128.463 157.728 138.199 157.464 140.434 150.265C141.232 147.671 140.647 144.654 138.359 142.96C136.124 141.319 133.092 141.425 130.484 141.742C120.908 143.066 111.49 145.236 101.807 146.295C96.3804 146.877 91.1663 147.565 85.8459 146.295C81.5363 145.236 78.1312 145.977 74.0877 147.618C71.9595 148.465 69.8845 149.418 67.6499 149.841C64.8833 150.371 62.0102 150 59.2436 149.524C54.7212 148.677 50.3052 147.512 45.7296 148.094C44.5591 148.306 44.5591 149.894 45.57 149.788Z" fill="#F0E7FE"/>
<path fill-rule="evenodd" clip-rule="evenodd" d="M693.868 212.727C683.812 216.22 672.054 207.963 664.818 201.716C664.712 202.14 664.605 202.616 664.446 203.04C669.553 200.975 674.927 200.869 680.354 201.187C685.727 201.452 691.101 201.822 696.475 201.981C707.914 202.299 719.406 202.034 730.792 201.187C736.697 200.764 742.55 200.181 748.402 199.493C751.275 199.123 754.734 198.435 757.447 199.758C761.225 201.664 760.905 205.792 757.288 207.38C755.425 208.174 753.404 208.439 751.435 208.81C748.349 209.339 745.263 209.921 742.177 210.451C736.538 211.456 730.898 212.462 725.205 213.468C721.96 214.05 718.714 214.632 715.469 215.215C712.436 215.744 709.297 216.538 706.158 216.591C700.838 216.644 696.847 211.986 691.527 212.568C690.516 212.674 690.516 214.262 691.527 214.156C694.559 213.785 696.954 215.426 699.561 216.644C701.689 217.65 703.764 218.179 706.105 218.179C712.223 218.126 718.555 216.273 724.567 215.162C731.058 213.997 737.602 212.833 744.093 211.668C747.179 211.139 750.265 210.556 753.35 210.027C755.425 209.657 757.607 209.18 759.416 207.963C762.448 205.898 762.555 202.087 760.001 199.599C756.011 195.682 749.147 197.746 744.306 198.276C731.217 199.705 718.023 200.446 704.828 200.393C697.592 200.393 690.356 200.128 683.12 199.652C676.683 199.281 670.138 198.964 664.073 201.399C663.594 201.611 663.222 202.299 663.701 202.722C671.362 209.339 683.599 217.861 694.293 214.156C695.251 213.944 694.879 212.409 693.868 212.727Z" fill="#F0E7FE"/>
<path fill-rule="evenodd" clip-rule="evenodd" d="M449.872 492.376C449.393 489.359 453.703 489.835 455.405 490.417C456.735 490.841 458.012 491.37 459.395 491.529C462.694 491.953 465.94 490.841 469.025 489.835C472.005 488.829 475.144 487.718 478.336 488.035C482.167 488.406 485.253 491.529 484.668 495.552C484.029 499.734 479.72 501.692 475.889 500.528C473.282 499.734 470.994 498.093 468.281 497.669C462.535 496.822 456.522 501.798 450.989 499.152C450.085 498.728 449.233 500.051 450.191 500.528C453.49 502.116 456.788 501.375 460.14 500.422C462.268 499.84 464.503 499.099 466.738 499.152C469.345 499.205 471.473 500.475 473.761 501.428C477.006 502.804 480.411 503.069 483.284 500.74C485.732 498.781 486.796 495.658 486.051 492.641C483.816 483.907 473.707 486.606 467.642 488.618C464.769 489.571 461.736 490.47 458.651 489.835C456.682 489.412 454.82 488.194 452.692 488.247C450.138 488.3 447.85 490.153 448.276 492.8C448.489 493.805 450.031 493.382 449.872 492.376Z" fill="#F0E7FE"/>
<path fill-rule="evenodd" clip-rule="evenodd" d="M388.527 474.749C391.081 472.367 394.592 471.361 398.05 472.102C399.487 472.42 403.477 473.479 400.977 475.384C399.647 476.39 396.72 476.284 395.124 476.284C394.113 476.284 394.113 477.872 395.124 477.872C397.465 477.872 401.562 477.766 403.318 475.914C404.807 474.326 403.105 472.579 401.668 471.785C397.093 469.138 391.187 470.144 387.409 473.637C386.665 474.326 387.782 475.437 388.527 474.749Z" fill="#F0E7FE"/>
<path fill-rule="evenodd" clip-rule="evenodd" d="M358.945 509.844C358.519 509.685 358.147 509.527 357.721 509.368C357.668 509.791 357.615 510.215 357.562 510.638C360.807 508.309 364.478 510.003 367.936 510.797C370.863 511.485 373.417 511.168 376.29 510.479C379.854 509.632 383.472 509.103 387.143 508.891C388.846 508.786 390.548 508.733 392.251 508.68C393.847 508.627 397.837 507.833 396.454 510.532C394.805 513.761 390.016 513.867 387.09 512.914C384.589 512.12 382.248 510.956 379.588 511.591C376.822 512.226 374.481 513.973 371.608 514.555C367.777 515.349 363.999 514.979 360.328 513.655C359.371 513.338 358.945 514.82 359.903 515.191C363.52 516.461 367.298 516.884 371.129 516.249C375.438 515.508 379.269 512.173 383.738 513.391C386.93 514.291 389.538 515.72 392.943 514.714C395.124 514.079 398.21 512.173 398.635 509.738C399.168 506.88 395.603 506.986 393.741 507.039C389.431 507.145 385.068 507.356 380.759 507.992C378.418 508.362 376.183 508.997 373.895 509.421C371.076 509.95 368.788 509.421 366.074 508.68C362.882 507.78 359.583 507.25 356.71 509.262C356.285 509.58 356.178 510.109 356.551 510.532C357.349 511.432 358.2 511.644 359.317 511.432C360.381 511.22 359.956 509.685 358.945 509.844Z" fill="#F0E7FE"/>
<path fill-rule="evenodd" clip-rule="evenodd" d="M578.68 479.513C581.766 478.243 585.011 477.555 588.363 477.608C591.821 477.66 594.747 478.984 598.046 479.725C602.888 480.889 606.506 477.925 610.443 475.649C616.668 471.997 622.839 474.379 629.33 475.702C633.959 476.655 638.907 476.814 642.898 474.008C643.749 473.426 642.951 472.05 642.1 472.632C637.098 476.231 630.927 474.484 625.447 473.161C620.286 471.944 615.178 471.255 610.336 473.902C608.208 475.067 606.24 476.602 604.005 477.608C600.6 479.143 597.833 477.925 594.535 476.972C589.161 475.437 583.468 475.861 578.307 477.978C577.296 478.349 577.722 479.884 578.68 479.513Z" fill="#F0E7FE"/>
<path fill-rule="evenodd" clip-rule="evenodd" d="M208.749 218.867C213.484 217.067 221.784 226.754 225.881 233.106C232.159 242.687 233.17 251.051 236.256 270.424C237.426 277.941 239.341 289.851 241.948 304.884C246.63 309.437 248.386 313.883 249.078 316.636C250.036 320.182 250.302 324.735 249.078 325.158C247.748 325.634 245.407 321.188 244.449 321.611C243.172 322.194 247.322 329.34 244.822 332.622C242.268 335.956 232.691 335.427 227.69 330.504C223.008 325.899 224.87 320.023 224.125 305.996C223.859 301.232 223.114 288.263 219.124 275.453C214.229 259.838 209.121 259.044 206.248 245.228C204.226 235.488 203.641 220.825 208.749 218.867Z" fill="white" stroke="black" stroke-width="2"/>
<path opacity="0.15" fill-rule="evenodd" clip-rule="evenodd" d="M215.772 232.524C218.698 231.888 223.806 245.069 224.125 245.81C228.807 257.985 226.572 263.172 228.647 281.117C230.35 295.727 231.307 304.037 236.043 314.306C240.618 324.152 245.939 329.922 243.917 332.569C241.895 335.268 233.968 332.675 227.743 330.187C227.157 328.863 226.306 326.799 225.615 324.258C223.859 318.065 223.965 313.142 223.965 310.76C223.965 309.437 223.912 294.086 220.879 280.693C219.23 273.547 218.485 274.606 216.57 267.195C212.367 251.103 212.526 233.212 215.772 232.524Z" fill="#6D6C6C"/>
<path opacity="0.17" fill-rule="evenodd" clip-rule="evenodd" d="M222.954 258.144C223.539 263.649 224.284 271.853 224.603 281.858C225.082 297.262 224.337 310.072 223.912 310.072C223.539 310.072 224.018 300.861 221.996 288.263C220.666 279.899 218.698 273.124 217.208 268.624C218.219 267.619 219.443 266.242 220.56 264.337C221.943 261.902 222.635 259.679 222.954 258.144Z" fill="#6D6C6C"/>
<path fill-rule="evenodd" clip-rule="evenodd" d="M219.283 445.9C217.9 448.441 217.687 451.194 220.879 475.173C221.252 478.137 221.624 480.572 221.837 482.266C229.977 483.536 241.469 484.542 255.09 483.219C263.336 482.425 272.966 481.525 273.498 478.402C273.924 475.861 268.338 471.308 242.799 462.627C241.629 454.158 240.405 445.688 239.235 437.219C224.284 438.225 220.4 443.942 219.283 445.9Z" fill="black"/>
<path fill-rule="evenodd" clip-rule="evenodd" d="M187.201 294.986C192.202 301.761 199.331 311.501 207.685 323.411C227.477 351.572 237.373 365.652 240.831 375.075C251.046 402.971 248.386 430.073 247.375 439.283C246.79 444.577 246.045 448.917 245.46 451.882C241.416 453.417 235.617 455.111 228.541 455.693C222.209 456.222 216.783 455.64 212.792 454.952C211.569 447.753 210.558 439.654 210.079 430.867C209.387 417.792 210.026 406.094 211.249 396.089C197.576 385.661 188.744 374.916 183.37 367.452C169.005 347.284 165.174 329.816 162.886 318.594C159.641 303.032 161.875 298.797 163.95 296.574C170.867 289.428 185.871 294.562 187.201 294.986Z" fill="white" stroke="black" stroke-width="2"/>
<path opacity="0.19" fill-rule="evenodd" clip-rule="evenodd" d="M188.744 339.662C194.224 344.267 201.353 351.096 208.27 360.465C210.185 363.112 218.113 374.386 225.082 392.49C234.659 417.58 235.457 440.977 235.032 454.211C232.691 455.058 229.392 455.958 225.455 456.275C220.188 456.646 215.878 455.746 213.111 454.899C211.409 444.577 210.132 432.667 210.025 419.433C209.972 410.858 210.345 402.865 211.036 395.56C209.706 394.819 184.008 380.421 184.328 356.336C184.381 349.613 186.509 343.897 188.744 339.662Z" fill="#6D6C6C"/>
<path opacity="0.15" fill-rule="evenodd" clip-rule="evenodd" d="M195.607 380.209C196.777 378.621 211.409 383.068 217.208 393.866C221.571 401.965 218.059 408.211 218.219 419.751C218.325 428.379 220.56 440.66 230.19 455.534C224.603 455.428 219.017 455.322 213.377 455.216C211.834 445.371 210.611 434.149 210.291 421.815C210.025 412.075 210.345 403.077 210.983 394.872C208.908 393.813 206.248 392.172 203.428 389.737C200.289 386.985 194.756 381.374 195.607 380.209Z" fill="#6D6C6C"/>
<path fill-rule="evenodd" clip-rule="evenodd" d="M125.271 441.719C121.227 444.312 120.535 447.912 116.864 455.852C114.31 461.357 110.48 468.715 104.574 477.079C107.926 480.837 113.512 486.077 121.706 489.941C132.932 495.235 148.681 497.776 151.128 493.17C153.735 488.195 140.061 476.39 135.965 472.897C137.082 470.409 138.891 466.439 141.126 461.622C147.031 449.024 148.202 447.171 147.244 444.895C145.009 439.496 132.613 437.061 125.271 441.719Z" fill="black"/>
<path fill-rule="evenodd" clip-rule="evenodd" d="M142.349 283.023C139.157 291.757 135.912 300.491 132.719 309.172C127.452 324.311 129.74 334.792 131.443 339.821C133.305 345.379 136.55 350.143 142.988 359.618C147.989 366.923 152.512 372.798 155.81 376.874C149.213 383.703 141.711 392.543 134.635 403.659C125.111 418.692 119.471 432.825 116.013 443.889C119.152 446.271 123.887 449.288 130.112 451.564C137.082 454.105 143.254 454.687 147.457 454.74C154.853 449.076 164.961 440.236 174.379 427.267C181.774 417.157 191.723 403.553 194.916 384.497C200.342 352.048 182.625 325.634 176.294 316.212C164.855 299.114 151.128 288.739 142.349 283.023Z" fill="white" stroke="black" stroke-width="2"/>
<path fill-rule="evenodd" clip-rule="evenodd" d="M164.748 302.079C168.845 307.743 172.889 313.46 176.773 319.229C177.251 318.965 177.677 318.7 178.156 318.435C174.698 313.83 171.612 308.907 168.952 303.773C168.579 304.143 168.207 304.514 167.834 304.884C170.016 306.366 171.239 308.59 172.569 310.76C174.112 313.301 175.709 315.842 177.251 318.382C180.284 323.305 183.317 328.281 186.349 333.204C186.828 332.939 187.254 332.675 187.733 332.41C183.104 325.211 178.475 318.012 173.793 310.813C173.261 309.966 171.878 310.76 172.41 311.607C178.156 321.135 183.955 330.61 189.701 340.138C190.233 341.038 191.617 340.244 191.085 339.344C186.881 332.251 182.732 325.105 178.528 318.012C178.103 318.33 177.677 318.647 177.251 318.965C183.264 325.581 184.328 335.215 190.872 341.409C191.617 342.097 192.734 340.985 191.989 340.297C185.445 334.157 184.381 324.47 178.369 317.853C177.73 317.165 176.666 318.065 177.092 318.806C181.295 325.899 185.445 333.045 189.648 340.138C190.127 339.874 190.553 339.609 191.031 339.344C185.285 329.816 179.486 320.341 173.74 310.813C173.261 311.078 172.835 311.342 172.357 311.607C176.985 318.806 181.614 326.005 186.296 333.204C186.828 334.051 188.212 333.257 187.68 332.41C184.274 326.852 180.869 321.294 177.464 315.789C174.964 311.66 172.676 306.314 168.526 303.508C167.834 303.032 167.089 303.932 167.409 304.62C170.069 309.754 173.101 314.624 176.613 319.282C177.198 320.076 178.582 319.335 177.996 318.488C174.112 312.666 170.122 306.949 165.972 301.338C165.546 300.438 164.163 301.232 164.748 302.079Z" fill="white"/>
<path opacity="0.2" fill-rule="evenodd" clip-rule="evenodd" d="M168.1 304.408C165.334 308.378 161.503 314.942 159.854 323.57C154.799 349.719 176.081 361.312 171.346 384.232C168.845 396.301 162.514 395.189 148.361 420.28C141.179 433.037 136.603 444.259 133.89 451.882C130.431 450.823 126.654 449.447 122.664 447.647C120.323 446.588 118.141 445.53 116.173 444.418C119.312 434.678 124.047 422.927 131.176 410.329C139.263 396.089 148.149 384.973 155.65 376.768C153.575 374.122 150.49 370.099 146.925 365.07C137.082 351.201 132.081 344.108 130.431 335.956C128.569 326.958 130.112 319.282 131.176 314.095C132.772 306.261 135.486 300.12 137.667 295.938C147.776 298.744 157.938 301.602 168.1 304.408Z" fill="#6D6C6C"/>
<path opacity="0.17" fill-rule="evenodd" clip-rule="evenodd" d="M155.597 301.179C149.585 308.007 141.711 319.229 142.349 332.78C143.307 354.007 164.376 362.106 161.343 379.521C160.492 384.338 153.788 392.066 140.327 407.364C132.932 415.781 126.654 422.503 122.344 427.003C125.643 418.957 130.431 409.323 137.348 399.16C143.466 390.161 149.745 382.962 155.331 377.298C153.682 374.81 150.755 370.364 147.084 364.858C134.262 345.696 131.761 342.679 130.325 336.009C128.622 328.175 129.74 321.559 130.591 316.636C132.134 307.478 135.379 300.438 137.827 295.991C143.732 297.685 149.691 299.432 155.597 301.179Z" fill="#6D6C6C"/>
<path fill-rule="evenodd" clip-rule="evenodd" d="M183.103 209.074C175.548 213.521 161.182 223.313 150.222 241.311C136.283 264.231 136.283 286.622 136.762 295.303C139.369 296.15 142.029 296.997 144.742 297.791C162.885 303.19 180.443 306.843 197.042 309.172C198.426 304.461 199.915 299.697 201.512 294.774C203.906 287.522 206.406 280.588 208.96 273.971C217.792 269.419 220.878 263.543 221.889 261.108C225.986 251.58 222.102 241.628 217.899 230.883C215.558 224.848 214.334 221.778 211.408 218.496C202.256 208.174 187.146 208.809 183.103 209.074Z" fill="#E48BFD"/>
<path opacity="0.27" fill-rule="evenodd" clip-rule="evenodd" d="M201.034 221.619C186.509 223.525 178.741 230.089 175.602 233.159C157.885 250.574 164.003 279.953 165.653 287.893C167.142 295.039 169.377 300.756 171.133 304.62C159.907 301.602 148.734 298.532 137.507 295.515C136.816 287.416 136.124 266.613 148.202 244.434C159.428 223.896 175.549 213.362 182.731 209.233C183.742 209.286 184.753 209.392 185.764 209.445C187.307 211.244 189.169 213.15 191.457 215.109C194.862 218.073 198.214 220.137 201.034 221.619Z" fill="#6D6C6C"/>
<path opacity="0.2" fill-rule="evenodd" clip-rule="evenodd" d="M154.48 234.906C152.99 242.687 151.767 253.962 153.363 267.301C155.278 282.97 160.333 295.092 164.27 302.714C155.119 300.385 145.914 298.056 136.763 295.78C136.337 288.475 136.55 277.518 140.062 264.919C143.892 251.156 150.064 241.099 154.48 234.906Z" fill="#6D6C6C"/>
<path fill-rule="evenodd" clip-rule="evenodd" d="M604.271 409.799C600.919 417.263 601.558 424.25 602.09 427.532C612.571 432.137 621.882 434.255 629.011 435.313C631.352 435.684 660.296 439.76 663.116 431.873C663.807 429.914 662.69 427.903 661.573 425.944C655.348 415.093 639.599 414.457 637.471 414.404C636.886 403.13 629.597 394.766 622.148 394.184C611.614 393.39 605.016 408.158 604.271 409.799Z" fill="black"/>
<path fill-rule="evenodd" clip-rule="evenodd" d="M618.104 227.707C625.021 237.606 634.332 253.009 641.089 273.442C652.102 306.737 650.293 334.686 649.069 350.513C648.005 364.594 645.132 384.603 637.098 407.682C634.917 409.058 625.287 414.775 613.103 412.181C605.867 410.646 600.973 406.835 598.632 404.718C602.941 395.295 608.155 381.109 610.124 363.429C612.305 344.161 609.645 329.075 606.133 309.701C598.153 265.925 587.139 249.304 596.663 237.076C601.239 231.148 609.06 228.501 618.104 227.707Z" fill="white" stroke="black" stroke-width="2"/>
<path opacity="0.16" fill-rule="evenodd" clip-rule="evenodd" d="M621.882 251.898C625.5 269.419 628.373 289.534 629.49 311.872C631.406 351.519 627.096 385.714 621.51 412.34C619.115 412.658 613.316 413.028 607.144 409.958C603.473 408.105 600.973 405.67 599.536 403.977C606.187 388.732 608.581 375.763 609.539 367.029C611.028 353.319 609.805 342.309 607.517 321.77C606.187 309.754 604.644 299.909 603.526 293.186C609.645 279.476 615.764 265.66 621.882 251.898Z" fill="#6D6C6C"/>
<path opacity="0.22" fill-rule="evenodd" clip-rule="evenodd" d="M610.23 278.259C614.806 290.116 621.669 312.718 619.328 341.462C617.094 369.146 607.304 389.737 601.079 400.642C611.507 370.681 612.039 352.313 610.443 340.932C610.017 338.021 608.209 326.481 606.134 309.49C605.282 302.449 604.644 296.68 604.271 292.974C606.293 288.051 608.262 283.128 610.23 278.259Z" fill="#6D6C6C"/>
<path fill-rule="evenodd" clip-rule="evenodd" d="M527.284 386.879C522.868 389.049 521.538 392.596 515.473 404.083C511.429 411.705 508.024 417.792 505.79 421.71C512.6 426.579 523.401 432.984 537.819 436.372C546.332 438.384 564.049 441.189 566.071 436.372C568.305 431.026 550.109 418.692 542.448 413.717C550.322 406.094 550.694 395.031 545.374 389.367C540.852 384.55 532.658 384.232 527.284 386.879Z" fill="black"/>
<path fill-rule="evenodd" clip-rule="evenodd" d="M604.431 226.595C621.988 241.999 601.451 293.345 584.586 334.421C577.297 352.154 565.911 377.827 549.151 407.841C546.225 408.264 537.446 409.111 528.082 404.082C518.665 399.054 514.568 391.167 513.345 388.573C518.24 380.156 524.145 368.828 529.785 355.013C532.02 349.561 541.65 325.211 547.076 290.804C549.205 277.2 551.12 259.255 550.854 237.923C553.993 234.747 571.497 217.649 592.194 221.566C595.333 222.149 600.494 223.155 604.431 226.595Z" fill="white" stroke="black" stroke-width="2"/>
<path fill-rule="evenodd" clip-rule="evenodd" d="M610.124 247.769C610.071 249.622 610.018 251.474 610.018 253.327C610.55 253.327 611.082 253.327 611.614 253.327C611.348 250.363 611.507 247.557 612.093 244.646C611.561 244.593 611.029 244.487 610.55 244.434C610.869 250.68 609.432 257.244 608.315 263.384C607.198 269.578 605.708 275.718 603.952 281.752C604.484 281.911 604.963 282.017 605.495 282.176C608.422 271.166 610.869 260.102 612.891 248.881C613.05 247.875 611.507 247.451 611.348 248.457C609.326 259.626 606.879 270.742 603.952 281.752C603.686 282.758 605.229 283.182 605.495 282.176C607.357 275.824 608.847 269.313 610.018 262.802C611.082 256.874 612.465 250.469 612.146 244.434C612.093 243.587 610.763 243.322 610.603 244.222C609.964 247.24 609.805 250.257 610.071 253.327C610.177 254.333 611.667 254.386 611.667 253.327C611.72 251.474 611.773 249.622 611.773 247.769C611.773 246.763 610.177 246.763 610.124 247.769Z" fill="white"/>
<path fill-rule="evenodd" clip-rule="evenodd" d="M603.367 278.418C603.42 282.493 603.526 286.569 603.579 290.645C603.579 291.651 605.175 291.651 605.175 290.645C605.122 286.569 605.016 282.493 604.963 278.418C604.909 277.359 603.313 277.359 603.367 278.418Z" fill="white"/>
<path opacity="0.19" fill-rule="evenodd" clip-rule="evenodd" d="M581.234 243.058C581.393 253.697 580.808 268.201 577.669 285.034C574.317 302.873 569.209 316.689 561.761 337.492C555.695 354.536 552.769 359.618 546.597 378.515C542.82 390.002 540.16 399.636 538.457 406.094C535.531 405.723 529.466 404.506 523.4 400.007C517.761 395.825 514.888 390.849 513.611 388.255C523.4 371.158 529.625 356.177 533.562 345.273C545.746 311.554 548.619 282.229 550.269 264.178C550.96 256.662 551.333 250.416 551.492 246.34C561.388 245.228 571.338 244.169 581.234 243.058Z" fill="#6D6C6C"/>
<path opacity="0.24" fill-rule="evenodd" clip-rule="evenodd" d="M575.753 244.593C571.604 262.749 566.815 277.041 563.038 287.046C559.952 295.304 555.217 306.42 545.799 328.599C542.341 336.804 540.585 340.88 539.734 342.732C534.52 354.378 526.167 370.734 512.812 390.002C524.784 368.617 538.51 338.127 545.799 299.697C549.47 280.323 550.801 262.643 550.96 247.345C550.907 247.293 550.907 247.293 575.753 244.593Z" fill="#6D6C6C"/>
<path fill-rule="evenodd" clip-rule="evenodd" d="M592.566 114.428C593.418 116.493 594.907 119.51 597.621 122.58C599.589 124.803 602.09 127.662 605.814 128.774C613.05 130.997 620.073 125.28 621.031 124.486C628.054 128.615 635.077 132.744 642.047 136.872C642.685 145.501 642.738 158.522 639.333 173.714C636.088 188.165 632.949 189.912 630.395 203.94C626.511 225.007 629.384 243.799 628.426 243.852C628.267 243.852 628.054 243.428 627.628 241.152C600.228 243.217 572.828 245.281 545.427 247.345C544.629 230.989 544.736 217.226 545.055 207.063C545.48 191.183 546.757 171.968 552.078 149.682C555.855 133.749 558.835 128.35 563.357 124.115C573.147 114.852 586.554 114.27 592.566 114.428Z" fill="#5222D0"/>
<path opacity="0.3" fill-rule="evenodd" clip-rule="evenodd" d="M624.276 126.391C623.372 136.078 621.669 150.476 618.424 167.733C617.466 172.92 614.753 187.212 612.571 194.2C609.911 202.775 599.536 227.283 548.779 247.187C564.262 245.387 580.223 243.799 596.557 242.475C606.772 241.628 616.881 240.887 626.83 240.305C630.342 227.866 633.587 213.785 635.928 198.223C639.493 174.667 640.184 153.388 639.599 135.443C634.492 132.426 629.384 129.409 624.276 126.391Z" fill="#8352FD"/>
<path fill-rule="evenodd" clip-rule="evenodd" d="M602.356 82.5623C600.494 92.0374 599.642 102.518 591.928 114.111C590.864 115.699 589.959 116.916 589.321 117.71C589.959 118.981 596.716 132.002 611.081 133.961C619.275 135.073 625.713 131.95 628.16 130.626C627.788 127.45 627.575 123.639 627.894 119.351C628.32 113.052 629.65 107.812 630.98 103.842C637.152 103.048 643.27 102.254 649.442 101.46C650.666 98.76 651.836 96.0604 653.06 93.3078C654.762 93.2549 656.412 93.202 658.114 93.149C656.837 89.4437 654.922 83.568 652.687 76.3161C648.537 62.6591 648.591 60.7006 646.356 57.6304C640.184 49.2139 626.351 43.8676 617.253 48.367C608.474 52.6546 605.814 64.8824 602.356 82.5623Z" fill="white" stroke="black" stroke-width="2"/>
<path fill-rule="evenodd" clip-rule="evenodd" d="M657.848 92.4079C654.816 92.4609 651.836 92.2491 648.857 91.8257C647.846 91.6669 647.42 93.2019 648.431 93.3607C651.57 93.8371 654.656 94.0489 657.848 93.9959C658.913 93.9959 658.913 92.4079 657.848 92.4079Z" fill="black"/>
<path fill-rule="evenodd" clip-rule="evenodd" d="M659.976 68.1113C657.263 66.6292 654.018 67.4761 652.262 69.964C651.677 70.811 653.06 71.605 653.645 70.758C654.869 69.0112 657.316 68.4819 659.178 69.4876C660.083 69.964 660.881 68.5878 659.976 68.1113Z" fill="black"/>
<path fill-rule="evenodd" clip-rule="evenodd" d="M658.593 77.6394C658.859 76.4219 658.806 75.2044 658.221 74.0928C657.795 73.2988 656.891 72.346 655.88 72.7695C654.816 73.1929 654.869 74.6751 655.082 75.575C655.294 76.6866 655.88 77.6923 656.731 78.4334C657.21 78.8569 658.114 78.5922 658.114 77.8511C658.114 76.5278 657.795 75.3632 657.21 74.1458C656.784 73.2459 655.401 74.0399 655.827 74.9398C656.252 75.8396 656.465 76.7924 656.518 77.7982C656.997 77.5865 657.423 77.4277 657.902 77.2159C656.997 76.4748 656.678 75.522 656.625 74.4104C656.678 74.3046 656.625 74.1987 656.465 74.1987C656.571 74.2516 656.678 74.3575 656.731 74.4634C656.891 74.6751 657.05 74.9927 657.103 75.2574C657.316 75.8926 657.316 76.4748 657.157 77.11C656.784 78.2217 658.327 78.6451 658.593 77.6394Z" fill="black"/>
<path fill-rule="evenodd" clip-rule="evenodd" d="M644.547 70.2286C641.461 69.2229 638.216 70.4933 636.407 73.14C635.822 73.987 637.205 74.781 637.79 73.934C639.174 71.8696 641.727 71.0227 644.122 71.7637C645.079 72.0284 645.505 70.5463 644.547 70.2286Z" fill="black"/>
<path fill-rule="evenodd" clip-rule="evenodd" d="M645.398 79.0687C645.505 77.6395 644.919 75.4162 643.43 74.834C641.461 74.04 641.461 76.7925 641.674 77.9571C641.94 79.1216 642.898 81.2919 644.494 80.392C645.132 80.0215 645.239 79.3333 645.026 78.6981C644.653 77.6924 644.068 76.7925 643.642 75.8397C643.217 76.1573 642.791 76.4749 642.365 76.7925C642.578 77.0042 642.738 77.216 642.791 77.5336C643.057 78.5393 644.6 78.1159 644.334 77.1101C644.174 76.5278 643.908 76.1044 643.483 75.6809C642.791 75.0457 641.833 75.8397 642.206 76.6337C642.419 77.0042 642.578 77.3748 642.791 77.7983C642.951 78.1159 643.11 78.6981 643.376 78.9628C643.483 79.3333 643.589 79.3333 643.749 78.9628C643.696 78.8569 643.589 78.6981 643.536 78.5923C643.376 78.2747 643.27 77.9571 643.217 77.5865C643.164 77.2689 643.217 76.8454 643.11 76.5278C643.164 76.3161 643.11 76.2632 643.057 76.5278C643.164 76.6866 643.323 76.8454 643.376 77.0042C643.749 77.6395 643.855 78.3805 643.802 79.1216C643.696 80.0744 645.292 80.0744 645.398 79.0687Z" fill="black"/>
<path fill-rule="evenodd" clip-rule="evenodd" d="M648.484 61.0181C648.059 58.2126 646.941 53.6603 643.962 48.9492C642.898 47.3083 640.61 43.7617 636.992 41.3797C630.076 36.8274 619.435 37.1979 611.667 42.756C604.112 48.2081 600.334 58.0009 601.984 67.6878C617.519 65.4646 633.002 63.2413 648.484 61.0181Z" fill="#E48BFD"/>
<path fill-rule="evenodd" clip-rule="evenodd" d="M673.916 55.9365C650.027 58.9537 626.192 61.9709 602.303 64.9882C599.27 65.3587 599.27 70.1228 602.303 69.7522C626.192 66.735 650.027 63.7178 673.916 60.7005C676.896 60.33 676.949 55.5659 673.916 55.9365Z" fill="black"/>
<path fill-rule="evenodd" clip-rule="evenodd" d="M617.466 67.0526C621.669 68.5877 624.116 71.4991 626.989 74.9927C633.002 82.2976 631.193 84.9972 635.449 89.5495C642.153 96.8014 648.963 92.5138 654.975 99.6069C660.083 105.641 659.391 113.793 659.178 115.593C658.965 117.393 658.061 124.645 652.155 129.62C647.048 133.908 640.078 134.914 639.652 133.961C639.492 133.59 640.078 132.744 643.855 130.203C642.738 130.997 641.035 131.95 638.748 132.373C636.141 132.849 633.693 132.373 633.64 132.002C633.64 131.738 635.023 131.738 636.087 130.573C636.726 129.885 636.992 129.091 637.151 128.403C635.076 129.779 632.416 130.944 629.916 130.203C623.105 128.138 621.882 112.946 621.456 107.918C620.179 91.6139 624.861 82.721 619.168 77.0042C618.689 76.5278 616.402 74.1987 613.901 74.6751C610.709 75.2574 608.261 80.2332 609.325 83.5151C610.23 86.3205 613.422 87.1146 613.209 87.6439C612.89 88.332 607.517 87.2734 602.994 83.6739C601.345 82.3505 600.015 81.2918 599.323 79.3333C598.099 75.9455 599.536 72.0813 601.451 69.8052C605.442 65.0411 612.89 65.3587 617.466 67.0526Z" fill="black" stroke="black" stroke-width="2"/>
<path opacity="0.22" fill-rule="evenodd" clip-rule="evenodd" d="M611.135 88.0673C612.146 88.1732 613.582 88.2261 613.689 87.8556C613.742 87.6968 613.369 87.4321 613.369 87.4321C613.369 87.4321 614.593 88.9672 616.083 89.1789C616.828 89.2848 617.413 89.0201 617.839 88.8084C615.125 94.4723 612.358 101.354 610.071 109.294C607.676 117.499 606.346 125.015 605.655 131.42C603.314 130.679 599.057 128.985 595.12 125.174C592.247 122.421 590.598 119.51 589.64 117.551C592.832 112.787 594.695 108.606 595.812 105.747C596.823 103.101 597.195 101.354 599.004 95.3193C600.494 90.4494 601.664 86.4264 602.462 83.6738C602.888 84.0444 603.527 84.6266 604.378 85.2089C605.602 86.0559 607.996 87.6968 611.135 88.0673Z" fill="#6D6C6C"/>
<path fill-rule="evenodd" clip-rule="evenodd" d="M628.32 38.5213C622.095 39.7388 617.466 44.7146 616.774 50.5902C615.923 57.5775 621.084 62.3415 621.563 62.765C614.965 63.559 608.368 64.406 601.771 65.2C601.664 63.6649 601.611 61.5475 601.984 59.1126C603.26 51.2784 607.836 46.4614 608.794 45.4556C610.337 43.8676 615.764 38.7331 623.797 38.2566C625.66 38.1508 627.203 38.3625 628.32 38.5213Z" fill="#B74949"/>
<path fill-rule="evenodd" clip-rule="evenodd" d="M640.45 136.343C644.707 135.708 649.069 143.066 651.091 146.453C662.796 166.251 657.901 189.118 656.412 195.788C655.241 201.028 653.06 210.292 646.25 220.508C639.759 230.354 632.097 236.441 627.202 239.776C619.009 242.899 604.112 247.187 586.182 244.275C579.957 243.269 574.53 241.576 570.007 239.776C562.346 240.252 554.684 240.676 547.023 241.152C545.799 240.94 544.097 240.623 542.075 239.882C539.628 238.982 537.287 238.082 537.287 237.235C537.287 236.282 539.947 234.8 552.929 232.789C552.29 232.894 543.778 234.535 538.085 228.607C532.764 223.102 532.445 213.679 536.489 209.974C539.894 206.851 545.427 208.227 555.536 210.927C565.538 213.574 573.572 217.173 579.425 220.243C581.659 221.249 599.057 228.713 614.965 219.608C627.096 212.674 631.139 200.234 632.097 196.794C635.928 183.137 628.958 178.32 631.459 158.575C631.778 155.188 634.066 137.243 640.45 136.343Z" fill="white" stroke="black" stroke-width="2"/>
<path fill-rule="evenodd" clip-rule="evenodd" d="M534.467 221.778C540.639 222.255 546.544 223.737 552.184 226.278C553.089 226.701 553.94 225.325 552.982 224.901C547.076 222.202 540.905 220.614 534.467 220.137C533.456 220.137 533.456 221.725 534.467 221.778Z" fill="black"/>
<path fill-rule="evenodd" clip-rule="evenodd" d="M534.095 215.32C541.171 215.109 547.183 219.396 553.78 221.408C554.738 221.725 555.164 220.19 554.206 219.873C547.502 217.808 541.384 213.521 534.095 213.732C533.084 213.785 533.031 215.373 534.095 215.32Z" fill="black"/>
<path fill-rule="evenodd" clip-rule="evenodd" d="M540.905 209.709C546.704 210.186 551.812 212.938 556.813 215.744C557.717 216.22 558.515 214.897 557.611 214.367C552.344 211.456 547.023 208.651 540.905 208.121C539.841 208.015 539.841 209.603 540.905 209.709Z" fill="black"/>
<path opacity="0.18" fill-rule="evenodd" clip-rule="evenodd" d="M633.959 146.083C630.82 158.628 639.173 167.098 641.993 181.443C642.472 183.984 646.25 204.575 635.183 219.185C622.84 235.488 598.366 236.07 593.577 236.229C581.074 236.547 576.339 232.894 556.76 233.9C554.897 234.006 537.872 234.959 537.712 237.341C537.659 238.611 542.394 240.04 545.959 240.517C550.641 241.152 553.088 240.093 559.047 239.617C561.601 239.405 565.272 239.246 569.795 239.617C575.222 241.84 582.245 244.01 590.651 244.857C592.939 245.069 600.068 245.704 609.219 244.381C609.219 244.381 616.881 243.322 622.946 241.205C638.003 236.017 652.9 214.156 657.103 190.336C661.839 163.498 651.304 143.277 645.398 138.778C644.6 138.143 642.313 136.396 639.918 136.978C636.034 137.825 634.438 144.124 633.959 146.083Z" fill="#6D6C6C"/>
<path opacity="0.17" fill-rule="evenodd" clip-rule="evenodd" d="M656.412 162.016C655.561 162.016 655.561 172.126 653.22 184.83C651.783 192.559 648.857 208.28 641.781 219.237C629.171 238.77 603.42 243.164 593.631 244.328C602.037 245.493 614.966 245.757 627.575 239.088C654.922 224.584 657.582 189.595 658.061 183.242C658.806 172.55 657.263 162.016 656.412 162.016Z" fill="#6D6C6C"/>
<path fill-rule="evenodd" clip-rule="evenodd" d="M196.991 362.318C219.017 342.838 241.151 323.464 263.39 304.249C305.315 267.99 347.613 232.206 390.336 196.846C386.984 186.948 382.675 169.797 385.228 148.941C386.027 142.325 392.837 93.5725 437.741 68.376C441.466 66.2586 493.021 38.5213 541.331 69.117C573.2 89.2848 589.694 126.074 585.81 162.016C580.064 215.426 532.392 239.088 529.626 240.411C495.255 256.715 453.916 251.898 423.11 228.077C376.822 265.978 330.641 303.932 284.512 341.991C264.294 358.665 244.13 375.339 223.965 392.066C219.762 390.055 212.792 386.032 206.514 378.674C201.247 372.534 198.48 366.394 196.991 362.318Z" fill="black"/>
<ellipse cx="486.583" cy="153.123" rx="84.3824" ry="80.4594" fill="white" stroke="black" stroke-width="2"/>
<path fill-rule="evenodd" clip-rule="evenodd" d="M493.446 77.11C478.017 109.611 461.789 141.795 444.817 173.556C440.029 182.501 435.187 191.447 430.292 200.34C429.813 201.24 431.197 202.034 431.675 201.134C449.073 169.585 465.726 137.666 481.581 105.324C486.051 96.2192 490.467 87.0616 494.882 77.8511C495.308 77.0042 493.925 76.2102 493.446 77.11Z" fill="#F0E7FE"/>
<path fill-rule="evenodd" clip-rule="evenodd" d="M519.463 84.9972C502.544 111.57 486.476 138.619 471.207 166.145C470.728 167.045 472.111 167.839 472.59 166.939C487.86 139.413 503.928 112.364 520.847 85.7912C521.379 84.9443 519.995 84.1503 519.463 84.9972Z" fill="#F0E7FE"/>
<path fill-rule="evenodd" clip-rule="evenodd" d="M468.387 175.461C461.364 189.065 453.862 202.457 445.828 215.532C445.296 216.432 446.679 217.226 447.211 216.326C455.192 203.251 462.747 189.859 469.77 176.255C470.249 175.355 468.866 174.508 468.387 175.461Z" fill="#F0E7FE"/>
<path fill-rule="evenodd" clip-rule="evenodd" d="M497.915 135.761C488.977 152.488 480.092 169.215 471.153 185.942C470.674 186.842 472.058 187.636 472.537 186.736C481.475 170.009 490.36 153.282 499.298 136.555C499.777 135.655 498.394 134.861 497.915 135.761Z" fill="#F0E7FE"/>
<path opacity="0.08" fill-rule="evenodd" clip-rule="evenodd" d="M484.082 72.399C478.176 74.5163 439.284 89.0202 426.834 127.874C425.397 132.373 420.928 146.877 424.28 163.657C430.718 195.629 462.853 221.514 504.885 230.195C501.693 231.253 497.224 232.524 491.69 233.212C458.278 237.394 432.367 214.738 429.335 212.038C422.737 206.057 402.36 185.73 401.987 153.547C401.934 150.741 402.094 118.981 426.302 96.0604C440.401 82.7211 456.895 77.8512 463.811 75.8926C471.898 73.6165 478.974 72.7695 484.082 72.399Z" fill="#6D6C6C"/>
<path fill-rule="evenodd" clip-rule="evenodd" d="M172.727 235.7C176.558 235.224 182.304 235.171 186.507 238.558C195.552 245.863 188.582 261.743 193.051 278.523C195.445 287.522 201.777 299.644 220.185 311.66C227.475 315.312 233.54 318.065 237.743 319.971C243.755 322.67 247.586 324.205 247.533 326.27C247.479 328.334 243.702 329.869 240.988 330.769C244.234 333.786 245.883 337.598 244.766 340.509C243.915 342.785 241.574 343.897 238.967 345.167C235.987 346.649 233.487 346.967 230.614 347.337C225.24 348.026 222.58 348.343 220.132 347.337C216.355 345.749 214.652 342.256 212.152 337.227C210.768 334.474 209.066 330.187 208.161 324.629C202.149 321.876 193.53 317.112 184.964 309.119C181.612 305.996 150.541 276.353 160.33 250.733C161.82 247.134 164.959 241.311 172.727 235.7Z" fill="white" stroke="black" stroke-width="2"/>
<path fill-rule="evenodd" clip-rule="evenodd" d="M220.294 340.774C221.624 343.685 223.646 346.12 226.253 348.078C227.051 348.714 227.849 347.337 227.051 346.702C224.71 344.955 222.901 342.626 221.678 339.98C221.252 339.08 219.869 339.874 220.294 340.774V340.774Z" fill="black"/>
<path fill-rule="evenodd" clip-rule="evenodd" d="M226.679 339.927C228.275 342.997 230.669 345.538 233.595 347.443C234.446 347.973 235.244 346.596 234.393 346.067C231.68 344.373 229.498 341.991 228.009 339.133C227.583 338.233 226.2 339.027 226.679 339.927V339.927Z" fill="black"/>
<path fill-rule="evenodd" clip-rule="evenodd" d="M233.382 336.327C234.872 339.45 237.426 341.938 240.565 343.42C241.469 343.844 242.321 342.467 241.363 342.044C238.437 340.668 236.149 338.445 234.766 335.533C234.287 334.58 232.957 335.374 233.382 336.327V336.327Z" fill="black"/>
<path opacity="0.2" fill-rule="evenodd" clip-rule="evenodd" d="M174.059 235.805C172.888 241.046 171.612 249.303 172.729 259.255C175.655 284.451 192.042 301.073 194.756 303.772C208.27 317.112 217.101 315.312 222.475 327.222C223.912 330.398 226.465 337.597 233.382 341.355C236.095 342.784 238.649 343.314 240.352 343.526C239.447 344.267 237.958 345.272 235.989 346.119C232.69 347.549 229.817 347.601 225.295 347.654C221.943 347.707 220.241 347.707 218.751 347.019C215.612 345.59 214.122 342.626 213.537 341.144C211.409 335.427 209.334 329.71 207.205 323.993C196.831 318.7 182.146 309.277 170.547 293.133C165.706 286.41 157.619 274.87 158.31 261.002C158.63 254.703 160.651 250.309 161.13 249.25C164.908 241.469 171.186 237.446 174.059 235.805Z" fill="#6D6C6C"/>
<path opacity="0.32" fill-rule="evenodd" clip-rule="evenodd" d="M159.002 264.231C159.321 264.125 161.343 270.477 165.333 277.888C175.07 296.203 189.116 307.425 199.172 315.26C203.747 318.806 207.631 321.453 210.078 323.094C213.058 328.07 214.76 332.357 215.771 335.48C216.623 338.074 217.101 340.403 219.07 342.838C221.092 345.485 223.699 346.967 225.614 347.814C224.178 347.867 221.996 347.761 219.709 346.702C215.346 344.691 213.43 340.509 211.409 336.063C210.238 333.522 208.855 329.71 208.11 324.788C180.337 310.813 169.909 293.186 165.972 284.823C161.928 276.247 158.576 264.443 159.002 264.231Z" fill="#6D6C6C"/>
<path fill-rule="evenodd" clip-rule="evenodd" d="M203.056 187.371C199.278 188.853 201.513 196.264 195.447 202.987C192.468 206.321 188.85 207.91 186.349 208.809C187.946 211.191 191.085 215.056 196.245 218.126C199.917 220.349 203.428 221.408 205.875 221.884C206.674 220.455 208.004 218.232 209.653 215.585C215.559 206.321 217.687 205.316 218.006 202.246C218.804 194.729 207.897 185.466 203.056 187.371Z" fill="white" stroke="black" stroke-width="2"/>
<path fill-rule="evenodd" clip-rule="evenodd" d="M202.364 201.663C204.545 206.004 206.833 210.292 210.451 213.627C211.196 214.315 212.313 213.203 211.568 212.515C208.057 209.286 205.875 205.051 203.747 200.869C203.268 199.97 201.885 200.764 202.364 201.663Z" fill="black"/>
<path fill-rule="evenodd" clip-rule="evenodd" d="M200.768 198.805C203.215 203.569 205.876 208.28 210.558 211.192C211.356 211.668 212.154 210.609 211.515 209.921C209.972 208.28 208.376 206.639 206.886 204.998C206.514 205.369 206.142 205.739 205.769 206.11C206.674 207.063 207.631 207.963 208.695 208.704C209.068 208.968 210.238 209.498 210.451 209.815C210.77 210.345 210.451 211.192 210.292 211.721C210.824 211.88 211.302 211.986 211.834 212.144C211.888 211.88 211.888 211.615 211.941 211.403C212.047 210.715 211.196 209.974 210.611 210.609C210.611 210.027 210.451 209.445 210.079 208.968C209.6 209.233 209.174 209.498 208.695 209.762C209.281 210.556 209.866 211.35 210.451 212.144C210.877 211.827 211.302 211.509 211.728 211.192C211.249 210.662 210.877 210.133 210.504 209.551C210.026 208.862 208.695 209.286 209.068 210.186C209.387 210.874 209.493 211.139 209.972 211.721C210.611 212.515 211.728 211.403 211.09 210.609C210.93 210.345 210.77 210.08 210.611 209.762C210.132 209.974 209.653 210.186 209.174 210.398C209.653 211.086 210.132 211.721 210.664 212.356C211.249 213.044 212.473 212.144 211.941 211.403C211.356 210.609 210.77 209.815 210.185 209.021C209.6 208.174 208.376 208.915 208.802 209.815C209.334 210.874 210.398 213.362 211.834 211.774C211.409 211.509 210.93 211.244 210.504 210.98C210.451 211.244 210.451 211.509 210.398 211.721C210.238 212.727 211.675 213.15 211.941 212.144C212.313 210.874 213.218 210.292 212.154 209.021C211.675 208.439 210.877 208.174 210.292 207.804C209.068 207.01 208.004 206.057 206.993 204.998C206.301 204.257 205.184 205.369 205.876 206.11C207.418 207.751 208.961 209.392 210.504 211.033C210.824 210.609 211.143 210.186 211.462 209.762C207.046 207.01 204.599 202.457 202.258 197.958C201.672 197.058 200.289 197.905 200.768 198.805Z" fill="black"/>
<path fill-rule="evenodd" clip-rule="evenodd" d="M252.004 173.344C250.94 178.055 248.758 185.042 243.757 192.241C234.978 204.892 223.06 210.239 217.953 212.197C215.027 211.086 211.196 209.127 207.578 205.792C197.682 196.635 196.937 184.089 196.831 180.86C195.767 180.596 194.224 180.013 192.893 178.743C189.488 175.461 188.69 168.95 191.829 166.251C195.394 163.18 202.204 166.939 202.949 167.309C204.598 168.209 205.769 169.321 206.514 170.168C209.44 161.381 216.463 154.764 224.816 153.388C236.202 151.535 248.652 159.793 252.004 173.344Z" fill="white" stroke="black" stroke-width="2"/>
<path fill-rule="evenodd" clip-rule="evenodd" d="M239.128 185.995C237 190.759 233.861 194.835 229.818 198.17C229.019 198.805 230.137 199.916 230.935 199.281C235.138 195.893 238.33 191.712 240.512 186.789C240.937 185.836 239.554 185.042 239.128 185.995Z" fill="black"/>
<path fill-rule="evenodd" clip-rule="evenodd" d="M227.796 194.623C227.583 196.423 228.221 198.17 229.445 199.493C230.137 200.234 231.254 199.123 230.562 198.382C229.605 197.323 229.232 196.052 229.392 194.623C229.498 193.617 227.902 193.617 227.796 194.623Z" fill="black"/>
<path fill-rule="evenodd" clip-rule="evenodd" d="M224.55 185.571C225.934 183.666 227.583 181.972 229.445 180.437C229.019 180.172 228.541 179.908 228.115 179.643C227.423 181.76 225.934 183.454 223.965 184.513C224.284 184.936 224.603 185.36 224.923 185.783C226.146 184.301 227.37 182.872 228.594 181.39C229.232 180.596 228.115 179.484 227.476 180.278C226.253 181.76 225.029 183.189 223.805 184.672C223.22 185.36 223.965 186.365 224.763 185.942C227.104 184.672 228.807 182.607 229.658 180.119C229.924 179.272 228.913 178.902 228.328 179.325C226.359 180.913 224.657 182.713 223.22 184.777C222.582 185.624 223.965 186.418 224.55 185.571Z" fill="black"/>
<path fill-rule="evenodd" clip-rule="evenodd" d="M242.214 190.23C242.906 189.065 243.81 188.059 244.821 187.16C244.396 186.895 243.917 186.63 243.491 186.366C243.012 187.954 242.055 189.383 240.671 190.389C241.044 190.706 241.469 190.971 241.842 191.288C242.161 190.441 242.64 189.647 243.225 188.959C243.864 188.165 242.746 187.054 242.108 187.848C241.363 188.801 240.778 189.753 240.352 190.865C240.086 191.5 240.991 192.188 241.523 191.765C243.225 190.494 244.449 188.853 245.034 186.842C245.3 186.048 244.289 185.572 243.704 186.048C242.587 187.001 241.629 188.165 240.831 189.436C240.246 190.283 241.629 191.077 242.214 190.23Z" fill="black"/>
<path fill-rule="evenodd" clip-rule="evenodd" d="M219.07 181.655C219.869 183.507 220.294 185.413 220.294 187.371C220.294 187.901 221.092 187.901 221.092 187.371C221.092 185.254 220.613 183.19 219.762 181.231C219.549 180.755 218.858 181.178 219.07 181.655Z" fill="black"/>
<path fill-rule="evenodd" clip-rule="evenodd" d="M216.836 180.278C217.368 181.125 217.74 181.972 218.059 182.872C218.219 183.348 218.964 183.137 218.804 182.66C218.485 181.654 218.059 180.754 217.527 179.855C217.261 179.431 216.57 179.855 216.836 180.278Z" fill="black"/>
<path fill-rule="evenodd" clip-rule="evenodd" d="M229.126 175.938C231.095 175.355 232.957 176.679 233.01 178.743C233.01 179.484 234.234 179.537 234.234 178.743C234.127 175.938 231.573 174.032 228.807 174.773C228.062 174.985 228.381 176.149 229.126 175.938Z" fill="black"/>
<path fill-rule="evenodd" clip-rule="evenodd" d="M243.385 183.719C244.236 183.189 245.247 183.136 246.151 183.666C246.79 184.089 247.428 183.031 246.737 182.66C245.513 181.919 243.97 181.919 242.8 182.713C242.161 183.136 242.746 184.142 243.385 183.719Z" fill="black"/>
<path fill-rule="evenodd" clip-rule="evenodd" d="M217.421 197.323C218.698 199.599 220.879 201.24 223.433 201.928C224.444 202.193 224.869 200.658 223.858 200.393C221.677 199.811 219.921 198.487 218.804 196.529C218.272 195.629 216.889 196.423 217.421 197.323Z" fill="black"/>
<path fill-rule="evenodd" clip-rule="evenodd" d="M206.461 172.285C207.631 170.274 210.451 165.986 215.878 163.022C219.602 160.957 223.114 160.375 225.242 160.163C226.412 161.698 228.328 163.71 231.148 164.98C237.798 167.997 243.172 164.027 247.109 166.674C249.184 168.05 251.259 171.385 250.461 180.49C253.972 184.089 256.313 184.301 257.59 184.036C262.911 182.978 266.741 171.068 263.39 162.386C262.379 159.793 261.049 158.311 249.769 149.365C233.861 136.766 231.892 136.025 229.817 135.549C218.857 133.008 209.174 138.513 207.525 139.466C205.397 140.684 204.918 141.266 192.734 154.023C183.263 163.922 182.359 164.821 181.508 167.256C179.273 173.397 179.699 182.29 185.392 188.8C190.765 194.888 198.001 195.788 199.863 195.999C199.065 194.2 198.214 191.659 197.788 188.536C197.256 184.513 197.788 181.178 198.267 179.008C197.895 178.743 195.767 176.996 195.607 174.032C195.501 171.862 196.511 169.109 198.852 168.209C201.459 167.203 205.024 168.739 206.461 172.285Z" fill="#5222D0"/>
<path fill-rule="evenodd" clip-rule="evenodd" d="M204.173 145.659C201.992 141.372 195.607 140.736 194.49 140.63C185.605 139.731 178.475 147.618 174.272 152.223C166.823 160.428 168.952 162.863 161.716 172.761C152.139 185.889 144.956 186.471 143.467 195.523C143.36 196.211 142.03 205.316 148.095 210.821C153.31 215.585 161.716 215.638 167.249 212.779C174.751 208.915 174.112 201.134 179.539 188.059C190.18 162.545 208.376 153.917 204.173 145.659Z" fill="#5222D0"/>
<path opacity="0.12" fill-rule="evenodd" clip-rule="evenodd" d="M212.739 164.927C211.036 169.162 209.014 175.885 209.121 184.301C209.28 197.746 214.814 207.592 217.58 211.827C214.548 210.556 209.493 207.857 205.077 202.563C203.268 200.393 199.012 195.258 197.895 187.371C197.363 183.825 197.682 180.86 198.001 178.849C197.682 178.584 195.5 176.626 195.607 173.555C195.66 171.544 196.724 168.844 199.012 168.05C201.566 167.15 205.077 168.791 206.461 172.338C206.993 171.279 207.737 169.956 208.855 168.58C210.238 166.939 211.621 165.774 212.739 164.927Z" fill="#6D6C6C"/>
<path opacity="0.13" fill-rule="evenodd" clip-rule="evenodd" d="M203.375 203.675C202.949 204.628 202.471 205.58 201.885 206.533C199.225 210.98 195.767 213.944 193.053 215.744C192.096 215.161 190.819 214.262 189.542 212.885C188.158 211.403 187.307 209.921 186.828 208.862C188.903 208.227 194.064 206.269 197.576 201.134C198.799 199.281 199.544 197.482 199.97 195.999C201.087 198.593 202.204 201.134 203.375 203.675Z" fill="#6D6C6C"/>
<path opacity="0.18" fill-rule="evenodd" clip-rule="evenodd" d="M198.693 177.949C198.959 181.601 199.651 186.365 201.46 191.712C203.96 198.964 207.578 204.31 210.345 207.698C207.578 205.475 204.279 202.14 201.619 197.482C199.863 194.358 197.256 189.859 197.576 183.719C197.682 181.337 198.214 179.325 198.693 177.949Z" fill="#6D6C6C"/>
<path opacity="0.32" fill-rule="evenodd" clip-rule="evenodd" d="M206.833 140.789C204.598 142.96 190.659 156.934 192.574 176.784C193.372 185.254 196.777 191.659 199.225 195.417C197.522 195.311 194.224 194.941 190.659 192.876C187.094 190.812 185.072 188.112 184.168 186.736C183.476 185.624 182.625 183.825 182.093 181.548C182.093 181.548 181.135 177.102 182.891 171.597C184.753 165.562 193.16 153.811 206.833 140.789Z" fill="#8352FD"/>
<path opacity="0.33" fill-rule="evenodd" clip-rule="evenodd" d="M178.048 149.365C179.272 150.159 172.515 164.292 165.066 176.626C158.362 187.689 155.064 190.759 154.585 197.534C154.106 204.575 157.085 210.609 159.746 214.685C158.416 214.791 153.414 214.95 149.052 211.509C146.657 209.603 145.38 207.38 144.795 206.004C143.518 202.299 142.401 196.899 144.636 191.818C146.125 188.377 147.881 188.112 153.361 182.607C158.203 177.737 162.991 172.92 166.503 165.774C168.312 162.122 168.95 159.475 172.036 155.346C174.058 152.594 177.356 148.888 178.048 149.365Z" fill="#8352FD"/>
</svg>
