<svg width="572" height="537" viewBox="0 0 572 537" fill="none" xmlns="http://www.w3.org/2000/svg">
<path fill-rule="evenodd" clip-rule="evenodd" d="M344.585 43.7798C332.573 50.9024 329.141 63.1829 327.719 68.2424C327.376 69.4705 323.355 84.5508 330.317 100.27C332.377 104.936 334.583 109.75 339.584 112.059C342.477 113.434 345.076 113.336 355.274 112.452C360.03 112.059 365.178 111.568 370.669 110.978C374.543 106.017 381.211 96.0945 383.172 82.1439C383.515 79.5404 387.536 48.4955 370.669 40.243C359.638 34.7905 346.35 42.6991 344.585 43.7798Z" fill="#E48BFD"/>
<ellipse cx="122.772" cy="104.74" rx="11.0809" ry="12.2804" fill="#E48BFD"/>
<ellipse cx="374.053" cy="305.844" rx="8.23709" ry="7.95772" fill="#E48BFD"/>
<ellipse cx="122.87" cy="259.621" rx="6.12879" ry="6.14022" fill="#E48BFD"/>
<ellipse cx="111.446" cy="102.677" rx="9.75703" ry="10.2664" fill="#5222D0"/>
<ellipse cx="371.797" cy="294.939" rx="6.03073" ry="6.28758" fill="#5222D0"/>
<ellipse cx="452.403" cy="120.754" rx="6.61909" ry="7.07353" fill="#5222D0"/>
<path fill-rule="evenodd" clip-rule="evenodd" d="M308.646 171.545C307.567 169.826 305.802 171.447 305.067 172.626C303.547 175.082 302.566 178.128 303.694 180.928C304.527 183.04 306.587 184.808 308.989 184.464C311.196 184.17 312.863 182.352 312.814 180.142C312.814 179.552 311.98 179.11 311.539 179.601C308.94 182.893 305.753 187.559 308.352 191.784C310.166 194.682 314.628 195.075 316.393 191.931C315.951 191.882 315.51 191.833 315.069 191.734C315.314 193.11 315.559 194.485 315.755 195.861C315.902 196.794 317.324 196.401 317.177 195.468C316.932 194.092 316.687 192.717 316.491 191.342C316.393 190.703 315.412 190.654 315.167 191.145C314.382 192.52 312.617 193.012 311.196 192.324C309.627 191.538 308.94 189.77 308.94 188.05C308.94 185.201 310.95 182.696 312.617 180.584C312.176 180.387 311.784 180.24 311.343 180.044C311.392 181.91 309.578 183.286 307.763 182.893C306.391 182.598 305.508 181.419 305.018 180.142C304.527 178.815 304.576 177.489 304.969 176.163C305.018 176.065 307.028 171.693 307.322 172.184C307.861 173.068 309.136 172.331 308.646 171.545Z" fill="#E48BFD"/>
<path fill-rule="evenodd" clip-rule="evenodd" d="M108.455 175.966C109.534 173.019 113.113 174.296 114.241 176.359C114.633 177.047 114.829 177.833 114.927 178.619C115.123 180.093 114.976 180.682 113.702 181.566C112.329 182.942 111.985 182.401 112.721 179.945C113.064 179.798 113.456 179.651 113.8 179.503C114.731 179.258 115.81 179.307 116.741 179.601C119.095 180.387 120.272 182.893 119.928 185.201C119.83 185.791 120.419 186.38 121.007 186.036C124.194 184.219 128.411 186.233 129.146 189.819C129.342 190.752 130.764 190.359 130.568 189.426C129.636 184.907 124.292 182.549 120.272 184.808C120.615 185.103 121.007 185.349 121.35 185.643C121.988 181.321 118.703 177.293 114.143 177.98C112.574 178.226 110.22 179.208 110.024 181.075C109.877 182.598 111.299 183.728 112.721 183.875C116.938 184.268 116.839 178.128 115.467 175.672C113.603 172.331 108.455 171.496 106.984 175.623C106.69 176.458 108.112 176.851 108.455 175.966Z" fill="#E48BFD"/>
<path fill-rule="evenodd" clip-rule="evenodd" d="M366.6 360.861C370.375 363.366 373.562 366.559 376.112 370.292C376.651 371.078 377.926 370.341 377.387 369.555C374.69 365.626 371.356 362.285 367.384 359.633C366.551 359.043 365.815 360.32 366.6 360.861Z" fill="#5222D0"/>
<path fill-rule="evenodd" clip-rule="evenodd" d="M376.161 363.562C376.945 364.496 377.681 365.478 378.465 366.411C379.054 367.148 380.083 366.117 379.495 365.38C378.71 364.447 377.975 363.464 377.19 362.531C376.602 361.794 375.572 362.875 376.161 363.562Z" fill="#5222D0"/>
<path fill-rule="evenodd" clip-rule="evenodd" d="M371.65 349.808C375.033 352.952 377.828 356.538 379.985 360.615C380.426 361.45 381.701 360.713 381.26 359.878C379.054 355.703 376.161 351.97 372.68 348.777C371.993 348.089 370.964 349.17 371.65 349.808Z" fill="#5222D0"/>
<path fill-rule="evenodd" clip-rule="evenodd" d="M32.6541 405.119C33.7328 415.779 35.5959 426.291 38.1945 436.705C38.4397 437.638 39.8616 437.245 39.6164 436.312C37.0668 426.045 35.2037 415.631 34.125 405.119C34.027 404.186 32.556 404.186 32.6541 405.119Z" fill="#F0E7FE"/>
<path fill-rule="evenodd" clip-rule="evenodd" d="M38.4887 437.196C48.1477 439.701 58.1989 439.701 67.8578 437.196C68.7894 436.95 68.3972 435.526 67.4656 435.771C58.0518 438.227 48.2947 438.227 38.8809 435.771C37.9984 435.526 37.6061 436.95 38.4887 437.196Z" fill="#F0E7FE"/>
<path fill-rule="evenodd" clip-rule="evenodd" d="M68.9858 435.722C69.6232 425.259 70.4567 414.796 71.4373 404.333C71.5354 403.4 70.0644 403.4 69.9664 404.333C68.9858 414.796 68.1523 425.259 67.5149 435.722C67.4658 436.656 68.9368 436.656 68.9858 435.722Z" fill="#F0E7FE"/>
<path fill-rule="evenodd" clip-rule="evenodd" d="M33.4877 405.905C45.6963 408.411 58.2481 408.312 70.4566 405.561C71.3882 405.365 70.9959 403.94 70.0644 404.137C58.15 406.79 45.8434 406.937 33.88 404.481C32.9484 404.284 32.5562 405.709 33.4877 405.905Z" fill="#F0E7FE"/>
<path fill-rule="evenodd" clip-rule="evenodd" d="M33.3406 409.442C33.7328 411.456 36.2824 411.358 37.8514 411.505C41.8228 411.849 45.8433 411.947 49.8148 411.849C53.6391 411.751 57.4635 411.456 61.2879 411.014C64.3278 410.621 67.2696 410.228 69.9662 408.705C70.7998 408.263 70.0643 406.986 69.2308 407.428C64.3768 410.13 57.6596 410.032 52.2173 410.277C49.5206 410.375 46.7749 410.425 44.0782 410.375C42.6564 410.326 35.0567 410.67 34.7625 409.049C34.5664 408.116 33.1935 408.509 33.3406 409.442Z" fill="#F0E7FE"/>
<path fill-rule="evenodd" clip-rule="evenodd" d="M36.1354 426.487C38.4889 430.663 41.4797 434.347 45.059 437.54C45.7454 438.178 46.824 437.147 46.0886 436.508C42.5584 433.414 39.6656 429.828 37.4102 425.751C36.969 424.915 35.6942 425.652 36.1354 426.487Z" fill="#F0E7FE"/>
<path fill-rule="evenodd" clip-rule="evenodd" d="M34.2231 415.14C39.2242 423.589 45.3039 431.35 52.2662 438.326C52.9527 439.013 53.9823 437.933 53.2959 437.294C46.4316 430.417 40.4499 422.754 35.4979 414.403C35.0076 413.617 33.7328 414.354 34.2231 415.14Z" fill="#F0E7FE"/>
<path fill-rule="evenodd" clip-rule="evenodd" d="M42.4113 411.603C47.6085 420.887 53.6393 429.68 60.4545 437.884C61.0428 438.62 62.0725 437.589 61.4841 436.852C54.767 428.747 48.7853 420.052 43.6861 410.867C43.2448 410.032 41.97 410.768 42.4113 411.603Z" fill="#F0E7FE"/>
<path fill-rule="evenodd" clip-rule="evenodd" d="M51.7761 411.947C56.8262 419.512 61.9253 427.028 67.0735 434.543C67.6129 435.329 68.8876 434.592 68.3483 433.807C63.2001 426.291 58.101 418.775 53.0509 411.211C52.5115 410.425 51.2367 411.161 51.7761 411.947Z" fill="#F0E7FE"/>
<path fill-rule="evenodd" clip-rule="evenodd" d="M59.6208 411.505C62.1704 415.631 64.916 419.659 67.7598 423.589C68.2991 424.326 69.5739 423.589 69.0346 422.852C66.1908 418.923 63.4451 414.895 60.8956 410.768C60.4053 409.982 59.1305 410.719 59.6208 411.505Z" fill="#F0E7FE"/>
<path fill-rule="evenodd" clip-rule="evenodd" d="M17.2097 361.892C17.7981 365.282 18.3864 368.72 19.0238 372.11C19.22 373.043 19.367 374.025 20.1515 374.615C20.6909 375.057 22.456 375.008 22.7992 375.499C22.8482 375.204 22.8972 374.909 22.8972 374.615C22.1618 375.352 21.4263 376.088 20.6418 376.776C20.4457 376.973 20.3967 377.267 20.4457 377.513C20.887 378.839 21.1812 380.804 22.0637 381.934C22.505 382.523 23.2895 382.425 23.6327 382.769C23.9269 383.064 23.8288 382.867 23.6817 383.751C23.5836 384.488 23.5836 385.274 23.6817 386.06C23.8288 387.239 24.172 388.369 24.6133 389.45C27.1629 395.639 32.1149 400.649 36.8709 405.267C37.5573 405.905 38.5869 404.874 37.9005 404.235C34.8606 401.288 31.8207 398.242 29.3202 394.804C26.8687 391.414 23.9759 386.846 25.4958 382.523C25.5939 382.278 25.4958 381.934 25.2997 381.787C24.3681 381.05 23.4366 381.344 22.7992 380.166C21.5734 377.955 22.2598 377.218 23.8288 375.695C24.074 375.499 24.123 375.057 23.9269 374.811C23.5346 374.222 23.2404 374.025 22.603 373.829C22.2108 373.681 21.6224 373.829 21.2302 373.632C20.3967 373.19 20.3967 372.11 20.2496 371.324C19.6612 368.082 19.0729 364.79 18.5335 361.548C18.4355 360.566 17.0136 360.959 17.2097 361.892Z" fill="#F0E7FE"/>
<path fill-rule="evenodd" clip-rule="evenodd" d="M18.2882 361.696C37.4101 368.082 50.5012 385.962 50.8934 406.2C50.8934 407.133 52.3643 407.133 52.3643 406.2C51.9721 385.323 38.4397 366.903 18.6805 360.271C17.7979 359.976 17.4057 361.401 18.2882 361.696Z" fill="#F0E7FE"/>
<path fill-rule="evenodd" clip-rule="evenodd" d="M47.6575 386.06C52.4135 372.846 59.4248 360.075 70.6527 351.38C71.3882 350.791 70.6527 349.514 69.9173 350.103C58.3461 359.092 51.1387 372.06 46.2356 385.667C45.9415 386.551 47.3633 386.944 47.6575 386.06Z" fill="#F0E7FE"/>
<path fill-rule="evenodd" clip-rule="evenodd" d="M69.3779 351.085C69.7211 355.605 70.1134 360.124 70.4566 364.692C70.5546 365.625 72.0255 365.625 71.9275 364.692C71.5843 360.173 71.192 355.654 70.8488 351.085C70.7998 350.152 69.3289 350.152 69.3779 351.085Z" fill="#F0E7FE"/>
<path fill-rule="evenodd" clip-rule="evenodd" d="M71.0941 364.201C70.4567 364.348 69.8193 364.496 69.2309 364.692C68.2993 364.938 68.6916 366.362 69.6232 366.117C70.2605 365.969 70.8979 365.822 71.4863 365.625C72.4179 365.38 72.0256 364.004 71.0941 364.201Z" fill="#F0E7FE"/>
<path fill-rule="evenodd" clip-rule="evenodd" d="M68.4954 366.018C68.6916 366.952 69.4761 367.541 70.3586 367.639C70.7508 367.689 71.0941 367.296 71.0941 366.903C71.0941 366.461 70.7508 366.215 70.3586 366.166C70.5057 366.166 70.3586 366.166 70.3096 366.166C70.2605 366.166 70.1625 366.117 70.2605 366.166C70.2115 366.117 70.1625 366.117 70.1134 366.068C70.0154 366.018 70.2115 366.166 70.0644 366.018C70.0154 365.969 70.0154 365.969 69.9664 365.92C70.0644 366.018 69.9664 365.92 69.9664 365.871C69.9173 365.822 69.9173 365.724 69.9173 365.822C69.9173 365.773 69.8683 365.675 69.8683 365.625C69.7702 365.232 69.329 364.987 68.9858 365.134C68.5935 365.232 68.3974 365.625 68.4954 366.018Z" fill="#F0E7FE"/>
<path fill-rule="evenodd" clip-rule="evenodd" d="M69.6231 367.099C69.6722 369.899 69.5741 372.65 69.2799 375.401C69.1818 376.285 69.3289 378.348 68.7406 379.036C68.6915 379.085 67.809 379.232 67.6129 379.38C66.8774 379.969 67.9071 381.001 68.6425 380.411C68.8877 380.215 69.476 380.411 69.8683 379.969C70.4566 379.38 70.3586 378.004 70.4566 377.316C70.8979 373.927 71.094 370.489 71.045 367.05C71.094 366.166 69.6231 366.166 69.6231 367.099Z" fill="#F0E7FE"/>
<path fill-rule="evenodd" clip-rule="evenodd" d="M67.0244 380.657C68.5934 382.523 68.1521 385.618 68.005 387.878C67.8089 390.481 67.3676 392.888 66.0928 395.148C64.2787 398.488 61.7291 401.288 60.4053 404.923C60.0621 405.807 61.484 406.2 61.8272 405.316C63.5923 400.551 67.6618 397.014 68.8876 392.004C69.7701 388.418 70.6036 382.671 68.0541 379.625C67.4657 378.938 66.4361 379.969 67.0244 380.657Z" fill="#F0E7FE"/>
<path fill-rule="evenodd" clip-rule="evenodd" d="M55.4534 405.611C56.8262 391.66 60.5035 378.053 66.3871 365.38C66.7794 364.545 65.5046 363.759 65.1124 364.643C59.1307 377.611 55.3553 391.414 53.9825 405.66C53.8844 406.593 55.3553 406.544 55.4534 405.611Z" fill="#F0E7FE"/>
<path fill-rule="evenodd" clip-rule="evenodd" d="M26.5253 369.899C35.1056 380.706 41.3815 393.134 45.0588 406.397C45.3039 407.33 46.7258 406.937 46.4806 406.004C42.7053 392.446 36.2823 379.871 27.5549 368.868C26.9666 368.131 25.9369 369.162 26.5253 369.899Z" fill="#F0E7FE"/>
<path fill-rule="evenodd" clip-rule="evenodd" d="M27.4569 388.025C31.5754 387.779 35.3998 388.762 38.881 390.923C39.6654 391.414 40.4499 390.137 39.6164 389.646C35.9391 387.386 31.7716 386.306 27.4569 386.551C26.4763 386.601 26.4763 388.074 27.4569 388.025Z" fill="#F0E7FE"/>
<path fill-rule="evenodd" clip-rule="evenodd" d="M36.4295 381.443C36.1353 378.741 36.4785 376.138 37.5081 373.583C37.8514 372.699 36.4295 372.306 36.0863 373.19C35.0076 375.843 34.6644 378.594 34.9586 381.443C35.0566 382.376 36.5275 382.376 36.4295 381.443Z" fill="#F0E7FE"/>
<path fill-rule="evenodd" clip-rule="evenodd" d="M52.3155 373.289C53.9335 377.267 56.2869 381.492 56.8753 385.716C57.0224 386.65 58.4443 386.257 58.2972 385.323C57.6598 381.05 55.3063 376.825 53.7374 372.896C53.3941 372.011 51.9723 372.404 52.3155 373.289Z" fill="#F0E7FE"/>
<path fill-rule="evenodd" clip-rule="evenodd" d="M61.3369 377.955C62.7588 376.334 64.1316 374.418 65.9457 373.19C67.4657 372.159 69.1327 371.471 70.3094 370.046C70.8978 369.31 69.8682 368.278 69.2798 369.015C68.005 370.538 66.1419 371.176 64.6219 372.355C62.9549 373.632 61.6801 375.352 60.3073 376.923C59.6699 377.66 60.6995 378.692 61.3369 377.955Z" fill="#F0E7FE"/>
<path fill-rule="evenodd" clip-rule="evenodd" d="M61.8273 405.119C64.1808 404.481 66.5833 404.235 69.0348 404.383C69.9664 404.432 69.9664 402.958 69.0348 402.909C66.4362 402.762 63.9356 403.007 61.4351 403.695C60.5525 403.94 60.8957 405.365 61.8273 405.119Z" fill="#F0E7FE"/>
<path fill-rule="evenodd" clip-rule="evenodd" d="M61.6311 405.709C64.3768 405.954 67.0244 405.611 69.672 404.776C70.5546 404.481 70.1623 403.056 69.2798 403.351C66.7792 404.137 64.2297 404.432 61.6311 404.235C60.6995 404.186 60.6995 405.66 61.6311 405.709Z" fill="#F0E7FE"/>
<path fill-rule="evenodd" clip-rule="evenodd" d="M34.1252 405.463C34.7626 405.463 35.351 405.463 35.9883 405.463C36.9199 405.463 36.9199 403.99 35.9883 403.99C35.351 403.99 34.7626 403.99 34.1252 403.99C33.1936 403.99 33.1936 405.463 34.1252 405.463Z" fill="#F0E7FE"/>
<path fill-rule="evenodd" clip-rule="evenodd" d="M70.0644 417.351C85.607 417.351 101.199 417.351 116.741 417.351C117.673 417.351 117.673 415.877 116.741 415.877C101.199 415.877 85.607 415.877 70.0644 415.877C69.1328 415.877 69.1328 417.351 70.0644 417.351Z" fill="#F0E7FE"/>
<path fill-rule="evenodd" clip-rule="evenodd" d="M333.161 407.625C342.428 407.625 351.646 407.625 360.912 407.625C361.844 407.625 361.844 406.151 360.912 406.151C351.646 406.151 342.428 406.151 333.161 406.151C332.23 406.151 332.23 407.625 333.161 407.625Z" fill="#F0E7FE"/>
<path fill-rule="evenodd" clip-rule="evenodd" d="M417.297 408.509C457.257 408.509 497.216 408.509 537.176 408.509C548.551 408.509 559.926 408.509 571.301 408.509C572.233 408.509 572.233 407.035 571.301 407.035C531.342 407.035 491.382 407.035 451.422 407.035C440.047 407.035 428.672 407.035 417.297 407.035C416.365 407.035 416.365 408.509 417.297 408.509Z" fill="#F0E7FE"/>
<path fill-rule="evenodd" clip-rule="evenodd" d="M358.117 247.242C354.391 254.954 350.371 262.519 346.105 269.936C345.909 270.329 346.056 270.968 346.546 271.017C367.58 274.21 386.408 284.673 404.549 295.234C405.383 295.725 406.118 294.448 405.285 293.957C386.996 283.347 368.071 272.835 346.89 269.592C347.037 269.936 347.184 270.329 347.331 270.673C351.645 263.256 355.617 255.691 359.343 247.979C359.785 247.144 358.559 246.358 358.117 247.242Z" fill="#F0E7FE"/>
<path fill-rule="evenodd" clip-rule="evenodd" d="M361.354 274.013C362.824 269.789 364.295 265.515 365.766 261.291C366.404 259.523 366.845 257.558 367.678 255.838C367.875 254.807 368.512 254.021 369.493 253.431C370.081 253.579 370.669 253.726 371.258 253.874C372.14 254.119 373.023 254.316 373.856 254.561C375.867 255.052 379.103 255.052 378.759 257.754C378.514 259.67 377.386 261.733 376.749 263.6C375.278 267.775 373.856 271.95 372.385 276.126C372.091 277.01 373.513 277.403 373.807 276.519C375.719 271.017 377.632 265.466 379.544 259.965C379.985 258.687 381.211 256.526 380.23 255.151C379.152 253.677 375.916 253.579 374.249 253.137C372.631 252.744 369.787 251.27 368.12 252.056C366.698 252.695 366.404 255.151 365.962 256.379C363.952 262.126 361.942 267.922 359.932 273.67C359.638 274.505 361.059 274.898 361.354 274.013Z" fill="#F0E7FE"/>
<path fill-rule="evenodd" clip-rule="evenodd" d="M380.279 279.269C383.417 272.638 386.604 265.957 389.742 259.326C391.311 255.986 392.88 252.695 394.498 249.354C395.234 247.832 395.822 246.014 396.753 244.589C397.538 243.361 397.734 243.067 399.107 243.607C399.842 243.902 400.725 244.639 401.362 245.081C402.196 245.67 403.52 246.309 404.108 247.095C404.843 248.028 404.549 249.01 404.108 250.189C403.52 251.761 402.637 253.284 401.902 254.807C400.284 258.147 398.666 261.487 396.95 264.828C393.714 271.164 390.331 277.452 386.849 283.69C386.359 284.525 387.634 285.262 388.124 284.427C392.39 276.862 396.459 269.199 400.284 261.438C402.196 257.607 404.304 253.677 405.922 249.698C407.05 246.8 404.598 245.621 402.441 244.098C400.725 242.919 398.028 240.218 396.165 242.428C394.988 243.804 394.351 246.112 393.567 247.782C392.586 249.796 391.654 251.81 390.674 253.874C386.751 262.126 382.829 270.378 378.955 278.631C378.612 279.368 379.887 280.154 380.279 279.269Z" fill="#F0E7FE"/>
<path fill-rule="evenodd" clip-rule="evenodd" d="M396.557 289.487C400.774 282.855 405.53 276.568 410.776 270.771C410.482 270.821 410.188 270.87 409.893 270.87C411.757 272.147 413.571 273.375 415.434 274.652C415.336 274.308 415.238 273.964 415.189 273.62C411.021 280.154 406.854 286.638 402.686 293.171C402.196 293.957 403.421 294.694 403.961 293.908C408.128 287.375 412.296 280.89 416.464 274.357C416.709 274.013 416.513 273.571 416.218 273.326C414.355 272.049 412.541 270.821 410.678 269.543C410.433 269.347 409.992 269.445 409.795 269.642C404.451 275.585 399.597 281.922 395.331 288.652C394.792 289.585 396.067 290.322 396.557 289.487Z" fill="#F0E7FE"/>
<path fill-rule="evenodd" clip-rule="evenodd" d="M455.05 242.772C450.147 240.905 447.059 235.993 447.941 230.737C448.824 225.383 454.07 220.618 459.463 223.811C463.189 226.021 465.102 231.032 463.68 235.109C462.209 239.481 457.404 242.084 452.942 241.397C452.011 241.249 451.618 242.674 452.55 242.821C457.796 243.607 463.337 240.709 465.102 235.502C466.867 230.295 464.023 224.007 458.924 221.895C452.942 219.439 447.5 224.597 446.47 230.344C445.391 236.435 448.971 242.035 454.609 244.196C455.541 244.54 455.933 243.116 455.05 242.772Z" fill="#F0E7FE"/>
<path fill-rule="evenodd" clip-rule="evenodd" d="M465.102 241.839C455.345 241.544 459.022 225.874 467.651 226.464C476.281 227.102 472.75 244.737 463.288 241.495C462.405 241.2 462.013 242.625 462.895 242.919C473.829 246.653 478.732 226.709 468.289 225.039C463.19 224.204 458.581 229.018 457.796 233.783C457.012 238.498 460.199 243.116 465.102 243.263C466.033 243.361 466.033 241.888 465.102 241.839Z" fill="#F0E7FE"/>
<path fill-rule="evenodd" clip-rule="evenodd" d="M457.796 197.384C456.963 196.499 456.57 195.075 457.208 193.994C457.845 192.963 459.414 192.471 460.395 193.257C461.277 193.945 461.474 195.419 460.64 196.155C459.659 197.04 458.09 196.598 457.159 195.861C456.423 195.271 455.394 196.303 456.129 196.892C457.649 198.071 460.003 198.661 461.621 197.236C463.092 195.91 462.944 193.454 461.474 192.177C459.954 190.85 457.551 191.243 456.276 192.717C454.854 194.387 455.247 196.892 456.718 198.415C457.404 199.103 458.434 198.071 457.796 197.384Z" fill="#F0E7FE"/>
<path fill-rule="evenodd" clip-rule="evenodd" d="M315.51 234.372C314.137 226.021 318.991 215.952 328.405 216.05C333.21 216.099 337.868 218.064 342.722 217.376C346.154 216.885 349.096 214.92 351.155 212.218C353.214 209.517 354.391 206.127 354.587 202.738C354.832 197.727 352.92 192.619 354.293 187.657C354.98 185.152 356.45 182.843 358.951 181.91C361.353 181.075 363.952 181.566 366.453 181.468C370.081 181.321 372.925 179.749 374.739 176.556C377.288 172.086 376.7 166.732 378.465 162.016C380.573 156.318 386.506 151.455 392.782 154.255C393.615 154.648 394.4 153.37 393.517 152.977C384.986 149.146 377.877 156.858 376.21 164.619C375.131 169.679 375.327 177.538 369.296 179.552C365.08 180.977 360.324 178.766 356.45 181.665C353.263 184.022 352.332 188.345 352.381 192.127C352.528 197.678 354.244 203.082 351.793 208.387C349.537 213.397 345.075 216.394 339.535 216.05C334.632 215.755 329.778 213.741 324.826 215.018C316.442 217.13 312.862 227.053 314.186 234.814C314.284 235.649 315.706 235.256 315.51 234.372Z" fill="#F0E7FE"/>
<path fill-rule="evenodd" clip-rule="evenodd" d="M377.484 199.348C375.67 195.222 378.171 191.292 382.142 189.966C385.035 188.984 388.222 188.935 390.723 186.97C392.684 185.447 393.321 183.531 393.076 181.075C392.831 178.766 392.831 176.949 394.645 175.377C396.165 174.051 398.175 173.559 400.136 173.461C405.53 173.265 412.933 176.016 416.856 170.76C418.67 168.303 418.131 165.258 418.964 162.507C420.092 158.676 423.769 156.318 427.691 156.514C428.623 156.563 428.623 155.09 427.691 155.041C424.701 154.893 421.808 156.023 419.749 158.184C417.199 160.886 417.542 163.932 416.758 167.321C414.649 176.605 401.754 170.072 395.675 172.97C393.419 174.051 391.605 175.966 391.409 178.521C391.164 181.517 392.537 183.973 389.497 186.036C387.879 187.117 386.016 187.461 384.153 187.903C381.064 188.64 378.024 189.573 376.455 192.57C375.18 194.927 375.18 197.629 376.259 200.036C376.602 200.969 377.828 200.183 377.484 199.348Z" fill="#F0E7FE"/>
<path fill-rule="evenodd" clip-rule="evenodd" d="M464.856 133.918C464.66 133.476 464.464 132.985 464.317 132.494C464.954 131.757 465.543 131.02 466.18 130.283C466.376 130.234 467.259 130.824 467.553 130.824C468.288 130.922 468.926 130.725 469.514 130.283C471.328 128.859 470.691 126.599 471.23 124.683C472.113 121.392 475.986 123.652 477.751 121.196C479.516 118.789 478.879 113.68 483.586 115.055C484.518 115.301 484.91 113.877 483.978 113.631C481.282 112.845 478.83 114.122 477.849 116.726C477.555 117.462 477.457 118.297 477.163 119.034C476.526 120.754 475.839 120.999 473.976 121.097C472.603 121.196 471.524 121.097 470.593 122.276C469.808 123.308 469.808 124.634 469.661 125.862C469.514 127.68 469.661 129.202 466.965 129.006C466.425 128.957 465.984 128.466 465.396 128.466C462.16 128.417 462.699 132.395 463.484 134.311C463.778 135.195 465.249 134.802 464.856 133.918Z" fill="#F0E7FE"/>
<path fill-rule="evenodd" clip-rule="evenodd" d="M474.074 137.995C473.29 136.964 471.966 133.967 474.27 133.181C475.104 132.887 476.182 133.23 477.065 133.23C477.849 133.23 478.536 133.23 479.173 132.69C481.135 131.118 479.713 128.318 480.742 126.353C482.409 123.161 485.743 125.666 488.097 123.996C489.764 122.817 490.205 120.557 490.499 118.69C490.646 117.757 489.225 117.364 489.077 118.297C488.734 120.508 488.342 122.964 485.596 123.21C484.174 123.357 483.096 122.866 481.772 123.504C479.615 124.536 478.928 126.452 478.879 128.662C478.83 130.529 479.271 131.462 476.133 131.609C475.741 131.609 475.349 131.511 474.957 131.511C473.829 131.609 472.848 132.199 472.211 133.132C470.838 135.097 471.623 137.357 472.995 139.076C473.633 139.813 474.663 138.732 474.074 137.995Z" fill="#F0E7FE"/>
<path fill-rule="evenodd" clip-rule="evenodd" d="M57.2185 164.619C61.288 159.707 67.0736 155.679 73.7417 156.367C80.9982 157.104 84.5774 162.9 85.2638 169.679C86.4405 180.928 83.6948 194.387 91.2945 203.966C94.2854 207.748 98.7472 209.762 103.552 208.583C109.338 207.208 113.848 202.639 118.997 199.938C125.076 196.745 133.461 195.026 138.952 200.38C142.972 204.31 143.855 210.302 145.179 215.509C146.405 220.225 148.513 225.432 152.73 228.232C155.279 229.902 158.074 230.049 161.016 229.853C164.301 229.607 171.018 229.411 170.331 234.569C170.233 235.502 171.704 235.502 171.802 234.569C172.047 232.555 171.116 230.934 169.498 229.755C166.948 227.888 164.007 228.183 161.016 228.379C157.633 228.625 154.74 228.33 152.141 225.923C149.788 223.762 148.366 220.716 147.336 217.72C145.62 212.562 145.13 206.913 142.188 202.197C139.295 197.531 134.294 195.271 128.901 195.468C122.086 195.713 116.349 199.643 110.907 203.278C108.308 204.997 105.513 206.815 102.326 207.355C98.502 207.994 95.1189 206.324 92.6674 203.475C88.0585 198.071 87.3231 190.359 87.0779 183.58C86.8328 177.244 87.6663 170.367 85.558 164.226C83.6458 158.626 78.7918 155.139 72.9572 154.844C66.191 154.5 60.2583 158.577 56.0908 163.588C55.5514 164.325 56.5811 165.356 57.2185 164.619Z" fill="#F0E7FE"/>
<path fill-rule="evenodd" clip-rule="evenodd" d="M32.4582 240.414C40.1069 253.186 46.9221 266.4 52.9529 280.006C53.3451 280.89 54.6199 280.105 54.2276 279.269C48.1969 265.663 41.3327 252.449 33.733 239.677C33.2427 238.842 31.9679 239.579 32.4582 240.414Z" fill="#F0E7FE"/>
<path fill-rule="evenodd" clip-rule="evenodd" d="M33.3897 239.825C45.3041 232.407 57.5617 225.481 70.1625 219.194C70.996 218.751 70.2605 217.474 69.427 217.916C56.8752 224.204 44.6177 231.13 32.6543 238.548C31.8207 239.088 32.5562 240.365 33.3897 239.825Z" fill="#F0E7FE"/>
<path fill-rule="evenodd" clip-rule="evenodd" d="M69.2799 218.555C75.5068 231.67 82.0768 244.59 89.0391 257.312C89.4804 258.147 90.7552 257.41 90.3139 256.575C83.3516 243.853 76.7325 230.934 70.5547 217.818C70.1134 216.934 68.8877 217.671 69.2799 218.555Z" fill="#F0E7FE"/>
<path fill-rule="evenodd" clip-rule="evenodd" d="M54.6197 280.301C66.3379 273.227 77.9091 265.957 89.3822 258.491C90.1666 258 89.4312 256.723 88.6467 257.214C77.1736 264.68 65.6025 271.95 53.8842 279.024C53.0997 279.515 53.8352 280.792 54.6197 280.301Z" fill="#F0E7FE"/>
<path fill-rule="evenodd" clip-rule="evenodd" d="M53.6882 235.502C53.394 244.933 53.9334 254.316 55.3062 263.649C55.4533 264.582 56.8752 264.189 56.7281 263.256C55.3553 254.07 54.865 244.786 55.1591 235.502C55.2082 234.569 53.7373 234.569 53.6882 235.502Z" fill="#F0E7FE"/>
<path fill-rule="evenodd" clip-rule="evenodd" d="M53.7371 235.011C60.5524 240.365 67.3676 245.621 74.2809 250.828C75.0163 251.417 75.7518 250.14 75.0163 249.551C68.2011 244.442 61.4349 239.235 54.7668 233.979C54.0313 233.39 53.0017 234.421 53.7371 235.011Z" fill="#F0E7FE"/>
<path fill-rule="evenodd" clip-rule="evenodd" d="M56.826 263.943C62.4645 258.884 69.8191 256.182 75.1634 250.73C75.8498 250.042 74.7711 249.01 74.1337 249.698C68.7894 255.102 61.4839 257.852 55.7964 262.912C55.0609 263.501 56.1396 264.533 56.826 263.943Z" fill="#F0E7FE"/>
<path fill-rule="evenodd" clip-rule="evenodd" d="M34.4193 248.126C35.9882 247.34 37.5572 246.603 39.1262 245.818C39.9597 245.425 39.2242 244.147 38.3907 244.54C36.8217 245.326 35.2528 246.063 33.6838 246.849C32.8503 247.291 33.5857 248.519 34.4193 248.126Z" fill="#F0E7FE"/>
<path fill-rule="evenodd" clip-rule="evenodd" d="M39.4695 256.477C40.7933 255.593 42.2152 254.856 43.6861 254.217C44.5686 253.874 44.1764 252.449 43.2939 252.793C41.6759 253.481 40.1559 254.266 38.685 255.2C37.9496 255.74 38.685 257.017 39.4695 256.477Z" fill="#F0E7FE"/>
<path fill-rule="evenodd" clip-rule="evenodd" d="M45.0098 266.105C46.3827 265.417 47.7555 264.729 49.1284 264.091C49.9619 263.649 49.2264 262.421 48.3929 262.814C47.0201 263.501 45.6472 264.189 44.2744 264.828C43.4409 265.221 44.1763 266.498 45.0098 266.105Z" fill="#F0E7FE"/>
<path fill-rule="evenodd" clip-rule="evenodd" d="M47.8537 275.733C49.3736 274.406 50.9426 273.277 52.7077 272.294C53.5412 271.803 52.8058 270.575 51.9722 271.017C50.1581 272.049 48.4421 273.277 46.8241 274.701C46.0886 275.34 47.1182 276.371 47.8537 275.733Z" fill="#F0E7FE"/>
<path fill-rule="evenodd" clip-rule="evenodd" d="M72.0745 228.232C73.2022 227.446 74.3789 226.906 75.7027 226.562C76.6343 226.316 76.2421 224.941 75.3105 225.137C73.8886 225.481 72.5157 226.071 71.29 226.955C70.5545 227.495 71.29 228.772 72.0745 228.232Z" fill="#F0E7FE"/>
<path fill-rule="evenodd" clip-rule="evenodd" d="M76.4383 236.632C78.0073 235.649 79.5762 234.667 81.0962 233.635C81.8807 233.144 81.1452 231.867 80.3607 232.358C78.7917 233.341 77.2228 234.323 75.7028 235.355C74.8693 235.895 75.6048 237.172 76.4383 236.632Z" fill="#F0E7FE"/>
<path fill-rule="evenodd" clip-rule="evenodd" d="M81.4393 246.702C83.1063 245.965 84.8224 245.228 86.4894 244.491C87.3719 244.098 86.5874 242.821 85.7539 243.214C84.0869 243.951 82.3708 244.688 80.7038 245.425C79.8213 245.818 80.6057 247.095 81.4393 246.702Z" fill="#F0E7FE"/>
<path fill-rule="evenodd" clip-rule="evenodd" d="M85.0187 253.284C86.3425 252.007 87.8134 250.926 89.4314 249.993C90.2649 249.551 89.5295 248.274 88.696 248.716C86.9799 249.698 85.4109 250.828 83.9891 252.203C83.3026 252.891 84.3323 253.923 85.0187 253.284Z" fill="#F0E7FE"/>
<path fill-rule="evenodd" clip-rule="evenodd" d="M58.7873 273.817C60.0131 275.634 61.0427 277.55 61.8272 279.564C62.1704 280.448 63.5923 280.055 63.2491 279.171C62.4155 277.01 61.3859 274.947 60.0621 273.031C59.5227 272.294 58.248 273.031 58.7873 273.817Z" fill="#F0E7FE"/>
<path fill-rule="evenodd" clip-rule="evenodd" d="M66.289 269.74C67.2206 271.41 68.1031 273.031 69.0347 274.701C69.476 275.536 70.7508 274.799 70.3095 273.964C69.3779 272.294 68.4954 270.673 67.5638 269.003C67.1225 268.168 65.8477 268.905 66.289 269.74Z" fill="#F0E7FE"/>
<path fill-rule="evenodd" clip-rule="evenodd" d="M74.9675 263.501C75.9481 265.27 76.9287 267.038 77.9093 268.806C78.3506 269.642 79.6253 268.905 79.1841 268.07C78.2035 266.301 77.2229 264.533 76.2423 262.765C75.801 261.929 74.5262 262.666 74.9675 263.501Z" fill="#F0E7FE"/>
<path fill-rule="evenodd" clip-rule="evenodd" d="M82.7633 258.835C83.5478 260.701 84.3322 262.568 85.1658 264.386C85.558 265.27 86.7838 264.484 86.4405 263.649C85.6561 261.782 84.8716 259.915 84.0381 258.098C83.6458 257.263 82.371 258 82.7633 258.835Z" fill="#F0E7FE"/>
<path fill-rule="evenodd" clip-rule="evenodd" d="M38.2926 232.26C39.2242 233.783 40.1068 235.305 41.0383 236.779C41.5287 237.614 42.8034 236.828 42.3131 236.042C41.3816 234.52 40.499 232.997 39.5674 231.523C39.0771 230.737 37.8023 231.474 38.2926 232.26Z" fill="#F0E7FE"/>
<path fill-rule="evenodd" clip-rule="evenodd" d="M46.726 227.348C47.6085 229.313 48.4911 231.277 49.3736 233.242C49.7658 234.127 51.0406 233.341 50.6484 232.506C49.7658 230.541 48.8833 228.576 48.0008 226.611C47.5595 225.727 46.3337 226.464 46.726 227.348Z" fill="#F0E7FE"/>
<path fill-rule="evenodd" clip-rule="evenodd" d="M54.3256 222.632C55.6494 224.4 56.6791 226.316 57.3655 228.379C57.6597 229.264 59.0816 228.871 58.7874 227.986C58.0519 225.776 57.0223 223.713 55.6004 221.895C55.0611 221.158 53.7863 221.846 54.3256 222.632Z" fill="#F0E7FE"/>
<path fill-rule="evenodd" clip-rule="evenodd" d="M62.5136 218.85C63.5432 220.422 64.5239 221.944 65.5535 223.516C66.0438 224.302 67.3186 223.565 66.8283 222.779C65.7986 221.208 64.818 219.685 63.7884 218.113C63.2491 217.327 61.9743 218.064 62.5136 218.85Z" fill="#F0E7FE"/>
<path fill-rule="evenodd" clip-rule="evenodd" d="M138.756 121.441C134 119.968 133.755 114.908 136.01 111.126C138.216 107.442 142.482 106.459 145.816 109.505C148.562 112.059 148.807 116.431 146.257 119.231C143.708 122.08 139.54 122.031 136.598 119.869C135.863 119.28 135.127 120.557 135.863 121.146C139.589 123.897 145.032 123.455 147.826 119.575C150.719 115.645 149.689 110.143 145.62 107.491C135.814 101.154 127.381 119.427 138.363 122.866C139.295 123.16 139.687 121.736 138.756 121.441Z" fill="#F0E7FE"/>
<path fill-rule="evenodd" clip-rule="evenodd" d="M146.65 122.718C142.972 123.848 142.09 119.427 143.708 117.069C145.032 115.154 147.63 114.024 149.984 114.662C152.239 115.252 153.857 117.561 153.269 119.869C152.533 122.768 149.493 123.799 146.797 123.357C145.865 123.21 145.473 124.634 146.405 124.782C150.033 125.42 153.955 123.848 154.74 119.919C155.426 116.529 152.778 113.434 149.493 113.041C145.865 112.599 141.894 115.252 141.403 118.985C140.962 122.227 143.904 125.125 147.14 124.094C147.974 123.848 147.581 122.424 146.65 122.718Z" fill="#F0E7FE"/>
<path fill-rule="evenodd" clip-rule="evenodd" d="M115.368 154.697C114.192 157.104 115.859 159.511 118.31 160.149C120.173 160.64 122.134 160.198 124.047 160.297C126.106 160.395 128.165 160.886 130.028 161.721C134.147 163.588 136.795 166.977 136.942 171.545C137.089 175.377 135.961 179.356 137.628 182.991C141.158 190.654 150.866 184.808 155.867 189.77C160.035 193.945 158.319 201.559 163.908 204.752C164.742 205.243 165.477 203.966 164.644 203.475C159.643 200.626 160.819 193.208 157.289 189.082C155.426 186.921 152.729 186.331 149.984 186.135C146.65 185.938 142.335 186.626 139.883 183.777C137.04 180.436 138.56 175.426 138.413 171.496C138.314 168.402 137.285 165.602 135.127 163.391C133.215 161.475 130.715 160.149 128.116 159.461C126.792 159.118 125.419 158.872 124.047 158.823C122.282 158.725 114.633 159.609 116.692 155.434C117.084 154.598 115.81 153.862 115.368 154.697Z" fill="#F0E7FE"/>
<path fill-rule="evenodd" clip-rule="evenodd" d="M0.735455 419.856C9.60994 419.856 18.4354 419.856 27.3099 419.856C28.2415 419.856 28.2415 418.382 27.3099 418.382C18.4354 418.382 9.60994 418.382 0.735455 418.382C-0.245152 418.382 -0.245152 419.856 0.735455 419.856Z" fill="#F0E7FE"/>
<path fill-rule="evenodd" clip-rule="evenodd" d="M15.0523 453.16C32.1149 453.16 49.1284 453.16 66.191 453.16C67.1226 453.16 67.1226 451.687 66.191 451.687C49.1284 451.687 32.1149 451.687 15.0523 451.687C14.0717 451.687 14.0717 453.16 15.0523 453.16Z" fill="#F0E7FE"/>
<path fill-rule="evenodd" clip-rule="evenodd" d="M64.1317 443.926C79.9685 443.926 95.8543 443.926 111.691 443.926C112.623 443.926 112.623 442.452 111.691 442.452C95.8543 442.452 79.9685 442.452 64.1317 442.452C63.1511 442.452 63.1511 443.926 64.1317 443.926Z" fill="#F0E7FE"/>
<path fill-rule="evenodd" clip-rule="evenodd" d="M327.866 441.371C335.858 439.406 343.899 439.21 352.038 440.487C355.47 441.027 358.951 441.568 362.432 441.273C365.815 440.978 369.1 439.947 372.385 439.062C376.112 438.031 379.838 437.245 383.76 437.54C387.781 437.834 391.654 438.964 395.577 439.848C398.96 440.634 402.392 441.175 405.873 441.126C409.55 441.027 413.178 440.389 416.758 439.848C426.564 438.277 435.781 439.259 445.489 440.88C446.421 441.027 446.813 439.603 445.882 439.455C438.037 438.178 430.143 436.852 422.151 437.638C413.816 438.473 406.069 440.536 397.636 438.817C390.576 437.392 383.858 435.182 376.602 436.557C372.728 437.294 369.051 438.67 365.178 439.406C360.863 440.241 356.696 439.75 352.381 439.062C343.997 437.785 335.711 437.884 327.424 439.947C326.591 440.192 326.983 441.617 327.866 441.371Z" fill="#F0E7FE"/>
<path fill-rule="evenodd" clip-rule="evenodd" d="M403.176 426.438C418.572 425.603 433.967 424.768 449.363 423.982C456.963 423.589 464.317 423.737 471.868 424.768C475.251 425.21 478.487 425.308 481.87 424.915C485.645 424.473 489.568 423.884 493.098 425.701C493.932 426.143 494.667 424.866 493.833 424.424C487.852 421.379 480.938 424.228 474.515 423.638C470.691 423.294 466.965 422.558 463.14 422.361C459.169 422.165 455.198 422.263 451.226 422.459C435.193 423.196 419.16 424.179 403.127 425.014C402.245 425.014 402.245 426.487 403.176 426.438Z" fill="#F0E7FE"/>
<path fill-rule="evenodd" clip-rule="evenodd" d="M101.689 468.634C108.945 469.322 116.251 470.009 123.507 469.174C126.89 468.781 130.126 468.044 133.411 467.062C137.677 465.785 141.501 465.441 145.914 466.227C149.297 466.816 152.631 467.651 156.014 467.946C159.594 468.241 163.173 468.044 166.752 467.701C174.254 466.964 181.755 465.687 189.208 467.357C190.14 467.553 190.532 466.129 189.6 465.932C182.442 464.36 175.283 465.392 168.076 466.129C164.497 466.472 160.917 466.816 157.338 466.62C153.269 466.423 149.346 465.343 145.375 464.704C142.041 464.164 138.854 464.164 135.569 464.95C132.039 465.834 128.705 467.013 125.076 467.553C117.33 468.683 109.436 467.897 101.689 467.209C100.708 467.062 100.757 468.536 101.689 468.634Z" fill="#F0E7FE"/>
<path fill-rule="evenodd" clip-rule="evenodd" d="M179.255 72.2704C177.343 70.9441 174.744 68.8319 175.529 66.1793C176.362 63.4285 178.421 64.7548 180.334 64.1162C182.883 63.2811 182.736 60.1864 182.001 58.1725C181.265 56.2076 179.696 51.4428 183.766 53.0638C184.697 53.4568 185.384 54.0953 186.462 53.7515C187.443 53.4568 187.933 52.5726 188.178 51.6393C188.374 50.8042 188.227 49.92 188.178 49.0358C188.08 48.4463 188.031 47.8078 188.031 47.2183C187.835 45.7938 188.718 45.2043 190.581 45.4499C190.63 46.3832 192.101 46.3832 192.052 45.4499C191.954 44.0745 190.924 43.0921 189.453 43.1412C187.737 43.1903 186.806 44.8605 186.609 46.4324C186.462 47.513 187.345 50.0182 186.855 50.9024C186.266 51.2954 185.678 51.7375 185.04 52.1305C184.795 51.9831 184.55 51.8357 184.305 51.6884C183.864 51.541 183.52 51.2463 183.079 51.148C181.559 50.8042 180.334 51.7375 179.794 53.1129C178.863 55.4708 180.53 57.4356 181.02 59.6461C181.657 62.6917 179.353 62.3478 177.343 62.6917C176.46 62.839 175.725 63.2811 175.136 63.9197C172.047 67.5056 175.627 71.4844 178.568 73.5476C179.304 74.0879 180.039 72.8107 179.255 72.2704Z" fill="#F0E7FE"/>
<path fill-rule="evenodd" clip-rule="evenodd" d="M188.914 70.895C187.296 69.0284 186.07 66.474 189.208 65.4916C189.992 65.246 190.875 65.3442 191.61 64.853C193.228 63.7232 192.542 62.2004 192.248 60.6285C192.101 59.7444 191.758 58.5654 192.297 57.6812C192.689 57.0427 194.111 56.797 194.846 56.6497C195.876 56.4041 196.955 56.2567 197.837 55.6672C199.161 54.7339 199.651 53.0638 198.769 51.6393C198.279 50.8533 197.004 51.5901 197.494 52.3761C198.965 54.7339 192.101 55.3725 190.924 57.0918C189.551 59.1058 192.444 62.6425 190.042 63.9197C189.11 64.4109 187.933 64.0671 187.051 64.7056C186.413 65.1477 185.972 65.8354 185.776 66.5723C185.237 68.6845 186.658 70.502 187.933 71.9757C188.522 72.6634 189.551 71.6318 188.914 70.895Z" fill="#F0E7FE"/>
<path fill-rule="evenodd" clip-rule="evenodd" d="M131.009 59.2531C129.734 58.3689 129.587 56.797 129.98 55.4216C130.225 54.4883 131.401 51.934 132.529 51.8357C134.392 51.6392 135.324 53.9971 135.814 55.3725C136.255 56.6988 136.402 58.0251 136.452 59.4005C136.452 60.3338 137.922 60.3338 137.922 59.4005C137.873 56.6496 136.059 48.2007 131.548 50.6568C129.832 51.5901 128.558 54.2918 128.362 56.1584C128.165 57.9268 128.852 59.4987 130.274 60.5303C131.009 61.0706 131.745 59.7934 131.009 59.2531Z" fill="#F0E7FE"/>
<path fill-rule="evenodd" clip-rule="evenodd" d="M130.421 60.039C128.656 60.4811 126.89 60.9232 125.076 61.3653C124.047 61.6109 122.282 61.7092 121.448 62.4951C120.026 63.8214 120.418 67.8985 120.418 69.6178C120.418 70.109 120.909 70.4529 121.35 70.3055C121.595 70.2564 121.84 70.1581 122.135 70.109C123.409 69.4213 124.047 69.8634 124.096 71.337C125.076 72.3195 125.076 72.9089 124.096 73.0072C123.507 73.2528 122.919 73.351 122.282 73.351C121.889 73.4002 121.546 73.6458 121.546 74.0879C121.644 77.2317 121.889 80.3263 122.233 83.4701C122.331 84.4034 123.802 84.4034 123.704 83.4701C123.36 80.3263 123.115 77.2317 123.017 74.0879C122.772 74.3335 122.527 74.5791 122.282 74.8247C124.341 74.5791 127.626 73.744 127.185 70.9441C126.694 67.9476 123.066 68.2915 121.007 68.881C121.301 69.1266 121.644 69.3722 121.938 69.5687C121.938 68.4389 121.938 67.3582 122.036 66.2284C122.184 64.46 122.086 63.8214 123.704 63.1828C125.91 62.2986 128.508 62.0039 130.813 61.4145C131.744 61.2671 131.352 59.8426 130.421 60.039Z" fill="#F0E7FE"/>
<path fill-rule="evenodd" clip-rule="evenodd" d="M137.481 60.4811C139.54 60.3829 141.648 60.3829 143.708 60.6285C145.669 60.8741 145.571 61.1688 145.865 62.8881C146.061 63.9688 146.11 65.0986 146.208 66.1792C146.601 70.4037 146.895 74.6282 147.14 78.8527C147.189 79.786 148.66 79.786 148.611 78.8527C148.317 73.1054 148.12 67.2108 147.189 61.5127C146.944 60.0882 146.699 59.6461 145.228 59.4004C142.678 58.9092 140.03 58.9092 137.481 59.0566C136.549 59.0566 136.549 60.5302 137.481 60.4811Z" fill="#F0E7FE"/>
<path fill-rule="evenodd" clip-rule="evenodd" d="M123.311 84.5017C126.204 84.0105 129.097 83.5193 131.94 83.028C135.226 82.4877 138.363 82.7333 141.648 82.4877C143.168 82.3403 150.376 81.6035 147.728 78.6071C147.091 77.9194 146.061 78.9509 146.699 79.6386C147.091 80.0807 140.423 81.0632 140.276 81.0632C138.216 81.1123 136.157 81.0141 134.098 81.2597C130.372 81.7018 126.645 82.4877 122.919 83.1263C121.987 83.2245 122.38 84.6491 123.311 84.5017Z" fill="#F0E7FE"/>
<path fill-rule="evenodd" clip-rule="evenodd" d="M383.76 367.394C383.613 372.552 383.466 377.709 383.319 382.916C389.84 383.358 396.312 383.751 402.833 384.194C402.833 378.888 402.833 373.583 402.833 368.278C396.459 367.983 390.134 367.689 383.76 367.394Z" fill="#FAF1F1" stroke="#161616" stroke-width="2"/>
<path fill-rule="evenodd" clip-rule="evenodd" d="M392.243 424.719C393.125 430.417 393.518 435.133 393.714 438.522C394.351 449.771 393.861 452.375 392.88 454.438C390.478 459.497 386.114 461.609 386.506 462.297C386.8 462.739 388.958 462.248 398.568 457.188C397.979 445.989 397.44 434.838 396.852 423.638C395.332 424.031 393.812 424.375 392.243 424.719Z" fill="#FAF1F1" stroke="#161616" stroke-width="2"/>
<path fill-rule="evenodd" clip-rule="evenodd" d="M379.544 388.614C387.879 388.664 396.214 388.762 404.549 388.811C403.618 400.011 402.735 411.161 401.804 422.361C394.547 421.772 387.242 421.231 379.985 420.642C379.789 409.982 379.642 399.323 379.544 388.614Z" fill="#FAF1F1" stroke="#161616" stroke-width="2"/>
<path fill-rule="evenodd" clip-rule="evenodd" d="M382.927 424.326C385.575 430.761 386.457 436.312 386.751 440.045C387.193 445.547 387.487 449.771 384.839 452.571C383.859 453.652 382.241 454.683 379.103 456.795C376.308 458.662 374.984 459.35 375.082 459.546C375.229 459.841 377.926 459.252 389.693 455.076C390.478 451.097 391.115 445.989 390.968 439.996C390.772 433.61 389.742 428.157 388.615 424.08C386.751 424.179 384.839 424.228 382.927 424.326Z" fill="#FAF1F1" stroke="#161616" stroke-width="2"/>
<path fill-rule="evenodd" clip-rule="evenodd" d="M387.192 462.739C388.663 461.511 390.036 460.185 391.36 458.76C392.88 457.09 395.135 454.536 397.489 456.746C397.538 456.353 397.587 455.96 397.636 455.567C394.155 457.287 390.723 459.006 387.242 460.676C386.555 461.02 386.898 462.051 387.634 462.051C390.919 462.101 392.978 456.353 396.361 457.434C397.244 457.729 397.636 456.304 396.753 456.009C395.282 455.567 394.155 455.96 392.929 456.845C391.507 457.876 389.497 460.578 387.683 460.578C387.83 461.02 387.928 461.511 388.075 461.953C391.556 460.234 394.988 458.515 398.469 456.845C398.911 456.648 398.96 456.009 398.617 455.666C397.293 454.438 394.939 453.996 393.272 454.781C392.046 455.322 391.262 456.746 390.379 457.68C389.056 459.104 387.683 460.381 386.212 461.658C385.427 462.297 386.457 463.378 387.192 462.739Z" fill="#161616"/>
<path fill-rule="evenodd" clip-rule="evenodd" d="M393.223 455.076C394.694 455.125 396.116 455.42 397.489 456.01C398.322 456.402 399.107 455.125 398.224 454.732C396.606 453.996 394.988 453.603 393.223 453.553C392.292 453.603 392.292 455.076 393.223 455.076Z" fill="#161616"/>
<path fill-rule="evenodd" clip-rule="evenodd" d="M385.182 453.357C386.31 453.652 387.291 454.241 388.075 455.125C388.713 455.813 389.742 454.781 389.105 454.094C388.124 453.062 386.898 452.325 385.526 451.982C384.692 451.687 384.3 453.111 385.182 453.357Z" fill="#161616"/>
<path fill-rule="evenodd" clip-rule="evenodd" d="M377.239 459.301C378.759 458.171 380.328 457.139 381.946 456.157C382.682 455.715 383.466 455.125 384.251 454.88C385.477 454.438 386.212 454.732 387.34 455.224C387.34 454.781 387.34 454.389 387.34 453.946C385.771 454.634 384.006 454.585 382.388 455.273C380.819 455.911 379.348 457.483 377.73 457.778C377.926 458.22 378.122 458.662 378.318 459.104C381.211 457.68 384.447 457.434 387.34 456.01C388.173 455.567 387.438 454.339 386.604 454.732C383.711 456.157 380.475 456.402 377.583 457.827C376.798 458.22 377.387 459.301 378.171 459.153C379.936 458.859 381.358 457.238 383.025 456.599C384.692 455.96 386.506 455.911 388.124 455.224C388.615 455.027 388.615 454.143 388.124 453.946C386.261 453.111 385.428 452.62 383.564 453.603C381.113 454.88 378.808 456.402 376.602 458.024C375.72 458.564 376.455 459.841 377.239 459.301Z" fill="#161616"/>
<path fill-rule="evenodd" clip-rule="evenodd" d="M385.624 431.842C386.849 431.399 388.075 431.449 389.203 432.038C390.036 432.48 390.772 431.203 389.938 430.761C388.467 429.975 386.8 429.828 385.231 430.417C384.349 430.761 384.741 432.185 385.624 431.842Z" fill="#161616"/>
<path fill-rule="evenodd" clip-rule="evenodd" d="M386.849 436.754C387.879 436.656 388.86 436.901 389.644 437.589C390.38 438.178 391.409 437.147 390.674 436.557C389.595 435.673 388.271 435.182 386.849 435.28C385.918 435.329 385.918 436.803 386.849 436.754Z" fill="#161616"/>
<path fill-rule="evenodd" clip-rule="evenodd" d="M387.389 442.894C388.32 442.796 389.203 443.14 389.742 443.926C390.232 444.712 391.507 443.975 391.017 443.189C390.281 441.961 388.86 441.224 387.438 441.42C387.045 441.469 386.702 441.715 386.702 442.157C386.653 442.501 386.996 442.943 387.389 442.894Z" fill="#161616"/>
<path fill-rule="evenodd" clip-rule="evenodd" d="M393.714 431.498C394.596 431.007 395.724 431.056 396.557 431.743C397.293 432.333 398.323 431.301 397.587 430.712C396.263 429.631 394.498 429.386 392.978 430.221C392.145 430.712 392.88 431.989 393.714 431.498Z" fill="#161616"/>
<path fill-rule="evenodd" clip-rule="evenodd" d="M394.547 440.782C395.332 440.438 396.214 440.585 396.852 441.175C397.538 441.813 398.617 440.782 397.881 440.143C396.754 439.112 395.185 438.866 393.763 439.554C392.929 439.898 393.714 441.175 394.547 440.782Z" fill="#161616"/>
<path fill-rule="evenodd" clip-rule="evenodd" d="M394.743 448.641C395.528 448.15 396.508 448.15 397.244 448.739C397.979 449.329 399.009 448.297 398.273 447.708C397.048 446.676 395.332 446.529 394.008 447.413C393.223 447.904 393.959 449.182 394.743 448.641Z" fill="#161616"/>
<path d="M405.726 388.762C404.745 400.06 403.765 411.358 402.784 422.656" stroke="#161616" stroke-width="6"/>
<path d="M379.838 421.084C388.026 421.673 396.214 422.214 404.402 422.803" stroke="#161616" stroke-width="6"/>
<path d="M404.451 367.836C404.255 373.436 404.01 378.987 403.814 384.586" stroke="#161616" stroke-width="6"/>
<path fill-rule="evenodd" clip-rule="evenodd" d="M405.481 395.393C410.041 394.558 414.895 398.144 415.238 402.86C415.728 408.754 409.011 409.786 404.598 409.147C403.667 409 403.275 410.425 404.206 410.572C409.6 411.358 417.199 409.835 416.709 402.86C416.317 397.113 410.58 392.937 405.089 393.969C404.157 394.116 404.549 395.541 405.481 395.393Z" fill="#161616"/>
<path fill-rule="evenodd" clip-rule="evenodd" d="M404.402 411.751C406.315 412.144 407.835 413.519 408.374 415.386C408.619 416.319 410.041 415.926 409.796 414.993C409.158 412.635 407.246 410.768 404.844 410.326C403.863 410.179 403.471 411.554 404.402 411.751Z" fill="#161616"/>
<path fill-rule="evenodd" clip-rule="evenodd" d="M403.667 411.26C404.843 412.979 405.383 414.895 405.187 417.007C405.138 417.94 406.608 417.94 406.658 417.007C406.805 414.698 406.216 412.439 404.892 410.523C404.402 409.737 403.127 410.474 403.667 411.26Z" fill="#161616"/>
<path fill-rule="evenodd" clip-rule="evenodd" d="M379.495 394.706C376.259 392.642 370.326 398.586 369.591 401.484C368.12 407.379 375.67 406.691 378.808 408.656C379.593 409.147 380.328 407.87 379.544 407.379C377.288 405.954 373.954 406.495 371.993 404.726C369.591 402.565 371.797 399.962 373.464 398.439C374.347 397.653 377.338 395.049 378.759 395.934C379.544 396.523 380.328 395.246 379.495 394.706Z" fill="#161616"/>
<path fill-rule="evenodd" clip-rule="evenodd" d="M378.71 407.968C377.436 408.46 376.259 409.196 375.278 410.228C374.543 411.014 373.611 412.242 374.347 413.323C374.886 414.109 376.161 413.372 375.622 412.586C375.278 412.095 376.553 411.014 376.896 410.719C377.534 410.13 378.269 409.688 379.103 409.393C379.985 409.049 379.642 407.625 378.71 407.968Z" fill="#161616"/>
<path fill-rule="evenodd" clip-rule="evenodd" d="M378.122 409C377.19 410.474 376.896 412.144 377.239 413.814C377.436 414.747 378.857 414.354 378.661 413.421C378.367 412.095 378.661 410.867 379.397 409.737C379.936 408.951 378.661 408.214 378.122 409Z" fill="#161616"/>
<path fill-rule="evenodd" clip-rule="evenodd" d="M382.78 393.772C382.535 397.358 382.584 400.993 382.829 404.579C382.927 405.512 384.398 405.512 384.3 404.579C384.006 400.993 384.006 397.358 384.251 393.772C384.349 392.839 382.878 392.839 382.78 393.772Z" fill="#161616"/>
<path fill-rule="evenodd" clip-rule="evenodd" d="M383.859 394.165C389.056 394.46 394.204 394.656 399.401 394.755C399.156 394.509 398.911 394.263 398.666 394.018C398.519 397.702 398.372 401.435 398.175 405.119C398.126 406.053 399.597 406.053 399.646 405.119C399.793 401.435 399.941 397.702 400.137 394.018C400.137 393.625 399.793 393.281 399.401 393.281C394.204 393.183 389.056 392.986 383.859 392.692C382.927 392.642 382.927 394.116 383.859 394.165Z" fill="#161616"/>
<path fill-rule="evenodd" clip-rule="evenodd" d="M383.27 405.218C385.428 405.807 387.83 405.66 389.987 405.807C392.635 405.954 395.332 406.151 397.979 406.298C398.911 406.347 398.911 404.874 397.979 404.825C395.626 404.677 393.272 404.53 390.919 404.383C388.566 404.235 385.918 404.383 383.614 403.793C382.78 403.548 382.388 404.972 383.27 405.218Z" fill="#161616"/>
<path fill-rule="evenodd" clip-rule="evenodd" d="M384.937 412.832C385.82 414.747 387.732 413.077 389.203 413.765C389.889 414.06 389.742 414.502 390.674 414.551C391.752 414.6 394.4 412.439 394.939 414.453C395.086 414.993 395.773 415.14 396.165 414.796C396.655 414.649 397.195 414.502 397.685 414.403C398.273 415.14 399.352 414.06 398.715 413.372C397.587 412.046 396.165 412.782 395.086 413.765C395.479 413.863 395.92 413.961 396.312 414.109C395.871 412.389 394.057 411.26 392.341 412.046C391.507 412.439 391.409 413.175 390.134 412.684C389.889 412.586 389.791 412.193 389.546 412.095C389.007 411.898 386.163 412.193 386.163 412.144C385.82 411.21 384.545 411.947 384.937 412.832Z" fill="#161616"/>
<path fill-rule="evenodd" clip-rule="evenodd" d="M387.536 374.173C387.634 373.632 388.271 373.485 388.713 373.681C389.35 373.927 389.693 374.664 389.987 375.204C390.38 376.039 391.654 375.302 391.262 374.467C390.723 373.387 389.889 372.257 388.566 372.11C387.487 372.011 386.359 372.65 386.163 373.731C385.918 374.713 387.34 375.106 387.536 374.173Z" fill="#161616"/>
<path fill-rule="evenodd" clip-rule="evenodd" d="M396.558 374.86C396.656 374.369 397.097 374.074 397.587 374.271C398.176 374.467 398.421 375.204 398.519 375.745C398.666 376.678 400.088 376.285 399.941 375.352C399.745 374.173 398.96 372.945 397.685 372.748C396.558 372.601 395.332 373.288 395.136 374.467C394.989 375.401 396.41 375.794 396.558 374.86Z" fill="#161616"/>
<path fill-rule="evenodd" clip-rule="evenodd" d="M388.271 377.267C389.938 380.215 393.91 380.657 396.067 378.004C396.655 377.267 395.626 376.236 395.037 376.973C393.468 378.888 390.772 378.741 389.546 376.531C389.105 375.695 387.83 376.432 388.271 377.267Z" fill="#161616"/>
<path fill-rule="evenodd" clip-rule="evenodd" d="M336.838 110.34C330.661 107.835 326.934 101.842 324.679 95.8488C322.276 89.6104 321.247 82.8316 321.59 76.151C322.178 63.8215 327.425 51.3445 337.133 43.485C346.301 36.0185 359.883 33.9063 370.081 40.6851C380.721 47.7586 382.633 62.3478 382.731 74.0879C382.829 87.1543 379.789 100.859 370.13 110.242C369.444 110.88 370.473 111.961 371.16 111.273C380.328 102.333 383.81 89.5613 384.153 77.0843C384.496 64.853 383.025 49.3797 372.974 40.9798C363.56 33.1204 349.586 33.5133 339.535 39.8992C328.405 46.9727 321.835 59.7935 320.413 72.7125C319.531 80.7193 320.511 89.0209 323.453 96.5857C325.954 102.971 329.925 109.063 336.495 111.715C337.329 112.108 337.672 110.684 336.838 110.34Z" fill="#161616"/>
<path fill-rule="evenodd" clip-rule="evenodd" d="M336.152 111.273C334.485 113.631 334.828 117.119 337.28 118.887C339.143 120.213 341.889 120.41 344.095 120.704C346.743 121.097 349.439 121.245 352.136 121.245C356.941 121.196 362.432 120.852 366.894 118.985C370.13 117.61 372.582 114.368 370.865 110.88C370.473 110.045 369.198 110.782 369.591 111.617C373.268 119.133 355.862 119.771 352.087 119.771C348.606 119.771 345.125 119.476 341.741 118.838C340.123 118.543 338.309 118.248 337.28 116.824C336.25 115.35 336.446 113.434 337.427 112.059C337.966 111.224 336.691 110.487 336.152 111.273Z" fill="#161616"/>
<path fill-rule="evenodd" clip-rule="evenodd" d="M337.721 119.231C337.721 121.687 337.77 124.192 338.064 126.648C338.211 127.778 338.456 128.76 339.388 129.448C340.712 130.431 342.918 130.381 344.487 130.529C347.135 130.725 349.831 130.725 352.479 130.627C354.98 130.529 357.48 130.332 359.981 130.087C361.452 129.939 363.119 129.988 364.246 128.859C366.747 126.403 366.796 121.736 366.159 118.641C365.962 117.708 364.541 118.101 364.737 119.034C365.08 120.704 365.178 122.375 364.835 124.094C364.344 126.501 363.658 128.073 360.961 128.564C357.823 129.153 354.293 129.153 351.106 129.202C347.968 129.252 344.438 129.399 341.349 128.662C338.505 127.974 339.241 121.589 339.241 119.231C339.192 118.297 337.721 118.297 337.721 119.231Z" fill="#161616"/>
<path fill-rule="evenodd" clip-rule="evenodd" d="M338.211 66.3266C344.095 70.0108 348.557 75.4142 351.057 81.8982C351.4 82.7824 352.822 82.3894 352.479 81.5053C349.831 74.6282 345.174 68.9301 338.996 65.0495C338.162 64.5091 337.427 65.7863 338.211 66.3266Z" fill="#161616"/>
<path fill-rule="evenodd" clip-rule="evenodd" d="M352.234 81.8982C355.127 75.8071 359.343 70.6002 364.737 66.5723C365.472 66.0319 364.737 64.7056 364.001 65.2951C358.412 69.4704 353.999 74.8738 350.959 81.1614C350.567 81.9965 351.842 82.7333 352.234 81.8982Z" fill="#161616"/>
<path fill-rule="evenodd" clip-rule="evenodd" d="M351.057 80.179C351.793 90.298 352.136 100.417 351.989 110.536C351.989 111.47 353.46 111.47 353.46 110.536C353.607 100.417 353.264 90.2489 352.528 80.179C352.43 79.1965 350.959 79.1965 351.057 80.179Z" fill="#161616"/>
<path fill-rule="evenodd" clip-rule="evenodd" d="M293.643 104.936C300.164 102.726 306.636 100.515 313.157 98.3049C314.039 98.0102 313.647 96.5857 312.765 96.8804C306.243 99.0909 299.771 101.301 293.25 103.512C292.319 103.807 292.711 105.231 293.643 104.936Z" fill="#161616"/>
<path fill-rule="evenodd" clip-rule="evenodd" d="M301.095 95.112C303.351 94.4734 305.606 93.7857 307.862 93.1471C308.744 92.9015 308.401 91.477 307.469 91.7226C305.214 92.3612 302.959 93.0489 300.703 93.6875C299.821 93.9822 300.164 95.4067 301.095 95.112Z" fill="#161616"/>
<path fill-rule="evenodd" clip-rule="evenodd" d="M284.768 78.7545C293.398 78.6562 301.978 78.9018 310.558 79.4422C311.49 79.4913 311.49 78.0176 310.558 77.9685C301.978 77.4282 293.349 77.2317 284.768 77.2808C283.837 77.2808 283.837 78.7545 284.768 78.7545Z" fill="#161616"/>
<path fill-rule="evenodd" clip-rule="evenodd" d="M303.008 72.0739C305.067 72.6142 307.175 72.8598 309.283 72.9089C310.215 72.9089 310.215 71.4353 309.283 71.4353C307.273 71.3862 305.312 71.1406 303.4 70.6493C302.468 70.4037 302.076 71.8283 303.008 72.0739Z" fill="#161616"/>
<path fill-rule="evenodd" clip-rule="evenodd" d="M299.821 26.3415C307.518 32.973 314.53 40.243 320.855 48.2007C321.443 48.9375 322.473 47.906 321.884 47.1692C315.559 39.2114 308.548 31.8923 300.85 25.31C300.164 24.6714 299.085 25.7029 299.821 26.3415Z" fill="#161616"/>
<path fill-rule="evenodd" clip-rule="evenodd" d="M321.345 40.2921C322.669 41.6675 323.943 43.043 325.267 44.4675C325.905 45.1552 326.934 44.1236 326.297 43.4359C324.973 42.0605 323.698 40.6851 322.374 39.2606C321.737 38.5729 320.707 39.6044 321.345 40.2921Z" fill="#161616"/>
<path fill-rule="evenodd" clip-rule="evenodd" d="M291.485 43.043C293.888 44.4675 296.339 45.7938 298.84 47.0218C299.673 47.4639 300.409 46.1867 299.575 45.7446C297.075 44.4675 294.623 43.1412 292.221 41.7658C291.387 41.2746 290.652 42.5517 291.485 43.043Z" fill="#161616"/>
<path fill-rule="evenodd" clip-rule="evenodd" d="M376.798 31.8432C384.055 24.5731 391.311 17.3031 398.568 10.0331C399.254 9.34539 398.175 8.31384 397.538 9.00154C390.282 16.2716 383.025 23.5416 375.769 30.8116C375.082 31.4993 376.112 32.5309 376.798 31.8432Z" fill="#161616"/>
<path fill-rule="evenodd" clip-rule="evenodd" d="M384.104 35.2326C385.967 33.8572 387.83 32.5309 389.693 31.1555C390.428 30.6151 389.742 29.338 388.958 29.8783C387.094 31.2537 385.231 32.58 383.368 33.9554C382.584 34.4957 383.319 35.7729 384.104 35.2326Z" fill="#161616"/>
<path fill-rule="evenodd" clip-rule="evenodd" d="M354.146 22.2153C355.617 15.0927 356.745 7.92088 357.431 0.699985C357.529 -0.233328 356.058 -0.233328 355.96 0.699985C355.274 7.77352 354.195 14.847 352.724 21.8223C352.528 22.7556 353.95 23.1486 354.146 22.2153Z" fill="#161616"/>
<path fill-rule="evenodd" clip-rule="evenodd" d="M395.381 67.4073C408.717 66.1793 422.004 64.9513 435.34 63.7232C436.272 63.625 436.272 62.1513 435.34 62.2496C422.004 63.4776 408.717 64.7056 395.381 65.9337C394.449 65.9828 394.4 67.4565 395.381 67.4073Z" fill="#161616"/>
<path fill-rule="evenodd" clip-rule="evenodd" d="M339.339 113.041C347.625 114.859 356.058 114.81 364.295 112.943C365.227 112.747 364.835 111.322 363.903 111.519C355.911 113.336 347.723 113.385 339.731 111.617C338.799 111.42 338.407 112.845 339.339 113.041Z" fill="#161616"/>
<path fill-rule="evenodd" clip-rule="evenodd" d="M340.565 125.518C346.89 126.353 353.214 126.55 359.588 126.108C360.52 126.059 360.52 124.585 359.588 124.634C353.214 125.076 346.89 124.88 340.565 124.045C339.633 123.946 339.633 125.42 340.565 125.518Z" fill="#161616"/>
<path fill-rule="evenodd" clip-rule="evenodd" d="M386.114 108.08C396.067 115.105 406.216 121.883 416.513 128.417C417.297 128.908 418.033 127.631 417.248 127.139C406.952 120.606 396.803 113.827 386.849 106.803C386.065 106.263 385.329 107.54 386.114 108.08Z" fill="#161616"/>
<path fill-rule="evenodd" clip-rule="evenodd" d="M260.841 453.603C251.526 465.048 242.259 476.444 232.943 487.89C243.877 526.401 250.055 536.52 253.732 535.98C256.38 535.587 257.654 529.84 259.076 523.405C262.606 507.342 260.498 493.539 258.341 484.942C264.224 478.36 270.059 471.728 275.943 465.146C270.893 461.315 265.891 457.483 260.841 453.603Z" fill="#161616" stroke="#161616" stroke-width="2"/>
<path fill-rule="evenodd" clip-rule="evenodd" d="M226.471 394.656C232.306 399.176 237.895 397.555 249.466 399.52C259.321 401.19 270.402 404.874 282.17 412.242C269.618 426.979 257.066 442.55 244.612 458.957C241.622 462.936 238.631 466.915 235.738 470.893C240.543 472.023 246.328 473.792 252.604 476.641C258.733 479.391 263.734 482.486 267.706 485.286C286.386 468.978 303.057 453.21 317.913 438.326C324.777 431.449 334.485 420.937 336.005 406.053C336.103 405.218 336.103 404.481 336.103 403.744C335.76 379.036 304.724 361.155 285.847 354.573C265.205 347.401 229.707 343.521 219.803 360.664C213.968 370.783 217.401 387.632 226.471 394.656Z" fill="#E48BFD"/>
<path opacity="0.26" fill-rule="evenodd" clip-rule="evenodd" d="M262.704 369.948C262.361 374.615 261.528 380.166 259.812 386.306C258.586 390.678 257.115 394.558 255.644 397.849C254.026 398.488 252.457 399.127 250.839 399.765C261.381 403.94 271.971 408.116 282.513 412.291C274.668 421.28 266.774 430.712 258.831 440.536C250.643 450.655 242.847 460.578 235.444 470.353C240.69 472.072 245.887 473.792 251.133 475.462C269.912 454.732 288.691 433.954 307.469 413.224C309.43 407.575 309.332 403.155 308.744 400.06C306.047 384.93 287.563 372.601 262.704 369.948Z" fill="#6D6C6C"/>
<path opacity="0.23" fill-rule="evenodd" clip-rule="evenodd" d="M282.415 412.193C284.131 414.796 285.798 417.449 287.514 420.052C272.903 437.687 258.292 455.273 243.681 472.907C241.082 472.22 238.435 471.483 235.836 470.795C245.201 457.925 255.301 444.711 266.235 431.399C271.677 424.768 277.07 418.382 282.415 412.193Z" fill="#6D6C6C"/>
<path fill-rule="evenodd" clip-rule="evenodd" d="M233.629 434.936C248.093 437.589 262.606 440.192 277.07 442.845C293.79 479.391 295.653 491.181 292.515 493.195C290.259 494.619 285.553 491.082 280.306 487.104C267.166 477.132 259.861 465.244 255.889 457.238C247.162 456.059 238.434 454.831 229.707 453.652C230.982 447.413 232.306 441.175 233.629 434.936Z" fill="#161616" stroke="#161616" stroke-width="2"/>
<path fill-rule="evenodd" clip-rule="evenodd" d="M203.819 353.542C177.441 361.303 161.359 377.415 151.013 388.025C137.04 402.418 119.879 420.052 124.831 433.07C127.381 439.701 135.128 443.778 171.214 450.066C198.475 454.831 222.107 457.385 240.543 458.809C242.847 450.361 245.152 441.961 247.407 433.512C228.874 427.519 210.389 421.575 191.856 415.582C203.231 413.175 215.194 410.326 227.648 406.839C237.111 404.186 246.132 401.435 254.712 398.537C262.655 382.474 264.371 365.134 256.085 355.31C244.514 341.556 218.577 349.17 203.819 353.542Z" fill="#E48BFD"/>
<path opacity="0.29" fill-rule="evenodd" clip-rule="evenodd" d="M262.508 370.538C262.263 375.401 261.43 381.639 259.174 388.516C257.801 392.692 256.232 396.327 254.663 399.323C253.34 399.421 252.016 399.569 250.692 399.667C239.513 403.351 227.599 406.839 214.998 410.081C206.859 412.193 198.916 414.01 191.218 415.681C209.801 421.526 228.383 427.322 246.966 433.168C246.573 435.182 246.083 437.294 245.495 439.505C244.808 442.059 244.024 444.417 243.288 446.578C217.646 440.241 192.003 433.905 166.36 427.568C165.183 426.143 161.31 420.986 161.898 414.158C162.535 406.74 169.596 401.484 178.617 396.67C204.702 382.818 248.437 373.436 262.508 370.538Z" fill="#6D6C6C"/>
<path opacity="0.24" fill-rule="evenodd" clip-rule="evenodd" d="M178.029 416.712C182.687 416.368 187.394 416.024 192.052 415.631C210.34 421.723 228.628 427.863 246.917 433.954C246.132 436.852 245.348 439.799 244.563 442.698C222.401 434.003 200.191 425.358 178.029 416.712Z" fill="#6D6C6C"/>
<path fill-rule="evenodd" clip-rule="evenodd" d="M196.906 242.232C204.162 237.958 216.763 231.867 233.531 230.099C259.223 227.397 278.933 236.632 286.729 240.807C285.307 260.112 283.101 275.536 281.336 286.147C279.228 298.82 277.512 305.844 276.727 317.486C275.747 332.075 276.972 344.061 278.1 351.921C269.569 354.573 256.674 357.471 240.788 357.127C225.49 356.784 213.135 353.443 204.849 350.545C207.055 332.96 206.32 319.009 205.241 309.528C204.015 298.967 202.348 293.81 200.338 281.038C197.739 264.533 197.053 251.024 196.906 242.232Z" fill="#FAF1F1" stroke="#161616" stroke-width="2"/>
<path opacity="0.14" fill-rule="evenodd" clip-rule="evenodd" d="M249.957 235.944C250.986 239.677 252.163 244.835 252.947 251.024C253.487 255.2 255.693 274.112 248.829 299.066C244.612 314.441 240.151 330.7 225.54 344.061C220.833 348.384 216.273 351.282 212.939 353.099C220.342 355.015 230.001 356.833 241.425 356.931C256.38 357.078 268.735 354.377 277.316 351.724C276.825 348.04 276.188 342.489 275.943 335.809C275.747 329.963 275.747 320.63 279.767 294.35C282.954 273.67 285.209 264.779 286.337 246.063C286.484 243.902 286.533 242.084 286.631 240.856C283.052 238.744 278.394 236.435 272.658 234.569C267.362 232.849 262.606 231.965 258.684 231.572C255.84 232.997 252.898 234.47 249.957 235.944Z" fill="#6D6C6C"/>
<path opacity="0.17" fill-rule="evenodd" clip-rule="evenodd" d="M285.209 248.863C282.464 264.435 278.835 277.01 275.992 285.754C267.656 311.297 261.822 328.489 246.083 341.065C236.326 348.875 226.177 352.166 219.656 353.738C226.275 355.605 235.64 357.422 246.966 357.177C260.008 356.882 270.549 353.935 277.463 351.429C276.531 345.436 275.452 336.447 275.746 325.493C276.09 311.297 278.394 302.75 280.944 287.178C282.366 278.041 284.18 264.975 285.209 248.863Z" fill="#6D6C6C"/>
<path fill-rule="evenodd" clip-rule="evenodd" d="M196.612 241.986C190.238 246.407 182.05 253.382 174.891 263.747C158.76 287.227 159.201 312.132 159.839 321.318C162.781 329.226 167.831 339.591 176.656 349.759C181.804 355.703 189.355 364.25 202.25 369.752C206.565 371.618 210.34 372.65 213.086 373.239C215.439 371.127 217.744 369.015 220.097 366.903C212.546 358.061 204.947 348.777 197.347 339.198C191.512 331.879 185.923 324.609 180.53 317.437C180.726 311.395 182.001 300.441 188.571 288.996C192.297 282.512 196.661 277.796 200.142 274.603C198.965 263.747 197.788 252.891 196.612 241.986Z" fill="#FAF1F1" stroke="#161616" stroke-width="2"/>
<path opacity="0.13" fill-rule="evenodd" clip-rule="evenodd" d="M197.543 252.94C183.422 268.905 176.705 284.034 173.371 293.564C167.537 310.069 168.762 318.714 169.645 322.84C170.38 326.082 171.998 331.633 177.931 340.082C183.079 347.401 193.915 360.517 214.557 371.324C216.371 369.555 218.185 367.836 219.999 366.068C214.164 359.485 208.281 352.559 202.348 345.338C194.552 335.858 187.296 326.525 180.579 317.388C180.775 312.427 181.608 305.5 184.501 297.739C188.865 286.097 195.729 278.434 199.995 274.357C199.112 267.235 198.328 260.112 197.543 252.94Z" fill="#6D6C6C"/>
<path opacity="0.16" fill-rule="evenodd" clip-rule="evenodd" d="M180.53 318.027C181.412 323.774 183.226 331.093 187.051 339.002C195.484 356.194 208.673 365.675 215.39 369.801C216.714 368.622 217.989 367.492 219.313 366.313C206.369 350.201 193.474 334.089 180.53 318.027Z" fill="#6D6C6C"/>
<path fill-rule="evenodd" clip-rule="evenodd" d="M287.465 241.102C294.623 245.474 303.841 252.302 311.833 262.47C329.974 285.508 329.435 309.971 328.748 319.009C325.414 326.77 319.776 336.938 309.872 346.959C304.086 352.756 295.604 361.155 281.14 366.608C276.286 368.425 272.02 369.457 268.931 370.046C266.333 367.983 263.685 365.92 261.086 363.857C269.52 355.163 278.1 346.075 286.631 336.644C293.152 329.423 299.428 322.3 305.508 315.276C305.263 309.381 303.89 298.623 296.486 287.325C292.27 280.94 287.416 276.322 283.493 273.178C284.866 262.47 286.19 251.81 287.465 241.102Z" fill="#FAF1F1" stroke="#161616" stroke-width="2"/>
<path opacity="0.16" fill-rule="evenodd" clip-rule="evenodd" d="M287.121 253.038C293.348 259.572 301.83 270.035 308.449 284.624C311.587 291.55 316.686 302.799 316.784 313.409C317.127 345.682 271.529 367.885 268.882 369.162C266.283 367.492 263.733 365.871 261.135 364.201C275.893 347.991 290.602 331.781 305.36 315.57C305.066 310.265 303.84 300.392 297.957 289.88C293.103 281.234 287.072 275.634 283.1 272.54C284.473 266.056 285.797 259.572 287.121 253.038Z" fill="#6D6C6C"/>
<path opacity="0.12" fill-rule="evenodd" clip-rule="evenodd" d="M305.851 315.718C305.116 319.991 303.89 324.658 301.978 329.472C293.348 351.282 275.894 363.219 267.068 368.327C264.96 366.952 262.901 365.576 260.792 364.201C275.796 348.04 290.799 331.879 305.851 315.718Z" fill="#6D6C6C"/>
<rect x="178.176" y="319.352" width="120.566" height="76.4826" fill="#FAF1F1" stroke="#161616" stroke-width="2"/>
<path fill-rule="evenodd" clip-rule="evenodd" d="M236.719 364.889C230.345 365.675 227.256 357.913 228.923 352.756C230.541 347.647 236.571 345.24 241.474 347.008C246.328 348.777 248.682 354.72 246.966 359.485C245.054 364.79 238.386 366.952 233.483 364.594C232.649 364.201 231.865 365.478 232.747 365.871C237.111 367.983 242.455 367.197 245.936 363.759C249.319 360.369 249.81 355.015 247.701 350.84C242.896 341.31 228.04 344.356 227.011 354.819C226.471 360.419 230.492 367.148 236.719 366.411C237.65 366.264 237.65 364.79 236.719 364.889Z" fill="#161616"/>
<path opacity="0.14" fill-rule="evenodd" clip-rule="evenodd" d="M223.431 319.156C239.758 324.854 250.888 339.443 251.231 355.113C251.673 374.762 235.199 393.232 212.743 395.098C241.327 395.344 269.912 395.59 298.546 395.835C298.448 370.194 298.399 344.552 298.301 318.96C273.344 318.96 248.388 319.058 223.431 319.156Z" fill="#6D6C6C"/>
<path opacity="0.26" fill-rule="evenodd" clip-rule="evenodd" d="M298.546 318.911C298.105 334.531 295.016 346.714 292.417 354.72C288.593 366.362 285.847 374.86 277.953 382.376C267.215 392.692 253.83 394.607 247.947 395.099C264.666 395.246 281.385 395.393 298.105 395.59C298.154 381.001 298.252 366.411 298.35 351.773C298.35 340.819 298.448 329.865 298.546 318.911Z" fill="#6D6C6C"/>
<path fill-rule="evenodd" clip-rule="evenodd" d="M234.904 202.59C232.208 205.882 234.806 209.91 234.316 220.667C234.071 226.021 233.188 230.344 232.502 233.242C234.806 234.323 238.876 235.846 244.122 235.993C250.594 236.141 255.497 234.127 257.899 232.948C256.821 230.786 255.399 227.446 254.516 223.123C252.31 212.12 256.232 206.962 252.996 202.885C249.221 198.169 238.532 198.12 234.904 202.59Z" fill="#FAF1F1" stroke="#161616" stroke-width="2"/>
<path fill-rule="evenodd" clip-rule="evenodd" d="M217.793 155.335C214.704 163.293 215.88 170.465 216.567 173.559C216.273 173.609 210.536 174.837 208.967 179.258C207.398 183.728 210.634 190.064 217.4 192.127C219.852 198.12 225.785 209.713 238.287 216.05C240.396 217.081 242.406 217.916 244.416 218.506C246.23 217.818 248.682 216.737 251.476 215.116C260.204 210.057 265.058 203.769 266.186 202.247C268.245 199.496 271.04 195.075 273.001 188.984C274.079 189.18 275.992 189.278 277.855 188.345C282.071 186.184 284.18 179.454 281.238 175.082C278.786 171.447 274.03 171.3 273.442 171.3C274.079 168.746 276.041 159.56 271.089 150.472C265.401 140.009 253.192 134.508 241.719 136.08C224.755 138.29 218.087 154.549 217.793 155.335Z" fill="#FAF1F1" stroke="#161616" stroke-width="2"/>
<path fill-rule="evenodd" clip-rule="evenodd" d="M234.267 215.608C237.258 217.376 240.543 220.127 244.22 219.832C247.26 219.587 250.643 217.818 252.947 215.952C253.683 215.362 252.653 214.33 251.918 214.92C249.76 216.639 246.279 218.457 243.435 218.408C240.445 218.358 237.405 215.853 234.953 214.33C234.218 213.839 233.482 215.116 234.267 215.608Z" fill="#161616"/>
<path fill-rule="evenodd" clip-rule="evenodd" d="M234.071 216.246C236.865 218.653 240.052 221.355 243.975 221.158C247.799 220.962 251.378 218.408 253.879 215.657C254.516 214.969 253.487 213.938 252.849 214.625C250.692 216.983 247.652 219.292 244.318 219.636C240.641 219.98 237.699 217.474 235.1 215.215C234.414 214.576 233.384 215.608 234.071 216.246Z" fill="#161616"/>
<path fill-rule="evenodd" clip-rule="evenodd" d="M235.934 216.541C235.934 216.492 235.934 216.492 235.934 216.541C235.64 216.099 235.1 216.001 234.757 216.345C234.757 216.345 234.757 216.345 234.708 216.394C234.414 216.639 234.414 217.18 234.708 217.425C240.101 222.583 250.005 224.253 253.879 216.345C254.271 215.509 253.045 214.723 252.604 215.608C249.172 222.681 240.494 220.962 235.787 216.394C235.787 216.737 235.787 217.081 235.787 217.425C235.787 217.425 235.787 217.425 235.836 217.376C235.443 217.327 235.051 217.278 234.659 217.229V217.278C235.149 218.064 236.424 217.327 235.934 216.541Z" fill="#161616"/>
<path fill-rule="evenodd" clip-rule="evenodd" d="M241.818 171.103C241.18 179.061 241.523 186.97 242.798 194.829C242.847 195.222 243.338 195.468 243.681 195.32C245.593 194.682 246.966 193.552 247.995 191.833C248.486 190.998 247.211 190.261 246.721 191.096C245.887 192.52 244.857 193.356 243.288 193.896C243.583 194.043 243.877 194.24 244.171 194.387C242.896 186.675 242.602 178.865 243.239 171.054C243.387 170.121 241.916 170.121 241.818 171.103Z" fill="#161616"/>
<path fill-rule="evenodd" clip-rule="evenodd" d="M233.09 178.914C233.188 179.356 233.924 182.107 233.09 182.549C232.257 182.991 229.903 181.222 229.168 178.914C228.579 176.949 229.07 174.493 230.001 174.296C230.982 174.051 232.502 176.752 233.09 178.914Z" fill="#161616" stroke="#161616"/>
<path fill-rule="evenodd" clip-rule="evenodd" d="M258.39 178.914C258.488 179.356 259.223 182.107 258.39 182.549C257.556 182.991 255.203 181.222 254.467 178.914C253.879 176.949 254.369 174.493 255.301 174.296C256.281 174.051 257.801 176.752 258.39 178.914Z" fill="#161616" stroke="#161616"/>
<path fill-rule="evenodd" clip-rule="evenodd" d="M240.052 201.313C246.034 203.868 251.476 200.282 255.889 196.401C256.625 195.762 255.546 194.731 254.859 195.37C251.035 198.71 246.132 202.296 240.837 200.036C239.905 199.692 239.17 200.969 240.052 201.313Z" fill="#161616"/>
<path fill-rule="evenodd" clip-rule="evenodd" d="M257.311 186.724C258.243 186.724 258.243 185.25 257.311 185.25C256.379 185.25 256.379 186.724 257.311 186.724Z" fill="#161616"/>
<path fill-rule="evenodd" clip-rule="evenodd" d="M262.753 183.973C262.802 183.924 262.852 183.875 262.901 183.826C263.195 183.531 263.195 183.089 262.901 182.794C262.606 182.5 262.165 182.5 261.871 182.794C261.822 182.843 261.773 182.893 261.724 182.942C261.43 183.236 261.43 183.679 261.724 183.973C262.018 184.268 262.459 184.268 262.753 183.973Z" fill="#161616"/>
<path fill-rule="evenodd" clip-rule="evenodd" d="M261.135 187.559C261.184 187.559 261.233 187.559 261.282 187.559C261.675 187.559 262.018 187.215 262.018 186.822C262.018 186.429 261.675 186.085 261.282 186.085C261.233 186.085 261.184 186.085 261.135 186.085C260.743 186.085 260.4 186.429 260.4 186.822C260.4 187.215 260.694 187.559 261.135 187.559Z" fill="#161616"/>
<path fill-rule="evenodd" clip-rule="evenodd" d="M227.304 170.121C229.168 168.549 231.913 168.5 233.776 170.023C234.512 170.612 235.541 169.581 234.806 168.991C232.256 166.928 228.726 166.928 226.226 169.089C225.539 169.679 226.618 170.71 227.304 170.121Z" fill="#161616"/>
<path fill-rule="evenodd" clip-rule="evenodd" d="M251.231 169.581C253.34 167.714 256.331 167.37 258.831 168.696C259.665 169.138 260.4 167.861 259.567 167.419C256.478 165.749 252.8 166.191 250.202 168.549C249.466 169.188 250.496 170.219 251.231 169.581Z" fill="#161616"/>
<path fill-rule="evenodd" clip-rule="evenodd" d="M227.697 186.577C228.628 186.577 228.628 185.103 227.697 185.103C226.765 185.103 226.765 186.577 227.697 186.577Z" fill="#161616"/>
<path fill-rule="evenodd" clip-rule="evenodd" d="M232.894 185.889C233.826 185.889 233.826 184.415 232.894 184.415C231.962 184.415 231.962 185.889 232.894 185.889Z" fill="#161616"/>
<path fill-rule="evenodd" clip-rule="evenodd" d="M230.295 187.019C230.246 187.068 230.197 187.117 230.148 187.166C229.854 187.461 229.854 187.903 230.148 188.198C230.442 188.492 230.884 188.492 231.178 188.198C231.227 188.149 231.276 188.099 231.325 188.05C231.619 187.756 231.619 187.314 231.325 187.019C231.031 186.724 230.589 186.724 230.295 187.019Z" fill="#161616"/>
<path fill-rule="evenodd" clip-rule="evenodd" d="M225.785 139.371C222.843 141.188 216.42 145.167 212.056 153.321C207.692 161.426 207.741 169.089 207.938 172.381C200.779 185.3 197.543 196.696 195.974 204.457C193.425 216.787 194.797 221.306 196.562 224.302C200.877 231.67 209.556 233.488 211.664 233.93C222.5 236.239 231.129 230.688 233.09 229.411C233.629 227.79 234.169 225.776 234.463 223.516C235.002 219.636 234.708 216.295 234.267 213.888C231.815 211.874 228.972 209.173 226.226 205.636C222.058 200.233 219.705 194.927 218.381 191.096C214.066 190.654 210.83 187.707 210.536 184.415C210.242 181.321 212.399 177.342 215.243 177.342C217.351 177.342 218.871 179.503 219.165 179.896C220.783 178.963 223.039 177.342 225.049 174.787C227.942 171.103 228.432 167.812 229.756 164.374C231.031 161.033 233.482 156.416 238.778 151.602C243.877 153.42 247.946 155.188 250.741 156.514C259.714 160.69 264.813 163.146 268.784 168.5C270.991 171.447 272.118 174.345 272.707 176.163C277.266 172.675 279.13 173.609 279.522 173.805C282.415 175.426 282.317 184.317 277.806 186.773C276.09 187.707 274.128 187.461 272.903 187.166C271.481 192.127 268.343 200.233 261.135 207.404C258.733 209.811 256.281 211.678 254.075 213.102C253.879 214.92 253.781 217.425 254.271 220.372C254.712 223.074 255.497 225.285 256.232 226.857C268.147 234.716 282.954 233.291 290.995 224.843C298.153 217.278 298.153 205.832 295.457 198.022C293.005 190.899 288.249 186.626 285.896 184.759C286.533 182.008 290.063 165.7 279.816 150.718C277.168 146.837 269.765 137.455 256.429 134.213C242.308 130.774 230.688 136.374 225.785 139.371Z" fill="#5222D0"/>
<path opacity="0.17" fill-rule="evenodd" clip-rule="evenodd" d="M256.87 159.56C262.41 166.535 263.881 172.97 264.371 176.31C266.382 190.359 258.243 201.755 254.124 207.601C250.741 212.366 247.26 215.755 244.759 217.966C246.917 223.762 249.025 229.509 251.182 235.305C253.389 234.569 255.595 233.832 257.801 233.095C256.772 231.277 255.693 229.018 254.86 226.267C253.34 221.355 253.242 217.032 253.389 214.085C256.085 212.169 259.223 209.566 262.263 206.127C268.343 199.25 271.383 192.177 272.952 187.412C273.932 187.608 276.041 187.854 278.051 186.724C282.267 184.317 281.581 178.324 281.532 177.931C281.385 176.654 281.091 174.591 279.62 173.756C277.904 172.823 275.06 173.707 272.805 176.359C272.118 173.952 270.157 168.402 264.862 163.981C261.92 161.525 258.929 160.247 256.87 159.56Z" fill="#6D6C6C"/>
<path opacity="0.19" fill-rule="evenodd" clip-rule="evenodd" d="M242.504 171.545C242.21 171.496 241.229 175.77 238.238 194.633C239.954 194.633 241.67 194.633 243.386 194.633C243.043 192.127 242.651 188.492 242.455 184.072C242.21 176.507 242.798 171.595 242.504 171.545Z" fill="#6D6C6C"/>
<path opacity="0.54" fill-rule="evenodd" clip-rule="evenodd" d="M285.602 185.25C284.768 185.742 287.906 189.966 287.465 196.254C287.318 198.219 287.023 202.689 283.493 205.685C283.248 205.882 278.002 210.204 272.805 207.453C269.716 205.832 267.853 202.394 267.951 198.661C266.48 201.411 264.077 205.047 260.302 208.583C257.948 210.794 255.644 212.415 253.634 213.643C253.487 215.804 253.487 218.751 254.271 222.092C254.712 223.909 255.252 225.481 255.791 226.758C257.311 227.741 259.566 229.067 262.508 230.099C264.371 230.737 274.619 234.323 284.621 229.362C286.386 228.478 290.308 226.464 293.152 222.141C293.495 221.601 294.77 219.685 295.702 216.443C299.036 205.341 294.133 195.32 293.692 194.485C290.995 189.033 286.631 184.661 285.602 185.25Z" fill="#341999"/>
<path opacity="0.35" fill-rule="evenodd" clip-rule="evenodd" d="M218.332 191.292C217.89 191.342 218.871 195.37 217.792 199.348C217.008 202.296 214.507 207.11 210.242 208.092C205.78 209.074 200.239 205.783 197.69 199.643C196.513 202.345 194.944 206.668 194.699 212.169C194.552 215.755 194.356 219.587 196.121 223.369C200.092 231.818 211.762 235.109 220.44 234.323C226.226 233.783 230.589 231.523 232.943 230C233.531 228.33 234.119 226.316 234.512 224.007C235.149 220.029 235.002 216.541 234.659 213.987C230.785 211.187 228.138 208.289 226.471 206.176C224.117 203.18 220.93 199.152 219.312 193.552C219.067 192.913 218.626 191.243 218.332 191.292Z" fill="#341999"/>
</svg>
