<svg width="133" height="150" viewBox="0 0 133 150" fill="none" xmlns="http://www.w3.org/2000/svg">
<path fill-rule="evenodd" clip-rule="evenodd" d="M129.161 60.5495H29.2083L125.214 32.7381C125.96 32.5218 126.59 32.0171 126.965 31.3374C127.34 30.6564 127.43 29.8553 127.213 29.1092L122.189 11.7657C120.182 4.83856 113.732 0 106.504 0C104.981 0 103.463 0.216293 101.992 0.642013L11.8522 26.754C7.68315 27.9613 4.22817 30.7331 2.12132 34.5566C0.0156043 38.3801 -0.47878 42.7826 0.728571 46.9505L5.63694 63.8947V133.696C5.63694 142.686 12.9509 150 21.9402 150H57.1445C58.7627 150 60.0742 148.689 60.0742 147.07C60.0742 145.452 58.7627 144.141 57.1445 144.141H21.9413C16.1815 144.141 11.4963 139.455 11.4963 133.696V93.8267H26.5052H26.5121H26.5178H49.4609H49.4678H49.4747H72.4178H72.4247H72.4315H95.3746H95.3815H95.3872H126.231V133.696C126.231 139.455 121.546 144.141 115.786 144.141H80.582C78.965 144.141 77.6523 145.452 77.6523 147.07C77.6523 148.689 78.965 150 80.582 150H115.786C124.777 150 132.091 142.686 132.091 133.696V63.4792C132.091 61.861 130.779 60.5495 129.161 60.5495ZM77.5013 87.9673L89.949 66.4089H106.139L93.6924 87.9673H77.5013ZM54.5444 87.9673L66.9921 66.4089H83.1821L70.7355 87.9673H54.5444ZM31.5887 87.9673L44.0353 66.4089H60.2264L47.7787 87.9673H31.5887ZM42.4812 50.0404L21.6369 30.0201L37.2547 25.4963C37.3645 25.6565 37.4927 25.8076 37.6392 25.9483L58.4835 45.9686L42.8657 50.4925C42.7559 50.3323 42.6265 50.1801 42.4812 50.0404ZM81.739 13.1733L102.583 33.1936L86.9655 37.7174C86.8557 37.5572 86.7275 37.405 86.581 37.2654L65.7367 17.2451L81.3545 12.7213C81.4643 12.8815 81.5925 13.0325 81.739 13.1733ZM59.6885 19.5614L80.5328 39.5805L64.915 44.1055C64.8052 43.9453 64.677 43.7931 64.5305 43.6535L43.6863 23.6332L59.304 19.1093C59.415 19.2684 59.5432 19.4206 59.6885 19.5614ZM103.622 6.27022C104.563 5.99785 105.532 5.85938 106.504 5.85938C111.14 5.85938 115.275 8.95844 116.561 13.3965L120.77 27.9247L109.016 31.3293C108.905 31.1691 108.777 31.0181 108.63 30.8773L87.7872 10.8582L103.622 6.27022ZM7.25399 37.3833C8.60439 34.9308 10.8165 33.1547 13.483 32.3822L15.2042 31.8832C15.3152 32.0435 15.4434 32.1957 15.5887 32.3353L36.433 52.3556L10.5659 59.8492L6.35677 45.3209C5.5843 42.6556 5.90359 39.8369 7.25399 37.3833ZM11.4963 66.4089H37.2696L24.823 87.9673H11.4963V66.4089ZM100.458 87.9673L112.905 66.4089H126.231V87.9673H100.458Z" fill="#FDE387"/>
<path fill-rule="evenodd" clip-rule="evenodd" d="M89.1216 118.686C89.1216 117.638 88.5631 116.671 87.6567 116.148L61.9178 101.288C61.0115 100.765 59.8945 100.765 58.9882 101.288C58.0818 101.811 57.5233 102.778 57.5233 103.825V133.546C57.5233 134.592 58.0818 135.559 58.9882 136.082C59.4413 136.344 59.9472 136.475 60.453 136.475C60.9588 136.475 61.4647 136.344 61.9178 136.082L87.6567 121.223C88.5631 120.7 89.1216 119.733 89.1216 118.686ZM63.3827 128.471V108.9L80.3325 118.686L63.3827 128.471Z" fill="#FDE387"/>
<path fill-rule="evenodd" clip-rule="evenodd" d="M68.8633 144.141C67.2497 144.141 65.9336 145.457 65.9336 147.07C65.9336 148.684 67.2497 150 68.8633 150C70.478 150 71.793 148.684 71.793 147.07C71.793 145.457 70.478 144.141 68.8633 144.141Z" fill="#FDE387"/>
</svg>
