<svg width="136" height="103" viewBox="0 0 136 103" fill="none" xmlns="http://www.w3.org/2000/svg">
<g clip-path="url(#clip0)">
<path d="M129.49 54.39H70.4824V49.6293C70.4752 45.2497 65.7623 41.7001 59.9453 41.6947H10.4209C7.51085 41.6947 5.15234 39.9187 5.15234 37.7274C5.15234 35.5369 7.51085 33.7601 10.4209 33.7601H84.724C91.0113 33.7733 97.0434 31.8912 101.476 28.5345L98.4963 26.2905C94.8515 29.0505 89.8927 30.5971 84.724 30.5863H10.4209C5.18321 30.5863 0.9375 33.7841 0.9375 37.7274C0.9375 41.6714 5.18321 44.8685 10.4209 44.8685H59.9453C63.4368 44.8685 66.2676 47.0002 66.2676 49.6293V54.39H7.25977C3.76832 54.39 0.9375 56.5216 0.9375 59.1507V97.2367C0.9375 99.8665 3.76832 101.997 7.25977 101.997H129.49C132.982 101.997 135.812 99.8665 135.812 97.2367V59.1507C135.812 56.5216 132.982 54.39 129.49 54.39ZM131.598 97.2367C131.598 98.113 130.654 98.8236 129.49 98.8236H7.25977C6.09595 98.8236 5.15234 98.113 5.15234 97.2367V59.1507C5.15234 58.2744 6.09595 57.5638 7.25977 57.5638H129.49C130.654 57.5638 131.598 58.2744 131.598 59.1507V97.2367Z" fill="#BB6BD9"/>
<path d="M110.523 95.6497H127.383V73.4329H110.523V95.6497ZM114.738 76.6068H123.168V92.4759H114.738V76.6068Z" fill="#BB6BD9"/>
<path d="M99.9863 86.1282H32.5488C29.0574 86.1282 26.2266 88.2599 26.2266 90.889C26.2266 93.5189 29.0574 95.6497 32.5488 95.6497H99.9863C103.478 95.6497 106.309 93.5189 106.309 90.889C106.309 88.2599 103.478 86.1282 99.9863 86.1282ZM99.9863 92.4759H32.5488C31.385 92.4759 30.4414 91.7653 30.4414 90.889C30.4414 90.0126 31.385 89.3021 32.5488 89.3021H99.9863C101.15 89.3021 102.094 90.0126 102.094 90.889C102.094 91.7653 101.15 92.4759 99.9863 92.4759Z" fill="#BB6BD9"/>
<path d="M9.36719 95.6497H22.0117V86.1282H9.36719V95.6497ZM13.582 89.3021H17.7969V92.4759H13.582V89.3021Z" fill="#BB6BD9"/>
<path d="M9.36719 82.9544H22.0117V73.4329H9.36719V82.9544ZM13.582 76.6068H17.7969V79.7806H13.582V76.6068Z" fill="#BB6BD9"/>
<path d="M38.8711 73.4329H26.2266V82.9544H38.8711V73.4329ZM34.6562 79.7806H30.4414V76.6068H34.6562V79.7806Z" fill="#BB6BD9"/>
<path d="M55.7305 73.4329H43.0859V82.9544H55.7305V73.4329ZM51.5156 79.7806H47.3008V76.6068H51.5156V79.7806Z" fill="#BB6BD9"/>
<path d="M72.5898 73.4329H59.9453V82.9544H72.5898V73.4329ZM68.375 79.7806H64.1602V76.6068H68.375V79.7806Z" fill="#BB6BD9"/>
<path d="M89.4492 73.4329H76.8047V82.9544H89.4492V73.4329ZM85.2344 79.7806H81.0195V76.6068H85.2344V79.7806Z" fill="#BB6BD9"/>
<path d="M93.6641 82.9544H106.309V73.4329H93.6641V82.9544ZM97.8789 76.6068H102.094V79.7806H97.8789V76.6068Z" fill="#BB6BD9"/>
<path d="M9.36719 70.2591H22.0117V60.7376H9.36719V70.2591ZM13.582 63.9114H17.7969V67.0853H13.582V63.9114Z" fill="#BB6BD9"/>
<path d="M38.8711 60.7376H26.2266V70.2591H38.8711V60.7376ZM34.6562 67.0853H30.4414V63.9114H34.6562V67.0853Z" fill="#BB6BD9"/>
<path d="M55.7305 60.7376H43.0859V70.2591H55.7305V60.7376ZM51.5156 67.0853H47.3008V63.9114H51.5156V67.0853Z" fill="#BB6BD9"/>
<path d="M72.5898 60.7376H59.9453V70.2591H72.5898V60.7376ZM68.375 67.0853H64.1602V63.9114H68.375V67.0853Z" fill="#BB6BD9"/>
<path d="M89.4492 60.7376H76.8047V70.2591H89.4492V60.7376ZM85.2344 67.0853H81.0195V63.9114H85.2344V67.0853Z" fill="#BB6BD9"/>
<path d="M93.6641 70.2591H127.383V60.7376H93.6641V70.2591ZM97.8789 63.9114H123.168V67.0853H97.8789V63.9114Z" fill="#BB6BD9"/>
<path d="M13.582 48.0423H34.6562V51.2161H13.582V48.0423Z" fill="#BB6BD9"/>
<path d="M74.6973 44.8685H78.9121V51.2161H74.6973V44.8685Z" fill="#BB6BD9"/>
<path d="M38.8711 48.0423H51.5156V51.2161H38.8711V48.0423Z" fill="#BB6BD9"/>
<path d="M43.0859 24.2386H47.3008V27.4124H43.0859V24.2386Z" fill="#BB6BD9"/>
<path d="M55.7305 24.2386H76.8047V27.4124H55.7305V24.2386Z" fill="#BB6BD9"/>
<path d="M114.783 44.8421L134.995 1.08423L74.3557 16.304L104.678 23.9217L114.783 44.8421ZM114.694 35.3741L108.747 23.06L126.588 9.62474L114.694 35.3741ZM123.8 7.24127L105.74 20.8362L87.6835 16.304L123.8 7.24127Z" fill="#BB6BD9"/>
</g>
<defs>
<clipPath id="clip0">
<rect width="134.875" height="101.562" fill="white" transform="translate(0.9375 0.6875)"/>
</clipPath>
</defs>
</svg>
